<svg version="1.1" viewBox="0.0 0.0 600.0 371.0" fill="none" stroke="none" stroke-linecap="square" stroke-miterlimit="10" width="600" height="371" xmlns:xlink="http://www.w3.org/1999/xlink" xmlns="http://www.w3.org/2000/svg"><path fill="#ffffff" d="M0 0L600.0 0L600.0 371.0L0 371.0L0 0Z" fill-rule="nonzero"/><path stroke="#333333" stroke-width="1.0" stroke-linecap="butt" d="M80.5 332.5L581.5 332.5" fill-rule="nonzero"/><path stroke="#cccccc" stroke-width="1.0" stroke-linecap="butt" d="M80.5 271.5L581.5 271.5" fill-rule="nonzero"/><path stroke="#cccccc" stroke-width="1.0" stroke-linecap="butt" d="M80.5 210.5L581.5 210.5" fill-rule="nonzero"/><path stroke="#cccccc" stroke-width="1.0" stroke-linecap="butt" d="M80.5 149.5L581.5 149.5" fill-rule="nonzero"/><path stroke="#cccccc" stroke-width="1.0" stroke-linecap="butt" d="M80.5 88.5L581.5 88.5" fill-rule="nonzero"/><clipPath id="id_0"><path d="M80.55 88.28333L581.45 88.28333L581.45 332.45L80.55 332.45L80.55 88.28333Z" clip-rule="nonzero"/></clipPath><path stroke="#000000" stroke-width="0.0" stroke-linecap="butt" stroke-opacity="0.0" clip-path="url(#id_0)" d="M270.0 332.0L211.0 332.0L211.0 120.0C211.0 118.89543 211.89543 118.0 213.0 118.0L268.0 118.0C269.10458 118.0 270.0 118.89543 270.0 120.0Z" fill-rule="nonzero"/><path fill="#4285f4" clip-path="url(#id_0)" d="M270.0 332.0L211.0 332.0L211.0 120.0C211.0 118.89543 211.89543 118.0 213.0 118.0L268.0 118.0C269.10458 118.0 270.0 118.89543 270.0 120.0Z" fill-rule="nonzero"/><path stroke="#000000" stroke-width="0.0" stroke-linecap="butt" stroke-opacity="0.0" clip-path="url(#id_0)" d="M330.0 332.0L271.0 332.0L271.0 136.0C271.0 134.89543 271.89542 134.0 273.0 134.0L328.0 134.0C329.10458 134.0 330.0 134.89543 330.0 136.0Z" fill-rule="nonzero"/><path fill="#ea4335" clip-path="url(#id_0)" d="M330.0 332.0L271.0 332.0L271.0 136.0C271.0 134.89543 271.89542 134.0 273.0 134.0L328.0 134.0C329.10458 134.0 330.0 134.89543 330.0 136.0Z" fill-rule="nonzero"/><path stroke="#000000" stroke-width="0.0" stroke-linecap="butt" stroke-opacity="0.0" clip-path="url(#id_0)" d="M390.0 332.0L331.0 332.0L331.0 196.0C331.0 194.89543 331.89542 194.0 333.0 194.0L388.0 194.0C389.10458 194.0 390.0 194.89543 390.0 196.0Z" fill-rule="nonzero"/><path fill="#fbbc04" clip-path="url(#id_0)" d="M390.0 332.0L331.0 332.0L331.0 196.0C331.0 194.89543 331.89542 194.0 333.0 194.0L388.0 194.0C389.10458 194.0 390.0 194.89543 390.0 196.0Z" fill-rule="nonzero"/><path stroke="#000000" stroke-width="0.0" stroke-linecap="butt" stroke-opacity="0.0" clip-path="url(#id_0)" d="M450.0 332.0L391.0 332.0L391.0 273.0C391.0 271.89542 391.89542 271.0 393.0 271.0L448.0 271.0C449.10458 271.0 450.0 271.89542 450.0 273.0Z" fill-rule="nonzero"/><path fill="#34a853" clip-path="url(#id_0)" d="M450.0 332.0L391.0 332.0L391.0 273.0C391.0 271.89542 391.89542 271.0 393.0 271.0L448.0 271.0C449.10458 271.0 450.0 271.89542 450.0 273.0Z" fill-rule="nonzero"/><path fill="#000000" d="M27.550013 237.3198L27.675013 236.22604Q28.628138 236.47604 29.159388 237.17917Q29.690638 237.8823 29.690638 238.96042Q29.690638 240.3198 28.846888 241.1323Q28.003138 241.92917 26.487513 241.92917Q24.925013 241.92917 24.065638 241.11667Q23.190638 240.30417 23.190638 239.02292Q23.190638 237.77292 24.034388 236.99167Q24.878138 236.1948 26.425013 236.1948Q26.518763 236.1948 26.706263 236.1948L26.706263 240.83542Q27.737513 240.77292 28.284388 240.2573Q28.815638 239.74167 28.815638 238.96042Q28.815638 238.3823 28.518763 237.97604Q28.206263 237.55417 27.550013 237.3198ZM25.846888 240.77292L25.846888 237.30417Q25.050013 237.36667 24.659388 237.6948Q24.050013 238.21042 24.050013 239.0073Q24.050013 239.74167 24.534388 240.24167Q25.018763 240.72604 25.846888 240.77292ZM29.550013 234.3198L24.143763 234.3198L24.143763 235.2573L23.331263 235.2573L23.331263 234.3198L22.659388 234.3198Q22.034388 234.3198 21.737513 234.21042Q21.315638 234.05417 21.065638 233.67917Q20.815638 233.28854 20.815638 232.60104Q20.815638 232.14792 20.925013 231.61667L21.831263 231.77292Q21.784388 232.10104 21.784388 232.39792Q21.784388 232.8823 21.987513 233.08542Q22.190638 233.27292 22.753138 233.27292L23.331263 233.27292L23.331263 232.05417L24.143763 232.05417L24.143763 233.27292L29.550013 233.27292L29.550013 234.3198ZM29.550013 231.3198L24.143763 231.3198L24.143763 232.2573L23.331263 232.2573L23.331263 231.3198L22.659388 231.3198Q22.034388 231.3198 21.737513 231.21042Q21.315638 231.05417 21.065638 230.67917Q20.815638 230.28854 20.815638 229.60104Q20.815638 229.14792 20.925013 228.61667L21.831263 228.77292Q21.784388 229.10104 21.784388 229.39792Q21.784388 229.8823 21.987513 230.08542Q22.190638 230.27292 22.753138 230.27292L23.331263 230.27292L23.331263 229.05417L24.143763 229.05417L24.143763 230.27292L29.550013 230.27292L29.550013 231.3198ZM22.175013 228.5698L20.956263 228.5698L20.956263 227.5073L22.175013 227.5073L22.175013 228.5698ZM29.550013 228.5698L23.331263 228.5698L23.331263 227.5073L29.550013 227.5073L29.550013 228.5698ZM27.268763 221.5073L27.409388 220.47604Q28.471888 220.64792 29.081263 221.35104Q29.690638 222.05417 29.690638 223.0698Q29.690638 224.35104 28.862513 225.1323Q28.018763 225.89792 26.456263 225.89792Q25.456263 225.89792 24.706263 225.5698Q23.940638 225.22604 23.565638 224.55417Q23.190638 223.86667 23.190638 223.05417Q23.190638 222.05417 23.706263 221.41354Q24.206263 220.7573 25.159388 220.5698L25.315638 221.60104Q24.690638 221.74167 24.378138 222.11667Q24.050013 222.49167 24.050013 223.02292Q24.050013 223.8198 24.628138 224.3198Q25.190638 224.8198 26.425013 224.8198Q27.690638 224.8198 28.253138 224.33542Q28.815638 223.85104 28.815638 223.08542Q28.815638 222.46042 28.440638 222.05417Q28.065638 221.6323 27.268763 221.5073ZM22.175013 219.5698L20.956263 219.5698L20.956263 218.5073L22.175013 218.5073L22.175013 219.5698ZM29.550013 219.5698L23.331263 219.5698L23.331263 218.5073L29.550013 218.5073L29.550013 219.5698ZM27.550013 212.3198L27.675013 211.22604Q28.628138 211.47604 29.159388 212.17917Q29.690638 212.8823 29.690638 213.96042Q29.690638 215.3198 28.846888 216.1323Q28.003138 216.92917 26.487513 216.92917Q24.925013 216.92917 24.065638 216.11667Q23.190638 215.30417 23.190638 214.02292Q23.190638 212.77292 24.034388 211.99167Q24.878138 211.1948 26.425013 211.1948Q26.518763 211.1948 26.706263 211.1948L26.706263 215.83542Q27.737513 215.77292 28.284388 215.2573Q28.815638 214.74167 28.815638 213.96042Q28.815638 213.3823 28.518763 212.97604Q28.206263 212.55417 27.550013 212.3198ZM25.846888 215.77292L25.846888 212.30417Q25.050013 212.36667 24.659388 212.6948Q24.050013 213.21042 24.050013 214.0073Q24.050013 214.74167 24.534388 215.24167Q25.018763 215.72604 25.846888 215.77292ZM29.550013 209.5698L23.331263 209.5698L23.331263 208.6323L24.206263 208.6323Q23.190638 207.9448 23.190638 206.64792Q23.190638 206.08542 23.393763 205.61667Q23.596888 205.1323 23.925013 204.89792Q24.253138 204.66354 24.690638 204.5698Q24.987513 204.52292 25.721888 204.52292L29.550013 204.52292L29.550013 205.5698L25.768763 205.5698Q25.112513 205.5698 24.800013 205.6948Q24.487513 205.8198 24.300013 206.1323Q24.096888 206.4448 24.096888 206.86667Q24.096888 207.53854 24.534388 208.03854Q24.956263 208.52292 26.143763 208.52292L29.550013 208.52292L29.550013 209.5698ZM27.268763 198.5073L27.409388 197.47604Q28.471888 197.64792 29.081263 198.35104Q29.690638 199.05417 29.690638 200.0698Q29.690638 201.35104 28.862513 202.1323Q28.018763 202.89792 26.456263 202.89792Q25.456263 202.89792 24.706263 202.5698Q23.940638 202.22604 23.565638 201.55417Q23.190638 200.86667 23.190638 200.05417Q23.190638 199.05417 23.706263 198.41354Q24.206263 197.7573 25.159388 197.5698L25.315638 198.60104Q24.690638 198.74167 24.378138 199.11667Q24.050013 199.49167 24.050013 200.02292Q24.050013 200.8198 24.628138 201.3198Q25.190638 201.8198 26.425013 201.8198Q27.690638 201.8198 28.253138 201.33542Q28.815638 200.85104 28.815638 200.08542Q28.815638 199.46042 28.440638 199.05417Q28.065638 198.6323 27.268763 198.5073ZM31.940638 196.61667L30.956263 196.74167Q31.050013 196.39792 31.050013 196.1323Q31.050013 195.78854 30.925013 195.58542Q30.815638 195.36667 30.612513 195.22604Q30.440638 195.1323 29.815638 194.89792Q29.737513 194.8823 29.565638 194.80417L23.331263 197.17917L23.331263 196.03854L26.925013 194.74167Q27.612513 194.49167 28.378138 194.28854Q27.643763 194.10104 26.956263 193.85104L23.331263 192.52292L23.331263 191.47604L29.659388 193.83542Q30.675013 194.22604 31.065638 194.42917Q31.596888 194.71042 31.831263 195.08542Q32.08126 195.4448 32.08126 195.9448Q32.08126 196.24167 31.940638 196.61667Z" fill-rule="nonzero"/><path fill="#000000" d="M68.05 332.21564Q68.05 330.6844 68.3625 329.7625Q68.675 328.825 69.28438 328.325Q69.90938 327.825 70.84688 327.825Q71.53438 327.825 72.05 328.10626Q72.58125 328.3875 72.925 328.91876Q73.26875 329.4344 73.45625 330.1844Q73.64375 330.9344 73.64375 332.21564Q73.64375 333.73126 73.33125 334.65314Q73.03438 335.575 72.40938 336.09064Q71.8 336.59064 70.84688 336.59064Q69.6125 336.59064 68.89375 335.7Q68.05 334.6375 68.05 332.21564ZM69.12813 332.21564Q69.12813 334.325 69.62813 335.02814Q70.12813 335.73126 70.84688 335.73126Q71.58125 335.73126 72.06563 335.02814Q72.56563 334.325 72.56563 332.21564Q72.56563 330.09064 72.06563 329.40314Q71.58125 328.7 70.83125 328.7Q70.1125 328.7 69.675 329.3094Q69.12813 330.09064 69.12813 332.21564Z" fill-rule="nonzero"/><path fill="#000000" d="M51.05 271.17395Q51.05 269.6427 51.3625 268.72083Q51.675 267.78333 52.284374 267.28333Q52.909374 266.78333 53.846874 266.78333Q54.534374 266.78333 55.05 267.06458Q55.58125 267.34583 55.925 267.87708Q56.26875 268.3927 56.45625 269.1427Q56.64375 269.8927 56.64375 271.17395Q56.64375 272.68958 56.33125 273.61145Q56.034374 274.53333 55.409374 275.04895Q54.8 275.54895 53.846874 275.54895Q52.6125 275.54895 51.89375 274.65833Q51.05 273.59583 51.05 271.17395ZM52.128124 271.17395Q52.128124 273.28333 52.628124 273.98645Q53.128124 274.68958 53.846874 274.68958Q54.58125 274.68958 55.065624 273.98645Q55.565624 273.28333 55.565624 271.17395Q55.565624 269.04895 55.065624 268.36145Q54.58125 267.65833 53.83125 267.65833Q53.1125 267.65833 52.675 268.2677Q52.128124 269.04895 52.128124 271.17395ZM58.6125 275.40833L58.6125 274.2052L59.815624 274.2052L59.815624 275.40833Q59.815624 276.06458 59.58125 276.47083Q59.346874 276.8927 58.846874 277.11145L58.55 276.65833Q58.878124 276.5177 59.034374 276.22083Q59.190624 275.93958 59.221874 275.40833L58.6125 275.40833ZM66.59688 274.3927L66.59688 275.40833L60.909374 275.40833Q60.909374 275.03333 61.034374 274.67395Q61.253124 274.09583 61.721874 273.53333Q62.20625 272.97083 63.1125 272.23645Q64.51875 271.0802 65.00313 270.40833Q65.50313 269.73645 65.50313 269.1427Q65.50313 268.5177 65.05 268.09583Q64.59688 267.65833 63.878124 267.65833Q63.1125 267.65833 62.659374 268.11145Q62.20625 268.56458 62.190624 269.37708L61.1125 269.2677Q61.221874 268.04895 61.940624 267.42395Q62.675 266.78333 63.909374 266.78333Q65.14375 266.78333 65.8625 267.47083Q66.58125 268.15833 66.58125 269.17395Q66.58125 269.68958 66.3625 270.18958Q66.15938 270.67395 65.65938 271.23645Q65.175 271.78333 64.05 272.73645Q63.096874 273.53333 62.815624 273.8302Q62.55 274.11145 62.378124 274.3927L66.59688 274.3927ZM68.05 273.15833L69.15938 273.06458Q69.28438 273.87708 69.72188 274.28333Q70.175 274.68958 70.81563 274.68958Q71.56563 274.68958 72.09688 274.11145Q72.62813 273.53333 72.62813 272.59583Q72.62813 271.68958 72.1125 271.17395Q71.6125 270.6427 70.78438 270.6427Q70.28438 270.6427 69.8625 270.87708Q69.45625 271.11145 69.22188 271.47083L68.2375 271.34583L69.06563 266.93958L73.34688 266.93958L73.34688 267.93958L69.90938 267.93958L69.45625 270.25208Q70.22188 269.7052 71.06563 269.7052Q72.19063 269.7052 72.95625 270.48645Q73.7375 271.2677 73.7375 272.50208Q73.7375 273.65833 73.06563 274.5177Q72.2375 275.54895 70.81563 275.54895Q69.64375 275.54895 68.89375 274.8927Q68.15938 274.23645 68.05 273.15833Z" fill-rule="nonzero"/><path fill="#000000" d="M58.05 210.1323Q58.05 208.60104 58.3625 207.67917Q58.675 206.74167 59.284374 206.24167Q59.909374 205.74167 60.846874 205.74167Q61.534374 205.74167 62.05 206.02292Q62.58125 206.30417 62.925 206.83542Q63.26875 207.35104 63.45625 208.10104Q63.64375 208.85104 63.64375 210.1323Q63.64375 211.64792 63.33125 212.5698Q63.034374 213.49167 62.409374 214.0073Q61.8 214.5073 60.846874 214.5073Q59.6125 214.5073 58.89375 213.61667Q58.05 212.55417 58.05 210.1323ZM59.128124 210.1323Q59.128124 212.24167 59.628124 212.9448Q60.128124 213.64792 60.846874 213.64792Q61.58125 213.64792 62.065624 212.9448Q62.565624 212.24167 62.565624 210.1323Q62.565624 208.0073 62.065624 207.3198Q61.58125 206.61667 60.83125 206.61667Q60.1125 206.61667 59.675 207.22604Q59.128124 208.0073 59.128124 210.1323ZM65.6125 214.36667L65.6125 213.16354L66.81563 213.16354L66.81563 214.36667Q66.81563 215.02292 66.58125 215.42917Q66.34688 215.85104 65.84688 216.0698L65.55 215.61667Q65.87813 215.47604 66.03438 215.17917Q66.19063 214.89792 66.22188 214.36667L65.6125 214.36667ZM68.05 212.11667L69.15938 212.02292Q69.28438 212.83542 69.72188 213.24167Q70.175 213.64792 70.81563 213.64792Q71.56563 213.64792 72.09688 213.0698Q72.62813 212.49167 72.62813 211.55417Q72.62813 210.64792 72.1125 210.1323Q71.6125 209.60104 70.78438 209.60104Q70.28438 209.60104 69.8625 209.83542Q69.45625 210.0698 69.22188 210.42917L68.2375 210.30417L69.06563 205.89792L73.34688 205.89792L73.34688 206.89792L69.90938 206.89792L69.45625 209.21042Q70.22188 208.66354 71.06563 208.66354Q72.19063 208.66354 72.95625 209.4448Q73.7375 210.22604 73.7375 211.46042Q73.7375 212.61667 73.06563 213.47604Q72.2375 214.5073 70.81563 214.5073Q69.64375 214.5073 68.89375 213.85104Q68.15938 213.1948 68.05 212.11667Z" fill-rule="nonzero"/><path fill="#000000" d="M51.05 149.09062Q51.05 147.55937 51.3625 146.6375Q51.675 145.7 52.284374 145.2Q52.909374 144.7 53.846874 144.7Q54.534374 144.7 55.05 144.98125Q55.58125 145.2625 55.925 145.79375Q56.26875 146.30937 56.45625 147.05937Q56.64375 147.80937 56.64375 149.09062Q56.64375 150.60625 56.33125 151.52812Q56.034374 152.45 55.409374 152.96562Q54.8 153.46562 53.846874 153.46562Q52.6125 153.46562 51.89375 152.575Q51.05 151.5125 51.05 149.09062ZM52.128124 149.09062Q52.128124 151.2 52.628124 151.90312Q53.128124 152.60625 53.846874 152.60625Q54.58125 152.60625 55.065624 151.90312Q55.565624 151.2 55.565624 149.09062Q55.565624 146.96562 55.065624 146.27812Q54.58125 145.575 53.83125 145.575Q53.1125 145.575 52.675 146.18437Q52.128124 146.96562 52.128124 149.09062ZM58.6125 153.325L58.6125 152.12187L59.815624 152.12187L59.815624 153.325Q59.815624 153.98125 59.58125 154.3875Q59.346874 154.80937 58.846874 155.02812L58.55 154.575Q58.878124 154.43437 59.034374 154.1375Q59.190624 153.85625 59.221874 153.325L58.6125 153.325ZM61.1125 145.85625L61.1125 144.84062L66.675 144.84062L66.675 145.66875Q65.8625 146.54375 65.05 147.99687Q64.25313 149.43437 63.815624 150.96562Q63.4875 152.04375 63.409374 153.325L62.315624 153.325Q62.33125 152.30937 62.70625 150.87187Q63.096874 149.43437 63.8 148.10625Q64.51875 146.77812 65.33125 145.85625L61.1125 145.85625ZM68.05 151.075L69.15938 150.98125Q69.28438 151.79375 69.72188 152.2Q70.175 152.60625 70.81563 152.60625Q71.56563 152.60625 72.09688 152.02812Q72.62813 151.45 72.62813 150.5125Q72.62813 149.60625 72.1125 149.09062Q71.6125 148.55937 70.78438 148.55937Q70.28438 148.55937 69.8625 148.79375Q69.45625 149.02812 69.22188 149.3875L68.2375 149.2625L69.06563 144.85625L73.34688 144.85625L73.34688 145.85625L69.90938 145.85625L69.45625 148.16875Q70.22188 147.62187 71.06563 147.62187Q72.19063 147.62187 72.95625 148.40312Q73.7375 149.18437 73.7375 150.41875Q73.7375 151.575 73.06563 152.43437Q72.2375 153.46562 70.81563 153.46562Q69.64375 153.46562 68.89375 152.80937Q68.15938 152.15312 68.05 151.075Z" fill-rule="nonzero"/><path fill="#000000" d="M72.01875 92.28333L70.97188 92.28333L70.97188 85.56458Q70.58125 85.92396 69.95625 86.29896Q69.34688 86.65833 68.8625 86.83021L68.8625 85.81458Q69.7375 85.39271 70.39375 84.81458Q71.06563 84.22083 71.34688 83.65833L72.01875 83.65833L72.01875 92.28333Z" fill-rule="nonzero"/><path fill="#000000" d="M317.32812 349.45L317.32812 348.66876Q316.73438 349.59064 315.59375 349.59064Q314.84375 349.59064 314.21875 349.1844Q313.59375 348.7625 313.25 348.02814Q312.90625 347.29376 312.90625 346.34064Q312.90625 345.41876 313.21875 344.65314Q313.53125 343.8875 314.15625 343.4969Q314.78125 343.09064 315.54688 343.09064Q316.10938 343.09064 316.54688 343.325Q316.98438 343.5594 317.26562 343.9344L317.26562 340.85626L318.3125 340.85626L318.3125 349.45L317.32812 349.45ZM314.0 346.34064Q314.0 347.54376 314.5 348.1375Q315.0 348.71564 315.6875 348.71564Q316.375 348.71564 316.85938 348.15314Q317.34375 347.59064 317.34375 346.4344Q317.34375 345.15314 316.84375 344.5594Q316.35938 343.96564 315.64062 343.96564Q314.9375 343.96564 314.46875 344.54376Q314.0 345.10626 314.0 346.34064ZM324.54688 347.45L325.64062 347.575Q325.39062 348.52814 324.6875 349.0594Q323.98438 349.59064 322.90625 349.59064Q321.54688 349.59064 320.73438 348.7469Q319.9375 347.90314 319.9375 346.3875Q319.9375 344.825 320.75 343.96564Q321.5625 343.09064 322.84375 343.09064Q324.09375 343.09064 324.875 343.9344Q325.67188 344.77814 325.67188 346.325Q325.67188 346.41876 325.67188 346.60626L321.03125 346.60626Q321.09375 347.6375 321.60938 348.1844Q322.125 348.71564 322.90625 348.71564Q323.48438 348.71564 323.89062 348.41876Q324.3125 348.10626 324.54688 347.45ZM321.09375 345.7469L324.5625 345.7469Q324.5 344.95 324.17188 344.5594Q323.65625 343.95 322.85938 343.95Q322.125 343.95 321.625 344.4344Q321.14062 344.91876 321.09375 345.7469ZM327.54688 349.45L327.54688 344.04376L326.60938 344.04376L326.60938 343.23126L327.54688 343.23126L327.54688 342.5594Q327.54688 341.9344 327.65625 341.6375Q327.8125 341.21564 328.1875 340.96564Q328.57812 340.71564 329.26562 340.71564Q329.71875 340.71564 330.25 340.825L330.09375 341.73126Q329.76562 341.6844 329.46875 341.6844Q328.98438 341.6844 328.78125 341.8875Q328.59375 342.09064 328.59375 342.65314L328.59375 343.23126L329.8125 343.23126L329.8125 344.04376L328.59375 344.04376L328.59375 349.45L327.54688 349.45ZM334.35938 348.6844Q333.76562 349.1844 333.21875 349.3875Q332.6875 349.59064 332.0625 349.59064Q331.03125 349.59064 330.48438 349.09064Q329.9375 348.59064 329.9375 347.8094Q329.9375 347.35626 330.14062 346.98126Q330.34375 346.59064 330.6875 346.3719Q331.03125 346.1375 331.45312 346.02814Q331.75 345.9344 332.39062 345.85626Q333.65625 345.71564 334.26562 345.4969Q334.26562 345.27814 334.26562 345.23126Q334.26562 344.575 333.96875 344.3094Q333.5625 343.96564 332.76562 343.96564Q332.03125 343.96564 331.67188 344.23126Q331.3125 344.48126 331.14062 345.1375L330.10938 344.9969Q330.25 344.34064 330.57812 343.9344Q330.90625 343.52814 331.51562 343.3094Q332.125 343.09064 332.92188 343.09064Q333.71875 343.09064 334.21875 343.27814Q334.71875 343.46564 334.95312 343.7469Q335.1875 344.02814 335.28125 344.46564Q335.32812 344.73126 335.32812 345.4344L335.32812 346.84064Q335.32812 348.3094 335.39062 348.7Q335.46875 349.09064 335.67188 349.45L334.5625 349.45Q334.40625 349.1219 334.35938 348.6844ZM334.26562 346.325Q333.6875 346.5594 332.54688 346.73126Q331.89062 346.825 331.625 346.95Q331.35938 347.0594 331.20312 347.27814Q331.0625 347.4969 331.0625 347.77814Q331.0625 348.2 331.375 348.48126Q331.70312 348.7625 332.3125 348.7625Q332.92188 348.7625 333.39062 348.4969Q333.875 348.23126 334.09375 347.7625Q334.26562 347.40314 334.26562 346.71564L334.26562 346.325ZM341.375 349.45L341.375 348.52814Q340.64062 349.59064 339.39062 349.59064Q338.84375 349.59064 338.35938 349.3875Q337.89062 349.16876 337.65625 348.85626Q337.42188 348.52814 337.32812 348.0594Q337.26562 347.7625 337.26562 347.075L337.26562 343.23126L338.32812 343.23126L338.32812 346.6844Q338.32812 347.4969 338.39062 347.79376Q338.48438 348.2 338.79688 348.45Q339.125 348.6844 339.60938 348.6844Q340.07812 348.6844 340.48438 348.45Q340.90625 348.2 341.07812 347.77814Q341.26562 347.35626 341.26562 346.5594L341.26562 343.23126L342.3125 343.23126L342.3125 349.45L341.375 349.45ZM344.26562 349.45L344.26562 340.85626L345.32812 340.85626L345.32812 349.45L344.26562 349.45ZM349.59375 348.5125L349.75 349.4344Q349.29688 349.52814 348.95312 349.52814Q348.375 349.52814 348.0625 349.35626Q347.75 349.16876 347.60938 348.8719Q347.48438 348.575 347.48438 347.6219L347.48438 344.04376L346.71875 344.04376L346.71875 343.23126L347.48438 343.23126L347.48438 341.6844L348.53125 341.0594L348.53125 343.23126L349.59375 343.23126L349.59375 344.04376L348.53125 344.04376L348.53125 347.6844Q348.53125 348.1375 348.57812 348.2625Q348.64062 348.3875 348.76562 348.46564Q348.89062 348.54376 349.125 348.54376Q349.3125 348.54376 349.59375 348.5125Z" fill-rule="nonzero"/><path fill="#4285f4" d="M27.0 56.916668C27.0 56.364384 27.447716 55.916668 28.0 55.916668L38.0 55.916668C38.552284 55.916668 39.0 56.364384 39.0 56.916668L39.0 66.916664C39.0 67.46895 38.552284 67.916664 38.0 67.916664L28.0 67.916664C27.447716 67.916664 27.0 67.46895 27.0 66.916664Z" fill-rule="nonzero"/><path fill="#1a1a1a" d="M47.578125 61.729164Q47.578125 59.58854 48.71875 58.385414Q49.875 57.166664 51.6875 57.166664Q52.890625 57.166664 53.84375 57.74479Q54.796875 58.30729 55.296875 59.322914Q55.796875 60.33854 55.796875 61.635414Q55.796875 62.93229 55.265625 63.96354Q54.734375 64.99479 53.765625 65.52604Q52.8125 66.05729 51.6875 66.05729Q50.46875 66.05729 49.515625 65.479164Q48.5625 64.885414 48.0625 63.885414Q47.578125 62.86979 47.578125 61.729164ZM48.75 61.74479Q48.75 63.30729 49.578125 64.197914Q50.421875 65.08854 51.6875 65.08854Q52.96875 65.08854 53.796875 64.197914Q54.625 63.291664 54.625 61.61979Q54.625 60.572914 54.265625 59.791664Q53.921875 59.010414 53.234375 58.58854Q52.546875 58.15104 51.703125 58.15104Q50.5 58.15104 49.625 58.979164Q48.75 59.80729 48.75 61.74479ZM56.796875 68.30729L56.796875 59.697914L57.75 59.697914L57.75 60.49479Q58.09375 60.02604 58.515625 59.791664Q58.953125 59.55729 59.5625 59.55729Q60.359375 59.55729 60.96875 59.96354Q61.578125 60.36979 61.875 61.11979Q62.1875 61.86979 62.1875 62.760414Q62.1875 63.71354 61.84375 64.479164Q61.515625 65.24479 60.859375 65.65104Q60.203125 66.05729 59.484375 66.05729Q58.953125 66.05729 58.53125 65.83854Q58.109375 65.604164 57.84375 65.27604L57.84375 68.30729L56.796875 68.30729ZM57.75 62.83854Q57.75 64.041664 58.234375 64.61979Q58.71875 65.18229 59.40625 65.18229Q60.109375 65.18229 60.609375 64.58854Q61.109375 63.99479 61.109375 62.74479Q61.109375 61.55729 60.625 60.979164Q60.140625 60.385414 59.453125 60.385414Q58.78125 60.385414 58.265625 61.010414Q57.75 61.635414 57.75 62.83854ZM68.046875 63.916664L69.140625 64.041664Q68.890625 64.99479 68.1875 65.52604Q67.484375 66.05729 66.40625 66.05729Q65.046875 66.05729 64.234375 65.21354Q63.4375 64.36979 63.4375 62.854164Q63.4375 61.291664 64.25 60.43229Q65.0625 59.55729 66.34375 59.55729Q67.59375 59.55729 68.375 60.40104Q69.171875 61.24479 69.171875 62.791664Q69.171875 62.885414 69.171875 63.072914L64.53125 63.072914Q64.59375 64.104164 65.109375 64.65104Q65.625 65.18229 66.40625 65.18229Q66.984375 65.18229 67.390625 64.885414Q67.8125 64.572914 68.046875 63.916664ZM64.59375 62.21354L68.0625 62.21354Q68.0 61.416664 67.671875 61.02604Q67.15625 60.416664 66.359375 60.416664Q65.625 60.416664 65.125 60.90104Q64.640625 61.385414 64.59375 62.21354ZM70.796875 65.916664L70.796875 59.697914L71.734375 59.697914L71.734375 60.572914Q72.421875 59.55729 73.71875 59.55729Q74.28125 59.55729 74.75 59.760414Q75.234375 59.96354 75.46875 60.291664Q75.703125 60.61979 75.796875 61.05729Q75.84375 61.354164 75.84375 62.08854L75.84375 65.916664L74.796875 65.916664L74.796875 62.135414Q74.796875 61.479164 74.671875 61.166664Q74.546875 60.854164 74.234375 60.666664Q73.921875 60.46354 73.5 60.46354Q72.828125 60.46354 72.328125 60.90104Q71.84375 61.322914 71.84375 62.510414L71.84375 65.916664L70.796875 65.916664ZM77.890625 65.916664L77.890625 57.322914L79.609375 57.322914L81.640625 63.40104Q81.921875 64.260414 82.046875 64.68229Q82.1875 64.21354 82.5 63.30729L84.5625 57.322914L86.09375 57.322914L86.09375 65.916664L85.0 65.916664L85.0 58.729164L82.5 65.916664L81.46875 65.916664L78.984375 58.604164L78.984375 65.916664L77.890625 65.916664ZM87.921875 65.916664L87.921875 57.322914L91.171875 57.322914Q92.015625 57.322914 92.46875 57.40104Q93.109375 57.510414 93.53125 57.80729Q93.96875 58.104164 94.21875 58.635414Q94.484375 59.166664 94.484375 59.80729Q94.484375 60.90104 93.78125 61.666664Q93.09375 62.416664 91.265625 62.416664L89.0625 62.416664L89.0625 65.916664L87.921875 65.916664ZM89.0625 61.416664L91.28125 61.416664Q92.390625 61.416664 92.84375 61.010414Q93.3125 60.58854 93.3125 59.83854Q93.3125 59.30729 93.03125 58.93229Q92.765625 58.541664 92.328125 58.416664Q92.03125 58.33854 91.265625 58.33854L89.0625 58.33854L89.0625 61.416664ZM102.46875 65.916664L101.421875 65.916664L101.421875 59.197914Q101.03125 59.55729 100.40625 59.93229Q99.796875 60.291664 99.3125 60.46354L99.3125 59.447914Q100.1875 59.02604 100.84375 58.447914Q101.515625 57.854164 101.796875 57.291664L102.46875 57.291664L102.46875 65.916664ZM111.109375 65.916664L111.109375 58.33854L108.28125 58.33854L108.28125 57.322914L115.09375 57.322914L115.09375 58.33854L112.25 58.33854L112.25 65.916664L111.109375 65.916664ZM115.796875 65.916664L115.796875 57.322914L116.84375 57.322914L116.84375 60.40104Q117.578125 59.55729 118.703125 59.55729Q119.40625 59.55729 119.90625 59.83854Q120.421875 60.104164 120.640625 60.58854Q120.859375 61.05729 120.859375 61.979164L120.859375 65.916664L119.8125 65.916664L119.8125 61.979164Q119.8125 61.18229 119.46875 60.822914Q119.125 60.46354 118.5 60.46354Q118.03125 60.46354 117.609375 60.71354Q117.203125 60.947914 117.015625 61.36979Q116.84375 61.77604 116.84375 62.510414L116.84375 65.916664L115.796875 65.916664ZM122.78125 65.916664L122.78125 59.697914L123.734375 59.697914L123.734375 60.635414Q124.09375 59.979164 124.390625 59.77604Q124.703125 59.55729 125.078125 59.55729Q125.609375 59.55729 126.15625 59.885414L125.796875 60.86979Q125.40625 60.635414 125.03125 60.635414Q124.671875 60.635414 124.390625 60.854164Q124.125 61.05729 124.015625 61.43229Q123.828125 61.99479 123.828125 62.65104L123.828125 65.916664L122.78125 65.916664ZM131.04688 63.916664L132.14062 64.041664Q131.89062 64.99479 131.1875 65.52604Q130.48438 66.05729 129.40625 66.05729Q128.04688 66.05729 127.234375 65.21354Q126.4375 64.36979 126.4375 62.854164Q126.4375 61.291664 127.25 60.43229Q128.0625 59.55729 129.34375 59.55729Q130.59375 59.55729 131.375 60.40104Q132.17188 61.24479 132.17188 62.791664Q132.17188 62.885414 132.17188 63.072914L127.53125 63.072914Q127.59375 64.104164 128.10938 64.65104Q128.625 65.18229 129.40625 65.18229Q129.98438 65.18229 130.39062 64.885414Q130.8125 64.572914 131.04688 63.916664ZM127.59375 62.21354L131.0625 62.21354Q131.0 61.416664 130.67188 61.02604Q130.15625 60.416664 129.35938 60.416664Q128.625 60.416664 128.125 60.90104Q127.640625 61.385414 127.59375 62.21354ZM137.85938 65.15104Q137.26562 65.65104 136.71875 65.854164Q136.1875 66.05729 135.5625 66.05729Q134.53125 66.05729 133.98438 65.55729Q133.4375 65.05729 133.4375 64.27604Q133.4375 63.822914 133.64062 63.447914Q133.84375 63.05729 134.1875 62.83854Q134.53125 62.604164 134.95312 62.49479Q135.25 62.40104 135.89062 62.322914Q137.15625 62.18229 137.76562 61.96354Q137.76562 61.74479 137.76562 61.697914Q137.76562 61.041664 137.46875 60.77604Q137.0625 60.43229 136.26562 60.43229Q135.53125 60.43229 135.17188 60.697914Q134.8125 60.947914 134.64062 61.604164L133.60938 61.46354Q133.75 60.80729 134.07812 60.40104Q134.40625 59.99479 135.01562 59.77604Q135.625 59.55729 136.42188 59.55729Q137.21875 59.55729 137.71875 59.74479Q138.21875 59.93229 138.45312 60.21354Q138.6875 60.49479 138.78125 60.93229Q138.82812 61.197914 138.82812 61.90104L138.82812 63.30729Q138.82812 64.77604 138.89062 65.166664Q138.96875 65.55729 139.17188 65.916664L138.0625 65.916664Q137.90625 65.58854 137.85938 65.15104ZM137.76562 62.791664Q137.1875 63.02604 136.04688 63.197914Q135.39062 63.291664 135.125 63.416664Q134.85938 63.52604 134.70312 63.74479Q134.5625 63.96354 134.5625 64.24479Q134.5625 64.666664 134.875 64.947914Q135.20312 65.229164 135.8125 65.229164Q136.42188 65.229164 136.89062 64.96354Q137.375 64.697914 137.59375 64.229164Q137.76562 63.86979 137.76562 63.18229L137.76562 62.791664ZM144.82812 65.916664L144.82812 65.135414Q144.23438 66.05729 143.09375 66.05729Q142.34375 66.05729 141.71875 65.65104Q141.09375 65.229164 140.75 64.49479Q140.40625 63.760414 140.40625 62.80729Q140.40625 61.885414 140.71875 61.11979Q141.03125 60.354164 141.65625 59.96354Q142.28125 59.55729 143.04688 59.55729Q143.60938 59.55729 144.04688 59.791664Q144.48438 60.02604 144.76562 60.40104L144.76562 57.322914L145.8125 57.322914L145.8125 65.916664L144.82812 65.916664ZM141.5 62.80729Q141.5 64.010414 142.0 64.604164Q142.5 65.18229 143.1875 65.18229Q143.875 65.18229 144.35938 64.61979Q144.84375 64.05729 144.84375 62.90104Q144.84375 61.61979 144.34375 61.02604Q143.85938 60.43229 143.14062 60.43229Q142.4375 60.43229 141.96875 61.010414Q141.5 61.572914 141.5 62.80729Z" fill-rule="nonzero"/><path fill="#ea4335" d="M163.0 56.916668C163.0 56.364384 163.44771 55.916668 164.0 55.916668L174.0 55.916668C174.55229 55.916668 175.0 56.364384 175.0 56.916668L175.0 66.916664C175.0 67.46895 174.55229 67.916664 174.0 67.916664L164.0 67.916664C163.44771 67.916664 163.0 67.46895 163.0 66.916664Z" fill-rule="nonzero"/><path fill="#1a1a1a" d="M183.57812 61.729164Q183.57812 59.58854 184.71875 58.385414Q185.875 57.166664 187.6875 57.166664Q188.89062 57.166664 189.84375 57.74479Q190.79688 58.30729 191.29688 59.322914Q191.79688 60.33854 191.79688 61.635414Q191.79688 62.93229 191.26562 63.96354Q190.73438 64.99479 189.76562 65.52604Q188.8125 66.05729 187.6875 66.05729Q186.46875 66.05729 185.51562 65.479164Q184.5625 64.885414 184.0625 63.885414Q183.57812 62.86979 183.57812 61.729164ZM184.75 61.74479Q184.75 63.30729 185.57812 64.197914Q186.42188 65.08854 187.6875 65.08854Q188.96875 65.08854 189.79688 64.197914Q190.625 63.291664 190.625 61.61979Q190.625 60.572914 190.26562 59.791664Q189.92188 59.010414 189.23438 58.58854Q188.54688 58.15104 187.70312 58.15104Q186.5 58.15104 185.625 58.979164Q184.75 59.80729 184.75 61.74479ZM192.79688 68.30729L192.79688 59.697914L193.75 59.697914L193.75 60.49479Q194.09375 60.02604 194.51562 59.791664Q194.95312 59.55729 195.5625 59.55729Q196.35938 59.55729 196.96875 59.96354Q197.57812 60.36979 197.875 61.11979Q198.1875 61.86979 198.1875 62.760414Q198.1875 63.71354 197.84375 64.479164Q197.51562 65.24479 196.85938 65.65104Q196.20312 66.05729 195.48438 66.05729Q194.95312 66.05729 194.53125 65.83854Q194.10938 65.604164 193.84375 65.27604L193.84375 68.30729L192.79688 68.30729ZM193.75 62.83854Q193.75 64.041664 194.23438 64.61979Q194.71875 65.18229 195.40625 65.18229Q196.10938 65.18229 196.60938 64.58854Q197.10938 63.99479 197.10938 62.74479Q197.10938 61.55729 196.625 60.979164Q196.14062 60.385414 195.45312 60.385414Q194.78125 60.385414 194.26562 61.010414Q193.75 61.635414 193.75 62.83854ZM204.04688 63.916664L205.14062 64.041664Q204.89062 64.99479 204.1875 65.52604Q203.48438 66.05729 202.40625 66.05729Q201.04688 66.05729 200.23438 65.21354Q199.4375 64.36979 199.4375 62.854164Q199.4375 61.291664 200.25 60.43229Q201.0625 59.55729 202.34375 59.55729Q203.59375 59.55729 204.375 60.40104Q205.17188 61.24479 205.17188 62.791664Q205.17188 62.885414 205.17188 63.072914L200.53125 63.072914Q200.59375 64.104164 201.10938 64.65104Q201.625 65.18229 202.40625 65.18229Q202.98438 65.18229 203.39062 64.885414Q203.8125 64.572914 204.04688 63.916664ZM200.59375 62.21354L204.0625 62.21354Q204.0 61.416664 203.67188 61.02604Q203.15625 60.416664 202.35938 60.416664Q201.625 60.416664 201.125 60.90104Q200.64062 61.385414 200.59375 62.21354ZM206.79688 65.916664L206.79688 59.697914L207.73438 59.697914L207.73438 60.572914Q208.42188 59.55729 209.71875 59.55729Q210.28125 59.55729 210.75 59.760414Q211.23438 59.96354 211.46875 60.291664Q211.70312 60.61979 211.79688 61.05729Q211.84375 61.354164 211.84375 62.08854L211.84375 65.916664L210.79688 65.916664L210.79688 62.135414Q210.79688 61.479164 210.67188 61.166664Q210.54688 60.854164 210.23438 60.666664Q209.92188 60.46354 209.5 60.46354Q208.82812 60.46354 208.32812 60.90104Q207.84375 61.322914 207.84375 62.510414L207.84375 65.916664L206.79688 65.916664ZM213.89062 65.916664L213.89062 57.322914L215.60938 57.322914L217.64062 63.40104Q217.92188 64.260414 218.04688 64.68229Q218.1875 64.21354 218.5 63.30729L220.5625 57.322914L222.09375 57.322914L222.09375 65.916664L221.0 65.916664L221.0 58.729164L218.5 65.916664L217.46875 65.916664L214.98438 58.604164L214.98438 65.916664L213.89062 65.916664ZM223.92188 65.916664L223.92188 57.322914L227.17188 57.322914Q228.01562 57.322914 228.46875 57.40104Q229.10938 57.510414 229.53125 57.80729Q229.96875 58.104164 230.21875 58.635414Q230.48438 59.166664 230.48438 59.80729Q230.48438 60.90104 229.78125 61.666664Q229.09375 62.416664 227.26562 62.416664L225.0625 62.416664L225.0625 65.916664L223.92188 65.916664ZM225.0625 61.416664L227.28125 61.416664Q228.39062 61.416664 228.84375 61.010414Q229.3125 60.58854 229.3125 59.83854Q229.3125 59.30729 229.03125 58.93229Q228.76562 58.541664 228.32812 58.416664Q228.03125 58.33854 227.26562 58.33854L225.0625 58.33854L225.0625 61.416664ZM240.04688 64.90104L240.04688 65.916664L234.35938 65.916664Q234.35938 65.541664 234.48438 65.18229Q234.70312 64.604164 235.17188 64.041664Q235.65625 63.479164 236.5625 62.74479Q237.96875 61.58854 238.45312 60.916664Q238.95312 60.24479 238.95312 59.65104Q238.95312 59.02604 238.5 58.604164Q238.04688 58.166664 237.32812 58.166664Q236.5625 58.166664 236.10938 58.61979Q235.65625 59.072914 235.64062 59.885414L234.5625 59.77604Q234.67188 58.55729 235.39062 57.93229Q236.125 57.291664 237.35938 57.291664Q238.59375 57.291664 239.3125 57.979164Q240.03125 58.666664 240.03125 59.68229Q240.03125 60.197914 239.8125 60.697914Q239.60938 61.18229 239.10938 61.74479Q238.625 62.291664 237.5 63.24479Q236.54688 64.041664 236.26562 64.33854Q236.0 64.61979 235.82812 64.90104L240.04688 64.90104ZM247.10938 65.916664L247.10938 58.33854L244.28125 58.33854L244.28125 57.322914L251.09375 57.322914L251.09375 58.33854L248.25 58.33854L248.25 65.916664L247.10938 65.916664ZM251.79688 65.916664L251.79688 57.322914L252.84375 57.322914L252.84375 60.40104Q253.57812 59.55729 254.70312 59.55729Q255.40625 59.55729 255.90625 59.83854Q256.42188 60.104164 256.64062 60.58854Q256.85938 61.05729 256.85938 61.979164L256.85938 65.916664L255.8125 65.916664L255.8125 61.979164Q255.8125 61.18229 255.46875 60.822914Q255.125 60.46354 254.5 60.46354Q254.03125 60.46354 253.60938 60.71354Q253.20312 60.947914 253.01562 61.36979Q252.84375 61.77604 252.84375 62.510414L252.84375 65.916664L251.79688 65.916664ZM258.78125 65.916664L258.78125 59.697914L259.73438 59.697914L259.73438 60.635414Q260.09375 59.979164 260.39062 59.77604Q260.70312 59.55729 261.07812 59.55729Q261.60938 59.55729 262.15625 59.885414L261.79688 60.86979Q261.40625 60.635414 261.03125 60.635414Q260.67188 60.635414 260.39062 60.854164Q260.125 61.05729 260.01562 61.43229Q259.82812 61.99479 259.82812 62.65104L259.82812 65.916664L258.78125 65.916664ZM267.04688 63.916664L268.14062 64.041664Q267.89062 64.99479 267.1875 65.52604Q266.48438 66.05729 265.40625 66.05729Q264.04688 66.05729 263.23438 65.21354Q262.4375 64.36979 262.4375 62.854164Q262.4375 61.291664 263.25 60.43229Q264.0625 59.55729 265.34375 59.55729Q266.59375 59.55729 267.375 60.40104Q268.17188 61.24479 268.17188 62.791664Q268.17188 62.885414 268.17188 63.072914L263.53125 63.072914Q263.59375 64.104164 264.10938 64.65104Q264.625 65.18229 265.40625 65.18229Q265.98438 65.18229 266.39062 64.885414Q266.8125 64.572914 267.04688 63.916664ZM263.59375 62.21354L267.0625 62.21354Q267.0 61.416664 266.67188 61.02604Q266.15625 60.416664 265.35938 60.416664Q264.625 60.416664 264.125 60.90104Q263.64062 61.385414 263.59375 62.21354ZM273.85938 65.15104Q273.26562 65.65104 272.71875 65.854164Q272.1875 66.05729 271.5625 66.05729Q270.53125 66.05729 269.98438 65.55729Q269.4375 65.05729 269.4375 64.27604Q269.4375 63.822914 269.64062 63.447914Q269.84375 63.05729 270.1875 62.83854Q270.53125 62.604164 270.95312 62.49479Q271.25 62.40104 271.89062 62.322914Q273.15625 62.18229 273.76562 61.96354Q273.76562 61.74479 273.76562 61.697914Q273.76562 61.041664 273.46875 60.77604Q273.0625 60.43229 272.26562 60.43229Q271.53125 60.43229 271.17188 60.697914Q270.8125 60.947914 270.64062 61.604164L269.60938 61.46354Q269.75 60.80729 270.07812 60.40104Q270.40625 59.99479 271.01562 59.77604Q271.625 59.55729 272.42188 59.55729Q273.21875 59.55729 273.71875 59.74479Q274.21875 59.93229 274.45312 60.21354Q274.6875 60.49479 274.78125 60.93229Q274.82812 61.197914 274.82812 61.90104L274.82812 63.30729Q274.82812 64.77604 274.89062 65.166664Q274.96875 65.55729 275.17188 65.916664L274.0625 65.916664Q273.90625 65.58854 273.85938 65.15104ZM273.76562 62.791664Q273.1875 63.02604 272.04688 63.197914Q271.39062 63.291664 271.125 63.416664Q270.85938 63.52604 270.70312 63.74479Q270.5625 63.96354 270.5625 64.24479Q270.5625 64.666664 270.875 64.947914Q271.20312 65.229164 271.8125 65.229164Q272.42188 65.229164 272.89062 64.96354Q273.375 64.697914 273.59375 64.229164Q273.76562 63.86979 273.76562 63.18229L273.76562 62.791664ZM280.82812 65.916664L280.82812 65.135414Q280.23438 66.05729 279.09375 66.05729Q278.34375 66.05729 277.71875 65.65104Q277.09375 65.229164 276.75 64.49479Q276.40625 63.760414 276.40625 62.80729Q276.40625 61.885414 276.71875 61.11979Q277.03125 60.354164 277.65625 59.96354Q278.28125 59.55729 279.04688 59.55729Q279.60938 59.55729 280.04688 59.791664Q280.48438 60.02604 280.76562 60.40104L280.76562 57.322914L281.8125 57.322914L281.8125 65.916664L280.82812 65.916664ZM277.5 62.80729Q277.5 64.010414 278.0 64.604164Q278.5 65.18229 279.1875 65.18229Q279.875 65.18229 280.35938 64.61979Q280.84375 64.05729 280.84375 62.90104Q280.84375 61.61979 280.34375 61.02604Q279.85938 60.43229 279.14062 60.43229Q278.4375 60.43229 277.96875 61.010414Q277.5 61.572914 277.5 62.80729ZM283.375 64.05729L284.40625 63.90104Q284.5 64.52604 284.89062 64.854164Q285.29688 65.18229 286.03125 65.18229Q286.75 65.18229 287.09375 64.90104Q287.45312 64.604164 287.45312 64.197914Q287.45312 63.83854 287.14062 63.635414Q286.92188 63.49479 286.0625 63.27604Q284.90625 62.979164 284.45312 62.77604Q284.01562 62.55729 283.78125 62.18229Q283.54688 61.80729 283.54688 61.33854Q283.54688 60.93229 283.73438 60.572914Q283.92188 60.21354 284.25 59.979164Q284.5 59.80729 284.92188 59.68229Q285.34375 59.55729 285.84375 59.55729Q286.5625 59.55729 287.10938 59.77604Q287.67188 59.979164 287.9375 60.33854Q288.20312 60.697914 288.29688 61.291664L287.26562 61.43229Q287.20312 60.96354 286.85938 60.697914Q286.53125 60.416664 285.90625 60.416664Q285.1875 60.416664 284.875 60.666664Q284.5625 60.90104 284.5625 61.229164Q284.5625 61.43229 284.6875 61.58854Q284.82812 61.760414 285.09375 61.86979Q285.25 61.93229 286.03125 62.135414Q287.15625 62.447914 287.59375 62.635414Q288.03125 62.822914 288.28125 63.18229Q288.53125 63.541664 288.53125 64.08854Q288.53125 64.61979 288.21875 65.08854Q287.92188 65.541664 287.34375 65.80729Q286.76562 66.05729 286.03125 66.05729Q284.8125 66.05729 284.17188 65.55729Q283.54688 65.041664 283.375 64.05729Z" fill-rule="nonzero"/><path fill="#fbbc04" d="M305.0 56.916668C305.0 56.364384 305.44772 55.916668 306.0 55.916668L316.0 55.916668C316.55228 55.916668 317.0 56.364384 317.0 56.916668L317.0 66.916664C317.0 67.46895 316.55228 67.916664 316.0 67.916664L306.0 67.916664C305.44772 67.916664 305.0 67.46895 305.0 66.916664Z" fill-rule="nonzero"/><path fill="#1a1a1a" d="M325.57812 61.729164Q325.57812 59.58854 326.71875 58.385414Q327.875 57.166664 329.6875 57.166664Q330.89062 57.166664 331.84375 57.74479Q332.79688 58.30729 333.29688 59.322914Q333.79688 60.33854 333.79688 61.635414Q333.79688 62.93229 333.26562 63.96354Q332.73438 64.99479 331.76562 65.52604Q330.8125 66.05729 329.6875 66.05729Q328.46875 66.05729 327.51562 65.479164Q326.5625 64.885414 326.0625 63.885414Q325.57812 62.86979 325.57812 61.729164ZM326.75 61.74479Q326.75 63.30729 327.57812 64.197914Q328.42188 65.08854 329.6875 65.08854Q330.96875 65.08854 331.79688 64.197914Q332.625 63.291664 332.625 61.61979Q332.625 60.572914 332.26562 59.791664Q331.92188 59.010414 331.23438 58.58854Q330.54688 58.15104 329.70312 58.15104Q328.5 58.15104 327.625 58.979164Q326.75 59.80729 326.75 61.74479ZM334.79688 68.30729L334.79688 59.697914L335.75 59.697914L335.75 60.49479Q336.09375 60.02604 336.51562 59.791664Q336.95312 59.55729 337.5625 59.55729Q338.35938 59.55729 338.96875 59.96354Q339.57812 60.36979 339.875 61.11979Q340.1875 61.86979 340.1875 62.760414Q340.1875 63.71354 339.84375 64.479164Q339.51562 65.24479 338.85938 65.65104Q338.20312 66.05729 337.48438 66.05729Q336.95312 66.05729 336.53125 65.83854Q336.10938 65.604164 335.84375 65.27604L335.84375 68.30729L334.79688 68.30729ZM335.75 62.83854Q335.75 64.041664 336.23438 64.61979Q336.71875 65.18229 337.40625 65.18229Q338.10938 65.18229 338.60938 64.58854Q339.10938 63.99479 339.10938 62.74479Q339.10938 61.55729 338.625 60.979164Q338.14062 60.385414 337.45312 60.385414Q336.78125 60.385414 336.26562 61.010414Q335.75 61.635414 335.75 62.83854ZM346.04688 63.916664L347.14062 64.041664Q346.89062 64.99479 346.1875 65.52604Q345.48438 66.05729 344.40625 66.05729Q343.04688 66.05729 342.23438 65.21354Q341.4375 64.36979 341.4375 62.854164Q341.4375 61.291664 342.25 60.43229Q343.0625 59.55729 344.34375 59.55729Q345.59375 59.55729 346.375 60.40104Q347.17188 61.24479 347.17188 62.791664Q347.17188 62.885414 347.17188 63.072914L342.53125 63.072914Q342.59375 64.104164 343.10938 64.65104Q343.625 65.18229 344.40625 65.18229Q344.98438 65.18229 345.39062 64.885414Q345.8125 64.572914 346.04688 63.916664ZM342.59375 62.21354L346.0625 62.21354Q346.0 61.416664 345.67188 61.02604Q345.15625 60.416664 344.35938 60.416664Q343.625 60.416664 343.125 60.90104Q342.64062 61.385414 342.59375 62.21354ZM348.79688 65.916664L348.79688 59.697914L349.73438 59.697914L349.73438 60.572914Q350.42188 59.55729 351.71875 59.55729Q352.28125 59.55729 352.75 59.760414Q353.23438 59.96354 353.46875 60.291664Q353.70312 60.61979 353.79688 61.05729Q353.84375 61.354164 353.84375 62.08854L353.84375 65.916664L352.79688 65.916664L352.79688 62.135414Q352.79688 61.479164 352.67188 61.166664Q352.54688 60.854164 352.23438 60.666664Q351.92188 60.46354 351.5 60.46354Q350.82812 60.46354 350.32812 60.90104Q349.84375 61.322914 349.84375 62.510414L349.84375 65.916664L348.79688 65.916664ZM355.89062 65.916664L355.89062 57.322914L357.60938 57.322914L359.64062 63.40104Q359.92188 64.260414 360.04688 64.68229Q360.1875 64.21354 360.5 63.30729L362.5625 57.322914L364.09375 57.322914L364.09375 65.916664L363.0 65.916664L363.0 58.729164L360.5 65.916664L359.46875 65.916664L356.98438 58.604164L356.98438 65.916664L355.89062 65.916664ZM365.92188 65.916664L365.92188 57.322914L369.17188 57.322914Q370.01562 57.322914 370.46875 57.40104Q371.10938 57.510414 371.53125 57.80729Q371.96875 58.104164 372.21875 58.635414Q372.48438 59.166664 372.48438 59.80729Q372.48438 60.90104 371.78125 61.666664Q371.09375 62.416664 369.26562 62.416664L367.0625 62.416664L367.0625 65.916664L365.92188 65.916664ZM367.0625 61.416664L369.28125 61.416664Q370.39062 61.416664 370.84375 61.010414Q371.3125 60.58854 371.3125 59.83854Q371.3125 59.30729 371.03125 58.93229Q370.76562 58.541664 370.32812 58.416664Q370.03125 58.33854 369.26562 58.33854L367.0625 58.33854L367.0625 61.416664ZM379.875 65.916664L379.875 63.854164L376.15625 63.854164L376.15625 62.885414L380.07812 57.322914L380.9375 57.322914L380.9375 62.885414L382.09375 62.885414L382.09375 63.854164L380.9375 63.854164L380.9375 65.916664L379.875 65.916664ZM379.875 62.885414L379.875 59.02604L377.1875 62.885414L379.875 62.885414ZM389.10938 65.916664L389.10938 58.33854L386.28125 58.33854L386.28125 57.322914L393.09375 57.322914L393.09375 58.33854L390.25 58.33854L390.25 65.916664L389.10938 65.916664ZM393.79688 65.916664L393.79688 57.322914L394.84375 57.322914L394.84375 60.40104Q395.57812 59.55729 396.70312 59.55729Q397.40625 59.55729 397.90625 59.83854Q398.42188 60.104164 398.64062 60.58854Q398.85938 61.05729 398.85938 61.979164L398.85938 65.916664L397.8125 65.916664L397.8125 61.979164Q397.8125 61.18229 397.46875 60.822914Q397.125 60.46354 396.5 60.46354Q396.03125 60.46354 395.60938 60.71354Q395.20312 60.947914 395.01562 61.36979Q394.84375 61.77604 394.84375 62.510414L394.84375 65.916664L393.79688 65.916664ZM400.78125 65.916664L400.78125 59.697914L401.73438 59.697914L401.73438 60.635414Q402.09375 59.979164 402.39062 59.77604Q402.70312 59.55729 403.07812 59.55729Q403.60938 59.55729 404.15625 59.885414L403.79688 60.86979Q403.40625 60.635414 403.03125 60.635414Q402.67188 60.635414 402.39062 60.854164Q402.125 61.05729 402.01562 61.43229Q401.82812 61.99479 401.82812 62.65104L401.82812 65.916664L400.78125 65.916664ZM409.04688 63.916664L410.14062 64.041664Q409.89062 64.99479 409.1875 65.52604Q408.48438 66.05729 407.40625 66.05729Q406.04688 66.05729 405.23438 65.21354Q404.4375 64.36979 404.4375 62.854164Q404.4375 61.291664 405.25 60.43229Q406.0625 59.55729 407.34375 59.55729Q408.59375 59.55729 409.375 60.40104Q410.17188 61.24479 410.17188 62.791664Q410.17188 62.885414 410.17188 63.072914L405.53125 63.072914Q405.59375 64.104164 406.10938 64.65104Q406.625 65.18229 407.40625 65.18229Q407.98438 65.18229 408.39062 64.885414Q408.8125 64.572914 409.04688 63.916664ZM405.59375 62.21354L409.0625 62.21354Q409.0 61.416664 408.67188 61.02604Q408.15625 60.416664 407.35938 60.416664Q406.625 60.416664 406.125 60.90104Q405.64062 61.385414 405.59375 62.21354ZM415.85938 65.15104Q415.26562 65.65104 414.71875 65.854164Q414.1875 66.05729 413.5625 66.05729Q412.53125 66.05729 411.98438 65.55729Q411.4375 65.05729 411.4375 64.27604Q411.4375 63.822914 411.64062 63.447914Q411.84375 63.05729 412.1875 62.83854Q412.53125 62.604164 412.95312 62.49479Q413.25 62.40104 413.89062 62.322914Q415.15625 62.18229 415.76562 61.96354Q415.76562 61.74479 415.76562 61.697914Q415.76562 61.041664 415.46875 60.77604Q415.0625 60.43229 414.26562 60.43229Q413.53125 60.43229 413.17188 60.697914Q412.8125 60.947914 412.64062 61.604164L411.60938 61.46354Q411.75 60.80729 412.07812 60.40104Q412.40625 59.99479 413.01562 59.77604Q413.625 59.55729 414.42188 59.55729Q415.21875 59.55729 415.71875 59.74479Q416.21875 59.93229 416.45312 60.21354Q416.6875 60.49479 416.78125 60.93229Q416.82812 61.197914 416.82812 61.90104L416.82812 63.30729Q416.82812 64.77604 416.89062 65.166664Q416.96875 65.55729 417.17188 65.916664L416.0625 65.916664Q415.90625 65.58854 415.85938 65.15104ZM415.76562 62.791664Q415.1875 63.02604 414.04688 63.197914Q413.39062 63.291664 413.125 63.416664Q412.85938 63.52604 412.70312 63.74479Q412.5625 63.96354 412.5625 64.24479Q412.5625 64.666664 412.875 64.947914Q413.20312 65.229164 413.8125 65.229164Q414.42188 65.229164 414.89062 64.96354Q415.375 64.697914 415.59375 64.229164Q415.76562 63.86979 415.76562 63.18229L415.76562 62.791664ZM422.82812 65.916664L422.82812 65.135414Q422.23438 66.05729 421.09375 66.05729Q420.34375 66.05729 419.71875 65.65104Q419.09375 65.229164 418.75 64.49479Q418.40625 63.760414 418.40625 62.80729Q418.40625 61.885414 418.71875 61.11979Q419.03125 60.354164 419.65625 59.96354Q420.28125 59.55729 421.04688 59.55729Q421.60938 59.55729 422.04688 59.791664Q422.48438 60.02604 422.76562 60.40104L422.76562 57.322914L423.8125 57.322914L423.8125 65.916664L422.82812 65.916664ZM419.5 62.80729Q419.5 64.010414 420.0 64.604164Q420.5 65.18229 421.1875 65.18229Q421.875 65.18229 422.35938 64.61979Q422.84375 64.05729 422.84375 62.90104Q422.84375 61.61979 422.34375 61.02604Q421.85938 60.43229 421.14062 60.43229Q420.4375 60.43229 419.96875 61.010414Q419.5 61.572914 419.5 62.80729ZM425.375 64.05729L426.40625 63.90104Q426.5 64.52604 426.89062 64.854164Q427.29688 65.18229 428.03125 65.18229Q428.75 65.18229 429.09375 64.90104Q429.45312 64.604164 429.45312 64.197914Q429.45312 63.83854 429.14062 63.635414Q428.92188 63.49479 428.0625 63.27604Q426.90625 62.979164 426.45312 62.77604Q426.01562 62.55729 425.78125 62.18229Q425.54688 61.80729 425.54688 61.33854Q425.54688 60.93229 425.73438 60.572914Q425.92188 60.21354 426.25 59.979164Q426.5 59.80729 426.92188 59.68229Q427.34375 59.55729 427.84375 59.55729Q428.5625 59.55729 429.10938 59.77604Q429.67188 59.979164 429.9375 60.33854Q430.20312 60.697914 430.29688 61.291664L429.26562 61.43229Q429.20312 60.96354 428.85938 60.697914Q428.53125 60.416664 427.90625 60.416664Q427.1875 60.416664 426.875 60.666664Q426.5625 60.90104 426.5625 61.229164Q426.5625 61.43229 426.6875 61.58854Q426.82812 61.760414 427.09375 61.86979Q427.25 61.93229 428.03125 62.135414Q429.15625 62.447914 429.59375 62.635414Q430.03125 62.822914 430.28125 63.18229Q430.53125 63.541664 430.53125 64.08854Q430.53125 64.61979 430.21875 65.08854Q429.92188 65.541664 429.34375 65.80729Q428.76562 66.05729 428.03125 66.05729Q426.8125 66.05729 426.17188 65.55729Q425.54688 65.041664 425.375 64.05729Z" fill-rule="nonzero"/><path fill="#34a853" d="M447.0 56.916668C447.0 56.364384 447.44772 55.916668 448.0 55.916668L458.0 55.916668C458.55228 55.916668 459.0 56.364384 459.0 56.916668L459.0 66.916664C459.0 67.46895 458.55228 67.916664 458.0 67.916664L448.0 67.916664C447.44772 67.916664 447.0 67.46895 447.0 66.916664Z" fill-rule="nonzero"/><path fill="#1a1a1a" d="M467.57812 61.729164Q467.57812 59.58854 468.71875 58.385414Q469.875 57.166664 471.6875 57.166664Q472.89062 57.166664 473.84375 57.74479Q474.79688 58.30729 475.29688 59.322914Q475.79688 60.33854 475.79688 61.635414Q475.79688 62.93229 475.26562 63.96354Q474.73438 64.99479 473.76562 65.52604Q472.8125 66.05729 471.6875 66.05729Q470.46875 66.05729 469.51562 65.479164Q468.5625 64.885414 468.0625 63.885414Q467.57812 62.86979 467.57812 61.729164ZM468.75 61.74479Q468.75 63.30729 469.57812 64.197914Q470.42188 65.08854 471.6875 65.08854Q472.96875 65.08854 473.79688 64.197914Q474.625 63.291664 474.625 61.61979Q474.625 60.572914 474.26562 59.791664Q473.92188 59.010414 473.23438 58.58854Q472.54688 58.15104 471.70312 58.15104Q470.5 58.15104 469.625 58.979164Q468.75 59.80729 468.75 61.74479ZM476.79688 68.30729L476.79688 59.697914L477.75 59.697914L477.75 60.49479Q478.09375 60.02604 478.51562 59.791664Q478.95312 59.55729 479.5625 59.55729Q480.35938 59.55729 480.96875 59.96354Q481.57812 60.36979 481.875 61.11979Q482.1875 61.86979 482.1875 62.760414Q482.1875 63.71354 481.84375 64.479164Q481.51562 65.24479 480.85938 65.65104Q480.20312 66.05729 479.48438 66.05729Q478.95312 66.05729 478.53125 65.83854Q478.10938 65.604164 477.84375 65.27604L477.84375 68.30729L476.79688 68.30729ZM477.75 62.83854Q477.75 64.041664 478.23438 64.61979Q478.71875 65.18229 479.40625 65.18229Q480.10938 65.18229 480.60938 64.58854Q481.10938 63.99479 481.10938 62.74479Q481.10938 61.55729 480.625 60.979164Q480.14062 60.385414 479.45312 60.385414Q478.78125 60.385414 478.26562 61.010414Q477.75 61.635414 477.75 62.83854ZM488.04688 63.916664L489.14062 64.041664Q488.89062 64.99479 488.1875 65.52604Q487.48438 66.05729 486.40625 66.05729Q485.04688 66.05729 484.23438 65.21354Q483.4375 64.36979 483.4375 62.854164Q483.4375 61.291664 484.25 60.43229Q485.0625 59.55729 486.34375 59.55729Q487.59375 59.55729 488.375 60.40104Q489.17188 61.24479 489.17188 62.791664Q489.17188 62.885414 489.17188 63.072914L484.53125 63.072914Q484.59375 64.104164 485.10938 64.65104Q485.625 65.18229 486.40625 65.18229Q486.98438 65.18229 487.39062 64.885414Q487.8125 64.572914 488.04688 63.916664ZM484.59375 62.21354L488.0625 62.21354Q488.0 61.416664 487.67188 61.02604Q487.15625 60.416664 486.35938 60.416664Q485.625 60.416664 485.125 60.90104Q484.64062 61.385414 484.59375 62.21354ZM490.79688 65.916664L490.79688 59.697914L491.73438 59.697914L491.73438 60.572914Q492.42188 59.55729 493.71875 59.55729Q494.28125 59.55729 494.75 59.760414Q495.23438 59.96354 495.46875 60.291664Q495.70312 60.61979 495.79688 61.05729Q495.84375 61.354164 495.84375 62.08854L495.84375 65.916664L494.79688 65.916664L494.79688 62.135414Q494.79688 61.479164 494.67188 61.166664Q494.54688 60.854164 494.23438 60.666664Q493.92188 60.46354 493.5 60.46354Q492.82812 60.46354 492.32812 60.90104Q491.84375 61.322914 491.84375 62.510414L491.84375 65.916664L490.79688 65.916664ZM497.89062 65.916664L497.89062 57.322914L499.60938 57.322914L501.64062 63.40104Q501.92188 64.260414 502.04688 64.68229Q502.1875 64.21354 502.5 63.30729L504.5625 57.322914L506.09375 57.322914L506.09375 65.916664L505.0 65.916664L505.0 58.729164L502.5 65.916664L501.46875 65.916664L498.98438 58.604164L498.98438 65.916664L497.89062 65.916664ZM507.92188 65.916664L507.92188 57.322914L511.17188 57.322914Q512.0156 57.322914 512.46875 57.40104Q513.1094 57.510414 513.53125 57.80729Q513.96875 58.104164 514.21875 58.635414Q514.4844 59.166664 514.4844 59.80729Q514.4844 60.90104 513.78125 61.666664Q513.09375 62.416664 511.26562 62.416664L509.0625 62.416664L509.0625 65.916664L507.92188 65.916664ZM509.0625 61.416664L511.28125 61.416664Q512.3906 61.416664 512.84375 61.010414Q513.3125 60.58854 513.3125 59.83854Q513.3125 59.30729 513.03125 58.93229Q512.7656 58.541664 512.3281 58.416664Q512.03125 58.33854 511.26562 58.33854L509.0625 58.33854L509.0625 61.416664ZM520.125 61.260414Q519.46875 61.010414 519.1406 60.572914Q518.8281 60.11979 518.8281 59.510414Q518.8281 58.572914 519.5 57.93229Q520.1875 57.291664 521.2969 57.291664Q522.4219 57.291664 523.1094 57.947914Q523.7969 58.604164 523.7969 59.541664Q523.7969 60.135414 523.4844 60.572914Q523.1719 61.010414 522.53125 61.260414Q523.3281 61.510414 523.7344 62.08854Q524.1406 62.666664 524.1406 63.46354Q524.1406 64.55729 523.3594 65.30729Q522.59375 66.05729 521.3125 66.05729Q520.0469 66.05729 519.2656 65.30729Q518.4844 64.55729 518.4844 63.43229Q518.4844 62.58854 518.90625 62.02604Q519.34375 61.46354 520.125 61.260414ZM519.90625 59.46354Q519.90625 60.072914 520.2969 60.46354Q520.7031 60.854164 521.3281 60.854164Q521.9375 60.854164 522.3281 60.479164Q522.71875 60.08854 522.71875 59.52604Q522.71875 58.947914 522.3125 58.55729Q521.90625 58.15104 521.3125 58.15104Q520.7031 58.15104 520.2969 58.541664Q519.90625 58.93229 519.90625 59.46354ZM519.5781 63.43229Q519.5781 63.885414 519.78125 64.30729Q520.0 64.729164 520.4219 64.96354Q520.84375 65.197914 521.3281 65.197914Q522.0781 65.197914 522.5625 64.71354Q523.0625 64.229164 523.0625 63.479164Q523.0625 62.71354 522.5625 62.21354Q522.0625 61.71354 521.2969 61.71354Q520.5469 61.71354 520.0625 62.21354Q519.5781 62.697914 519.5781 63.43229ZM531.1094 65.916664L531.1094 58.33854L528.28125 58.33854L528.28125 57.322914L535.09375 57.322914L535.09375 58.33854L532.25 58.33854L532.25 65.916664L531.1094 65.916664ZM535.7969 65.916664L535.7969 57.322914L536.84375 57.322914L536.84375 60.40104Q537.5781 59.55729 538.7031 59.55729Q539.40625 59.55729 539.90625 59.83854Q540.4219 60.104164 540.6406 60.58854Q540.8594 61.05729 540.8594 61.979164L540.8594 65.916664L539.8125 65.916664L539.8125 61.979164Q539.8125 61.18229 539.46875 60.822914Q539.125 60.46354 538.5 60.46354Q538.03125 60.46354 537.6094 60.71354Q537.2031 60.947914 537.0156 61.36979Q536.84375 61.77604 536.84375 62.510414L536.84375 65.916664L535.7969 65.916664ZM542.78125 65.916664L542.78125 59.697914L543.7344 59.697914L543.7344 60.635414Q544.09375 59.979164 544.3906 59.77604Q544.7031 59.55729 545.0781 59.55729Q545.6094 59.55729 546.15625 59.885414L545.7969 60.86979Q545.40625 60.635414 545.03125 60.635414Q544.6719 60.635414 544.3906 60.854164Q544.125 61.05729 544.0156 61.43229Q543.8281 61.99479 543.8281 62.65104L543.8281 65.916664L542.78125 65.916664ZM551.0469 63.916664L552.1406 64.041664Q551.8906 64.99479 551.1875 65.52604Q550.4844 66.05729 549.40625 66.05729Q548.0469 66.05729 547.2344 65.21354Q546.4375 64.36979 546.4375 62.854164Q546.4375 61.291664 547.25 60.43229Q548.0625 59.55729 549.34375 59.55729Q550.59375 59.55729 551.375 60.40104Q552.1719 61.24479 552.1719 62.791664Q552.1719 62.885414 552.1719 63.072914L547.53125 63.072914Q547.59375 64.104164 548.1094 64.65104Q548.625 65.18229 549.40625 65.18229Q549.9844 65.18229 550.3906 64.885414Q550.8125 64.572914 551.0469 63.916664ZM547.59375 62.21354L551.0625 62.21354Q551.0 61.416664 550.6719 61.02604Q550.15625 60.416664 549.3594 60.416664Q548.625 60.416664 548.125 60.90104Q547.6406 61.385414 547.59375 62.21354ZM557.8594 65.15104Q557.2656 65.65104 556.71875 65.854164Q556.1875 66.05729 555.5625 66.05729Q554.53125 66.05729 553.9844 65.55729Q553.4375 65.05729 553.4375 64.27604Q553.4375 63.822914 553.6406 63.447914Q553.84375 63.05729 554.1875 62.83854Q554.53125 62.604164 554.9531 62.49479Q555.25 62.40104 555.8906 62.322914Q557.15625 62.18229 557.7656 61.96354Q557.7656 61.74479 557.7656 61.697914Q557.7656 61.041664 557.46875 60.77604Q557.0625 60.43229 556.2656 60.43229Q555.53125 60.43229 555.1719 60.697914Q554.8125 60.947914 554.6406 61.604164L553.6094 61.46354Q553.75 60.80729 554.0781 60.40104Q554.40625 59.99479 555.0156 59.77604Q555.625 59.55729 556.4219 59.55729Q557.21875 59.55729 557.71875 59.74479Q558.21875 59.93229 558.4531 60.21354Q558.6875 60.49479 558.78125 60.93229Q558.8281 61.197914 558.8281 61.90104L558.8281 63.30729Q558.8281 64.77604 558.8906 65.166664Q558.96875 65.55729 559.1719 65.916664L558.0625 65.916664Q557.90625 65.58854 557.8594 65.15104ZM557.7656 62.791664Q557.1875 63.02604 556.0469 63.197914Q555.3906 63.291664 555.125 63.416664Q554.8594 63.52604 554.7031 63.74479Q554.5625 63.96354 554.5625 64.24479Q554.5625 64.666664 554.875 64.947914Q555.2031 65.229164 555.8125 65.229164Q556.4219 65.229164 556.8906 64.96354Q557.375 64.697914 557.59375 64.229164Q557.7656 63.86979 557.7656 63.18229L557.7656 62.791664ZM564.8281 65.916664L564.8281 65.135414Q564.2344 66.05729 563.09375 66.05729Q562.34375 66.05729 561.71875 65.65104Q561.09375 65.229164 560.75 64.49479Q560.40625 63.760414 560.40625 62.80729Q560.40625 61.885414 560.71875 61.11979Q561.03125 60.354164 561.65625 59.96354Q562.28125 59.55729 563.0469 59.55729Q563.6094 59.55729 564.0469 59.791664Q564.4844 60.02604 564.7656 60.40104L564.7656 57.322914L565.8125 57.322914L565.8125 65.916664L564.8281 65.916664ZM561.5 62.80729Q561.5 64.010414 562.0 64.604164Q562.5 65.18229 563.1875 65.18229Q563.875 65.18229 564.3594 64.61979Q564.84375 64.05729 564.84375 62.90104Q564.84375 61.61979 564.34375 61.02604Q563.8594 60.43229 563.1406 60.43229Q562.4375 60.43229 561.96875 61.010414Q561.5 61.572914 561.5 62.80729ZM567.375 64.05729L568.40625 63.90104Q568.5 64.52604 568.8906 64.854164Q569.2969 65.18229 570.03125 65.18229Q570.75 65.18229 571.09375 64.90104Q571.4531 64.604164 571.4531 64.197914Q571.4531 63.83854 571.1406 63.635414Q570.9219 63.49479 570.0625 63.27604Q568.90625 62.979164 568.4531 62.77604Q568.0156 62.55729 567.78125 62.18229Q567.5469 61.80729 567.5469 61.33854Q567.5469 60.93229 567.7344 60.572914Q567.9219 60.21354 568.25 59.979164Q568.5 59.80729 568.9219 59.68229Q569.34375 59.55729 569.84375 59.55729Q570.5625 59.55729 571.1094 59.77604Q571.6719 59.979164 571.9375 60.33854Q572.2031 60.697914 572.2969 61.291664L571.2656 61.43229Q571.2031 60.96354 570.8594 60.697914Q570.53125 60.416664 569.90625 60.416664Q569.1875 60.416664 568.875 60.666664Q568.5625 60.90104 568.5625 61.229164Q568.5625 61.43229 568.6875 61.58854Q568.8281 61.760414 569.09375 61.86979Q569.25 61.93229 570.03125 62.135414Q571.15625 62.447914 571.59375 62.635414Q572.03125 62.822914 572.28125 63.18229Q572.53125 63.541664 572.53125 64.08854Q572.53125 64.61979 572.21875 65.08854Q571.9219 65.541664 571.34375 65.80729Q570.7656 66.05729 570.03125 66.05729Q568.8125 66.05729 568.1719 65.55729Q567.5469 65.041664 567.375 64.05729Z" fill-rule="nonzero"/><path fill="#757575" d="M20.128124 37.55L20.128124 23.2375L30.4875 23.2375L30.4875 24.925L22.034374 24.925L22.034374 29.3L29.940624 29.3L29.940624 30.9875L22.034374 30.9875L22.034374 35.8625L30.815624 35.8625L30.815624 37.55L20.128124 37.55ZM33.284374 37.55L33.284374 28.55L31.7375 28.55L31.7375 27.175L33.284374 27.175L33.284374 26.08125Q33.284374 25.034374 33.471874 24.51875Q33.721874 23.83125 34.3625 23.409374Q35.003124 22.9875 36.159374 22.9875Q36.909374 22.9875 37.8 23.159374L37.534374 24.690624Q36.9875 24.596874 36.503124 24.596874Q35.70625 24.596874 35.3625 24.940624Q35.034374 25.284374 35.034374 26.221874L35.034374 27.175L37.065624 27.175L37.065624 28.55L35.034374 28.55L35.034374 37.55L33.284374 37.55ZM39.284374 37.55L39.284374 28.55L37.7375 28.55L37.7375 27.175L39.284374 27.175L39.284374 26.08125Q39.284374 25.034374 39.471874 24.51875Q39.721874 23.83125 40.3625 23.409374Q41.003124 22.9875 42.159374 22.9875Q42.909374 22.9875 43.8 23.159374L43.534374 24.690624Q42.9875 24.596874 42.503124 24.596874Q41.70625 24.596874 41.3625 24.940624Q41.034374 25.284374 41.034374 26.221874L41.034374 27.175L43.065624 27.175L43.065624 28.55L41.034374 28.55L41.034374 37.55L39.284374 37.55ZM44.878124 25.253124L44.878124 23.2375L46.64375 23.2375L46.64375 25.253124L44.878124 25.253124ZM44.878124 37.55L44.878124 27.175L46.64375 27.175L46.64375 37.55L44.878124 37.55ZM55.64375 33.753124L57.3625 33.971874Q57.08125 35.76875 55.909374 36.784374Q54.753124 37.784374 53.05 37.784374Q50.925 37.784374 49.628124 36.39375Q48.33125 35.003124 48.33125 32.409374Q48.33125 30.721874 48.878124 29.471874Q49.440624 28.20625 50.58125 27.58125Q51.721874 26.940624 53.065624 26.940624Q54.753124 26.940624 55.815624 27.8Q56.89375 28.659374 57.20625 30.221874L55.4875 30.4875Q55.253124 29.440624 54.628124 28.925Q54.003124 28.39375 53.128124 28.39375Q51.8 28.39375 50.971874 29.346874Q50.14375 30.3 50.14375 32.346874Q50.14375 34.440624 50.940624 35.39375Q51.7375 36.33125 53.034374 36.33125Q54.065624 36.33125 54.753124 35.70625Q55.45625 35.065624 55.64375 33.753124ZM58.878124 25.253124L58.878124 23.2375L60.64375 23.2375L60.64375 25.253124L58.878124 25.253124ZM58.878124 37.55L58.878124 27.175L60.64375 27.175L60.64375 37.55L58.878124 37.55ZM69.97188 34.20625L71.78438 34.440624Q71.3625 36.01875 70.19063 36.909374Q69.03438 37.784374 67.22188 37.784374Q64.95625 37.784374 63.6125 36.39375Q62.284374 34.9875 62.284374 32.45625Q62.284374 29.83125 63.628124 28.39375Q64.97188 26.940624 67.12813 26.940624Q69.20625 26.940624 70.51875 28.3625Q71.84688 29.76875 71.84688 32.346874Q71.84688 32.503124 71.83125 32.815624L64.09688 32.815624Q64.19063 34.51875 65.06563 35.425Q65.94063 36.33125 67.2375 36.33125Q68.20625 36.33125 68.87813 35.83125Q69.56563 35.315624 69.97188 34.20625ZM64.19063 31.3625L69.9875 31.3625Q69.87813 30.065624 69.33125 29.409374Q68.4875 28.39375 67.14375 28.39375Q65.94063 28.39375 65.1125 29.20625Q64.28438 30.003124 64.19063 31.3625ZM73.8625 37.55L73.8625 27.175L75.45625 27.175L75.45625 28.659374Q76.59688 26.940624 78.75313 26.940624Q79.69063 26.940624 80.47188 27.284374Q81.26875 27.6125 81.65938 28.159374Q82.05 28.70625 82.20625 29.45625Q82.3 29.95625 82.3 31.175L82.3 37.55L80.53438 37.55L80.53438 31.2375Q80.53438 30.159374 80.33125 29.628124Q80.12813 29.096874 79.59688 28.784374Q79.08125 28.471874 78.37813 28.471874Q77.25313 28.471874 76.44063 29.190624Q75.62813 29.89375 75.62813 31.878124L75.62813 37.55L73.8625 37.55ZM91.64375 33.753124L93.3625 33.971874Q93.08125 35.76875 91.90938 36.784374Q90.75313 37.784374 89.05 37.784374Q86.925 37.784374 85.62813 36.39375Q84.33125 35.003124 84.33125 32.409374Q84.33125 30.721874 84.87813 29.471874Q85.44063 28.20625 86.58125 27.58125Q87.72188 26.940624 89.06563 26.940624Q90.75313 26.940624 91.81563 27.8Q92.89375 28.659374 93.20625 30.221874L91.4875 30.4875Q91.25313 29.440624 90.62813 28.925Q90.00313 28.39375 89.12813 28.39375Q87.8 28.39375 86.97188 29.346874Q86.14375 30.3 86.14375 32.346874Q86.14375 34.440624 86.94063 35.39375Q87.7375 36.33125 89.03438 36.33125Q90.06563 36.33125 90.75313 35.70625Q91.45625 35.065624 91.64375 33.753124ZM94.78438 41.55L94.59688 39.89375Q95.175 40.05 95.59688 40.05Q96.19063 40.05 96.53438 39.846874Q96.89375 39.659374 97.1125 39.315624Q97.28438 39.05 97.65938 38.003124Q97.70625 37.846874 97.81563 37.565624L93.87813 27.175L95.76875 27.175L97.925 33.190624Q98.34688 34.33125 98.675 35.58125Q98.9875 34.378124 99.39375 33.221874L101.6125 27.175L103.37813 27.175L99.425 37.721874Q98.8 39.440624 98.44063 40.08125Q97.97188 40.95625 97.3625 41.346874Q96.76875 41.753124 95.925 41.753124Q95.40938 41.753124 94.78438 41.55Z" fill-rule="nonzero"/></svg>