<svg version="1.1" viewBox="0.0 0.0 600.0 371.0" fill="none" stroke="none" stroke-linecap="square" stroke-miterlimit="10" width="600" height="371" xmlns:xlink="http://www.w3.org/1999/xlink" xmlns="http://www.w3.org/2000/svg"><path fill="#ffffff" d="M0 0L600.0 0L600.0 371.0L0 371.0L0 0Z" fill-rule="nonzero"/><path stroke="#333333" stroke-width="1.0" stroke-linecap="butt" d="M77.5 332.5L581.5 332.5" fill-rule="nonzero"/><path stroke="#cccccc" stroke-width="1.0" stroke-linecap="butt" d="M77.5 287.5L581.5 287.5" fill-rule="nonzero"/><path stroke="#cccccc" stroke-width="1.0" stroke-linecap="butt" d="M77.5 241.5L581.5 241.5" fill-rule="nonzero"/><path stroke="#cccccc" stroke-width="1.0" stroke-linecap="butt" d="M77.5 196.5L581.5 196.5" fill-rule="nonzero"/><path stroke="#cccccc" stroke-width="1.0" stroke-linecap="butt" d="M77.5 151.5L581.5 151.5" fill-rule="nonzero"/><path stroke="#cccccc" stroke-width="1.0" stroke-linecap="butt" d="M77.5 106.5L581.5 106.5" fill-rule="nonzero"/><clipPath id="id_0"><path d="M77.55 106.28333L581.45 106.28333L581.45 332.45L77.55 332.45L77.55 106.28333Z" clip-rule="nonzero"/></clipPath><path stroke="#000000" stroke-width="0.0" stroke-linecap="butt" stroke-opacity="0.0" clip-path="url(#id_0)" d="M256.0 332.0L208.0 332.0L208.0 175.0C208.0 173.89543 208.89543 173.0 210.0 173.0L254.0 173.0C255.10457 173.0 256.0 173.89543 256.0 175.0Z" fill-rule="nonzero"/><path fill="#4285f4" clip-path="url(#id_0)" d="M256.0 332.0L208.0 332.0L208.0 175.0C208.0 173.89543 208.89543 173.0 210.0 173.0L254.0 173.0C255.10457 173.0 256.0 173.89543 256.0 175.0Z" fill-rule="nonzero"/><path stroke="#000000" stroke-width="0.0" stroke-linecap="butt" stroke-opacity="0.0" clip-path="url(#id_0)" d="M305.0 332.0L257.0 332.0L257.0 153.0C257.0 151.89543 257.89542 151.0 259.0 151.0L303.0 151.0C304.10458 151.0 305.0 151.89543 305.0 153.0Z" fill-rule="nonzero"/><path fill="#ea4335" clip-path="url(#id_0)" d="M305.0 332.0L257.0 332.0L257.0 153.0C257.0 151.89543 257.89542 151.0 259.0 151.0L303.0 151.0C304.10458 151.0 305.0 151.89543 305.0 153.0Z" fill-rule="nonzero"/><path stroke="#000000" stroke-width="0.0" stroke-linecap="butt" stroke-opacity="0.0" clip-path="url(#id_0)" d="M354.0 332.0L306.0 332.0L306.0 235.0C306.0 233.89543 306.89542 233.0 308.0 233.0L352.0 233.0C353.10458 233.0 354.0 233.89543 354.0 235.0Z" fill-rule="nonzero"/><path fill="#fbbc04" clip-path="url(#id_0)" d="M354.0 332.0L306.0 332.0L306.0 235.0C306.0 233.89543 306.89542 233.0 308.0 233.0L352.0 233.0C353.10458 233.0 354.0 233.89543 354.0 235.0Z" fill-rule="nonzero"/><path stroke="#000000" stroke-width="0.0" stroke-linecap="butt" stroke-opacity="0.0" clip-path="url(#id_0)" d="M403.0 332.0L355.0 332.0L355.0 261.0C355.0 259.89542 355.89542 259.0 357.0 259.0L401.0 259.0C402.10458 259.0 403.0 259.89542 403.0 261.0Z" fill-rule="nonzero"/><path fill="#34a853" clip-path="url(#id_0)" d="M403.0 332.0L355.0 332.0L355.0 261.0C355.0 259.89542 355.89542 259.0 357.0 259.0L401.0 259.0C402.10458 259.0 403.0 259.89542 403.0 261.0Z" fill-rule="nonzero"/><path stroke="#000000" stroke-width="0.0" stroke-linecap="butt" stroke-opacity="0.0" clip-path="url(#id_0)" d="M452.0 332.0L404.0 332.0L404.0 252.0C404.0 250.89543 404.89542 250.0 406.0 250.0L450.0 250.0C451.10458 250.0 452.0 250.89543 452.0 252.0Z" fill-rule="nonzero"/><path fill="#ff6d01" clip-path="url(#id_0)" d="M452.0 332.0L404.0 332.0L404.0 252.0C404.0 250.89543 404.89542 250.0 406.0 250.0L450.0 250.0C451.10458 250.0 452.0 250.89543 452.0 252.0Z" fill-rule="nonzero"/><path fill="#000000" d="M28.612513 245.27292L29.534388 245.11667Q29.628138 245.5698 29.628138 245.91354Q29.628138 246.49167 29.456263 246.80417Q29.268763 247.11667 28.971888 247.2573Q28.675013 247.3823 27.721888 247.3823L24.143763 247.3823L24.143763 248.14792L23.331263 248.14792L23.331263 247.3823L21.784388 247.3823L21.159388 246.33542L23.331263 246.33542L23.331263 245.27292L24.143763 245.27292L24.143763 246.33542L27.784388 246.33542Q28.237513 246.33542 28.362513 246.28854Q28.487513 246.22604 28.565638 246.10104Q28.643763 245.97604 28.643763 245.74167Q28.643763 245.55417 28.612513 245.27292ZM22.175013 244.5698L20.956263 244.5698L20.956263 243.5073L22.175013 243.5073L22.175013 244.5698ZM29.550013 244.5698L23.331263 244.5698L23.331263 243.5073L29.550013 243.5073L29.550013 244.5698ZM29.550013 241.5698L23.331263 241.5698L23.331263 240.6323L24.206263 240.6323Q23.737513 240.33542 23.471888 239.85104Q23.190638 239.36667 23.190638 238.74167Q23.190638 238.05417 23.471888 237.61667Q23.753138 237.16354 24.268763 236.99167Q23.190638 236.24167 23.190638 235.0698Q23.190638 234.1323 23.706263 233.64792Q24.206263 233.14792 25.284388 233.14792L29.550013 233.14792L29.550013 234.1948L25.628138 234.1948Q25.003138 234.1948 24.721888 234.30417Q24.440638 234.39792 24.268763 234.66354Q24.096888 234.92917 24.096888 235.30417Q24.096888 235.96042 24.534388 236.39792Q24.971888 236.8198 25.940638 236.8198L29.550013 236.8198L29.550013 237.8823L25.503138 237.8823Q24.800013 237.8823 24.456263 238.14792Q24.096888 238.39792 24.096888 238.97604Q24.096888 239.42917 24.331263 239.80417Q24.565638 240.17917 25.018763 240.35104Q25.471888 240.52292 26.315638 240.52292L29.550013 240.52292L29.550013 241.5698ZM27.550013 227.3198L27.675013 226.22604Q28.628138 226.47604 29.159388 227.17917Q29.690638 227.8823 29.690638 228.96042Q29.690638 230.3198 28.846888 231.1323Q28.003138 231.92917 26.487513 231.92917Q24.925013 231.92917 24.065638 231.11667Q23.190638 230.30417 23.190638 229.02292Q23.190638 227.77292 24.034388 226.99167Q24.878138 226.1948 26.425013 226.1948Q26.518763 226.1948 26.706263 226.1948L26.706263 230.83542Q27.737513 230.77292 28.284388 230.2573Q28.815638 229.74167 28.815638 228.96042Q28.815638 228.3823 28.518763 227.97604Q28.206263 227.55417 27.550013 227.3198ZM25.846888 230.77292L25.846888 227.30417Q25.050013 227.36667 24.659388 227.6948Q24.050013 228.21042 24.050013 229.0073Q24.050013 229.74167 24.534388 230.24167Q25.018763 230.72604 25.846888 230.77292ZM22.175013 221.5698L20.956263 221.5698L20.956263 220.5073L22.175013 220.5073L22.175013 221.5698ZM29.550013 221.5698L23.331263 221.5698L23.331263 220.5073L29.550013 220.5073L29.550013 221.5698ZM29.550013 218.5698L23.331263 218.5698L23.331263 217.6323L24.206263 217.6323Q23.190638 216.9448 23.190638 215.64792Q23.190638 215.08542 23.393763 214.61667Q23.596888 214.1323 23.925013 213.89792Q24.253138 213.66354 24.690638 213.5698Q24.987513 213.52292 25.721888 213.52292L29.550013 213.52292L29.550013 214.5698L25.768763 214.5698Q25.112513 214.5698 24.800013 214.6948Q24.487513 214.8198 24.300013 215.1323Q24.096888 215.4448 24.096888 215.86667Q24.096888 216.53854 24.534388 217.03854Q24.956263 217.52292 26.143763 217.52292L29.550013 217.52292L29.550013 218.5698ZM27.690638 208.99167L27.534388 207.96042Q28.159388 207.86667 28.487513 207.47604Q28.815638 207.0698 28.815638 206.33542Q28.815638 205.61667 28.534388 205.27292Q28.237513 204.91354 27.831263 204.91354Q27.471888 204.91354 27.268763 205.22604Q27.128138 205.4448 26.909388 206.30417Q26.612513 207.46042 26.409388 207.91354Q26.190638 208.35104 25.815638 208.58542Q25.440638 208.8198 24.971888 208.8198Q24.565638 208.8198 24.206263 208.6323Q23.846888 208.4448 23.612513 208.11667Q23.440638 207.86667 23.315638 207.4448Q23.190638 207.02292 23.190638 206.52292Q23.190638 205.80417 23.409388 205.2573Q23.612513 204.6948 23.971888 204.42917Q24.331263 204.16354 24.925013 204.0698L25.065638 205.10104Q24.596888 205.16354 24.331263 205.5073Q24.050013 205.83542 24.050013 206.46042Q24.050013 207.17917 24.300013 207.49167Q24.534388 207.80417 24.862513 207.80417Q25.065638 207.80417 25.221888 207.67917Q25.393763 207.53854 25.503138 207.27292Q25.565638 207.11667 25.768763 206.33542Q26.081263 205.21042 26.268763 204.77292Q26.456263 204.33542 26.815638 204.08542Q27.175013 203.83542 27.721888 203.83542Q28.253138 203.83542 28.721888 204.14792Q29.175013 204.4448 29.440638 205.02292Q29.690638 205.60104 29.690638 206.33542Q29.690638 207.55417 29.190638 208.1948Q28.675013 208.8198 27.690638 208.99167Z" fill-rule="nonzero"/><path fill="#000000" d="M65.05 332.21564Q65.05 330.6844 65.3625 329.7625Q65.675 328.825 66.28438 328.325Q66.90938 327.825 67.84688 327.825Q68.53438 327.825 69.05 328.10626Q69.58125 328.3875 69.925 328.91876Q70.26875 329.4344 70.45625 330.1844Q70.64375 330.9344 70.64375 332.21564Q70.64375 333.73126 70.33125 334.65314Q70.03438 335.575 69.40938 336.09064Q68.8 336.59064 67.84688 336.59064Q66.6125 336.59064 65.89375 335.7Q65.05 334.6375 65.05 332.21564ZM66.12813 332.21564Q66.12813 334.325 66.62813 335.02814Q67.12813 335.73126 67.84688 335.73126Q68.58125 335.73126 69.06563 335.02814Q69.56563 334.325 69.56563 332.21564Q69.56563 330.09064 69.06563 329.40314Q68.58125 328.7 67.83125 328.7Q67.1125 328.7 66.675 329.3094Q66.12813 330.09064 66.12813 332.21564Z" fill-rule="nonzero"/><path fill="#000000" d="M65.05 288.96667L66.15938 288.87292Q66.28438 289.68542 66.72188 290.09167Q67.175 290.49792 67.81563 290.49792Q68.56563 290.49792 69.09688 289.9198Q69.62813 289.34167 69.62813 288.40417Q69.62813 287.49792 69.1125 286.9823Q68.6125 286.45105 67.78438 286.45105Q67.28438 286.45105 66.8625 286.68542Q66.45625 286.9198 66.22188 287.27917L65.2375 287.15417L66.06563 282.74792L70.34688 282.74792L70.34688 283.74792L66.90938 283.74792L66.45625 286.06042Q67.22188 285.51355 68.06563 285.51355Q69.19063 285.51355 69.95625 286.2948Q70.7375 287.07605 70.7375 288.31042Q70.7375 289.46667 70.06563 290.32605Q69.2375 291.3573 67.81563 291.3573Q66.64375 291.3573 65.89375 290.70105Q65.15938 290.0448 65.05 288.96667Z" fill-rule="nonzero"/><path fill="#000000" d="M62.01875 245.98334L60.971874 245.98334L60.971874 239.26459Q60.58125 239.62396 59.95625 239.99896Q59.346874 240.35834 58.8625 240.53021L58.8625 239.51459Q59.7375 239.09271 60.39375 238.51459Q61.065624 237.92084 61.346874 237.35834L62.01875 237.35834L62.01875 245.98334ZM65.05 241.74896Q65.05 240.21771 65.3625 239.29584Q65.675 238.35834 66.28438 237.85834Q66.90938 237.35834 67.84688 237.35834Q68.53438 237.35834 69.05 237.63959Q69.58125 237.92084 69.925 238.45209Q70.26875 238.96771 70.45625 239.71771Q70.64375 240.46771 70.64375 241.74896Q70.64375 243.26459 70.33125 244.18646Q70.03438 245.10834 69.40938 245.62396Q68.8 246.12396 67.84688 246.12396Q66.6125 246.12396 65.89375 245.23334Q65.05 244.17084 65.05 241.74896ZM66.12813 241.74896Q66.12813 243.85834 66.62813 244.56146Q67.12813 245.26459 67.84688 245.26459Q68.58125 245.26459 69.06563 244.56146Q69.56563 243.85834 69.56563 241.74896Q69.56563 239.62396 69.06563 238.93646Q68.58125 238.23334 67.83125 238.23334Q67.1125 238.23334 66.675 238.84271Q66.12813 239.62396 66.12813 241.74896Z" fill-rule="nonzero"/><path fill="#000000" d="M62.01875 200.75L60.971874 200.75L60.971874 194.03125Q60.58125 194.39062 59.95625 194.76562Q59.346874 195.125 58.8625 195.29688L58.8625 194.28125Q59.7375 193.85938 60.39375 193.28125Q61.065624 192.6875 61.346874 192.125L62.01875 192.125L62.01875 200.75ZM65.05 198.5L66.15938 198.40625Q66.28438 199.21875 66.72188 199.625Q67.175 200.03125 67.81563 200.03125Q68.56563 200.03125 69.09688 199.45312Q69.62813 198.875 69.62813 197.9375Q69.62813 197.03125 69.1125 196.51562Q68.6125 195.98438 67.78438 195.98438Q67.28438 195.98438 66.8625 196.21875Q66.45625 196.45312 66.22188 196.8125L65.2375 196.6875L66.06563 192.28125L70.34688 192.28125L70.34688 193.28125L66.90938 193.28125L66.45625 195.59375Q67.22188 195.04688 68.06563 195.04688Q69.19063 195.04688 69.95625 195.82812Q70.7375 196.60938 70.7375 197.84375Q70.7375 199.0 70.06563 199.85938Q69.2375 200.89062 67.81563 200.89062Q66.64375 200.89062 65.89375 200.23438Q65.15938 199.57812 65.05 198.5Z" fill-rule="nonzero"/><path fill="#000000" d="M63.596874 154.50104L63.596874 155.51666L57.909374 155.51666Q57.909374 155.14166 58.034374 154.78229Q58.253124 154.20416 58.721874 153.64166Q59.20625 153.07916 60.1125 152.34479Q61.51875 151.18854 62.003124 150.51666Q62.503124 149.84479 62.503124 149.25104Q62.503124 148.62604 62.05 148.20416Q61.596874 147.76666 60.878124 147.76666Q60.1125 147.76666 59.659374 148.21979Q59.20625 148.67291 59.190624 149.48541L58.1125 149.37604Q58.221874 148.15729 58.940624 147.53229Q59.675 146.89166 60.909374 146.89166Q62.14375 146.89166 62.8625 147.57916Q63.58125 148.26666 63.58125 149.28229Q63.58125 149.79791 63.3625 150.29791Q63.159374 150.78229 62.659374 151.34479Q62.175 151.89166 61.05 152.84479Q60.096874 153.64166 59.815624 153.93854Q59.55 154.21979 59.378124 154.50104L63.596874 154.50104ZM65.05 151.28229Q65.05 149.75104 65.3625 148.82916Q65.675 147.89166 66.28438 147.39166Q66.90938 146.89166 67.84688 146.89166Q68.53438 146.89166 69.05 147.17291Q69.58125 147.45416 69.925 147.98541Q70.26875 148.50104 70.45625 149.25104Q70.64375 150.00104 70.64375 151.28229Q70.64375 152.79791 70.33125 153.71979Q70.03438 154.64166 69.40938 155.15729Q68.8 155.65729 67.84688 155.65729Q66.6125 155.65729 65.89375 154.76666Q65.05 153.70416 65.05 151.28229ZM66.12813 151.28229Q66.12813 153.39166 66.62813 154.09479Q67.12813 154.79791 67.84688 154.79791Q68.58125 154.79791 69.06563 154.09479Q69.56563 153.39166 69.56563 151.28229Q69.56563 149.15729 69.06563 148.46979Q68.58125 147.76666 67.83125 147.76666Q67.1125 147.76666 66.675 148.37604Q66.12813 149.15729 66.12813 151.28229Z" fill-rule="nonzero"/><path fill="#000000" d="M63.596874 109.26771L63.596874 110.28333L57.909374 110.28333Q57.909374 109.90833 58.034374 109.54896Q58.253124 108.97083 58.721874 108.40833Q59.20625 107.84583 60.1125 107.11146Q61.51875 105.95521 62.003124 105.28333Q62.503124 104.61146 62.503124 104.01771Q62.503124 103.39271 62.05 102.97083Q61.596874 102.53333 60.878124 102.53333Q60.1125 102.53333 59.659374 102.98646Q59.20625 103.43958 59.190624 104.25208L58.1125 104.14271Q58.221874 102.92396 58.940624 102.29896Q59.675 101.65833 60.909374 101.65833Q62.14375 101.65833 62.8625 102.34583Q63.58125 103.03333 63.58125 104.04896Q63.58125 104.56458 63.3625 105.06458Q63.159374 105.54896 62.659374 106.11146Q62.175 106.65833 61.05 107.61146Q60.096874 108.40833 59.815624 108.70521Q59.55 108.98646 59.378124 109.26771L63.596874 109.26771ZM65.05 108.03333L66.15938 107.93958Q66.28438 108.75208 66.72188 109.15833Q67.175 109.56458 67.81563 109.56458Q68.56563 109.56458 69.09688 108.98646Q69.62813 108.40833 69.62813 107.47083Q69.62813 106.56458 69.1125 106.04896Q68.6125 105.51771 67.78438 105.51771Q67.28438 105.51771 66.8625 105.75208Q66.45625 105.98646 66.22188 106.34583L65.2375 106.22083L66.06563 101.81458L70.34688 101.81458L70.34688 102.81458L66.90938 102.81458L66.45625 105.12708Q67.22188 104.58021 68.06563 104.58021Q69.19063 104.58021 69.95625 105.36146Q70.7375 106.14271 70.7375 107.37708Q70.7375 108.53333 70.06563 109.39271Q69.2375 110.42396 67.81563 110.42396Q66.64375 110.42396 65.89375 109.76771Q65.15938 109.11146 65.05 108.03333Z" fill-rule="nonzero"/><path fill="#000000" d="M315.82812 349.45L315.82812 348.66876Q315.23438 349.59064 314.09375 349.59064Q313.34375 349.59064 312.71875 349.1844Q312.09375 348.7625 311.75 348.02814Q311.40625 347.29376 311.40625 346.34064Q311.40625 345.41876 311.71875 344.65314Q312.03125 343.8875 312.65625 343.4969Q313.28125 343.09064 314.04688 343.09064Q314.60938 343.09064 315.04688 343.325Q315.48438 343.5594 315.76562 343.9344L315.76562 340.85626L316.8125 340.85626L316.8125 349.45L315.82812 349.45ZM312.5 346.34064Q312.5 347.54376 313.0 348.1375Q313.5 348.71564 314.1875 348.71564Q314.875 348.71564 315.35938 348.15314Q315.84375 347.59064 315.84375 346.4344Q315.84375 345.15314 315.34375 344.5594Q314.85938 343.96564 314.14062 343.96564Q313.4375 343.96564 312.96875 344.54376Q312.5 345.10626 312.5 346.34064ZM323.04688 347.45L324.14062 347.575Q323.89062 348.52814 323.1875 349.0594Q322.48438 349.59064 321.40625 349.59064Q320.04688 349.59064 319.23438 348.7469Q318.4375 347.90314 318.4375 346.3875Q318.4375 344.825 319.25 343.96564Q320.0625 343.09064 321.34375 343.09064Q322.59375 343.09064 323.375 343.9344Q324.17188 344.77814 324.17188 346.325Q324.17188 346.41876 324.17188 346.60626L319.53125 346.60626Q319.59375 347.6375 320.10938 348.1844Q320.625 348.71564 321.40625 348.71564Q321.98438 348.71564 322.39062 348.41876Q322.8125 348.10626 323.04688 347.45ZM319.59375 345.7469L323.0625 345.7469Q323.0 344.95 322.67188 344.5594Q322.15625 343.95 321.35938 343.95Q320.625 343.95 320.125 344.4344Q319.64062 344.91876 319.59375 345.7469ZM326.04688 349.45L326.04688 344.04376L325.10938 344.04376L325.10938 343.23126L326.04688 343.23126L326.04688 342.5594Q326.04688 341.9344 326.15625 341.6375Q326.3125 341.21564 326.6875 340.96564Q327.07812 340.71564 327.76562 340.71564Q328.21875 340.71564 328.75 340.825L328.59375 341.73126Q328.26562 341.6844 327.96875 341.6844Q327.48438 341.6844 327.28125 341.8875Q327.09375 342.09064 327.09375 342.65314L327.09375 343.23126L328.3125 343.23126L328.3125 344.04376L327.09375 344.04376L327.09375 349.45L326.04688 349.45ZM332.85938 348.6844Q332.26562 349.1844 331.71875 349.3875Q331.1875 349.59064 330.5625 349.59064Q329.53125 349.59064 328.98438 349.09064Q328.4375 348.59064 328.4375 347.8094Q328.4375 347.35626 328.64062 346.98126Q328.84375 346.59064 329.1875 346.3719Q329.53125 346.1375 329.95312 346.02814Q330.25 345.9344 330.89062 345.85626Q332.15625 345.71564 332.76562 345.4969Q332.76562 345.27814 332.76562 345.23126Q332.76562 344.575 332.46875 344.3094Q332.0625 343.96564 331.26562 343.96564Q330.53125 343.96564 330.17188 344.23126Q329.8125 344.48126 329.64062 345.1375L328.60938 344.9969Q328.75 344.34064 329.07812 343.9344Q329.40625 343.52814 330.01562 343.3094Q330.625 343.09064 331.42188 343.09064Q332.21875 343.09064 332.71875 343.27814Q333.21875 343.46564 333.45312 343.7469Q333.6875 344.02814 333.78125 344.46564Q333.82812 344.73126 333.82812 345.4344L333.82812 346.84064Q333.82812 348.3094 333.89062 348.7Q333.96875 349.09064 334.17188 349.45L333.0625 349.45Q332.90625 349.1219 332.85938 348.6844ZM332.76562 346.325Q332.1875 346.5594 331.04688 346.73126Q330.39062 346.825 330.125 346.95Q329.85938 347.0594 329.70312 347.27814Q329.5625 347.4969 329.5625 347.77814Q329.5625 348.2 329.875 348.48126Q330.20312 348.7625 330.8125 348.7625Q331.42188 348.7625 331.89062 348.4969Q332.375 348.23126 332.59375 347.7625Q332.76562 347.40314 332.76562 346.71564L332.76562 346.325ZM339.875 349.45L339.875 348.52814Q339.14062 349.59064 337.89062 349.59064Q337.34375 349.59064 336.85938 349.3875Q336.39062 349.16876 336.15625 348.85626Q335.92188 348.52814 335.82812 348.0594Q335.76562 347.7625 335.76562 347.075L335.76562 343.23126L336.82812 343.23126L336.82812 346.6844Q336.82812 347.4969 336.89062 347.79376Q336.98438 348.2 337.29688 348.45Q337.625 348.6844 338.10938 348.6844Q338.57812 348.6844 338.98438 348.45Q339.40625 348.2 339.57812 347.77814Q339.76562 347.35626 339.76562 346.5594L339.76562 343.23126L340.8125 343.23126L340.8125 349.45L339.875 349.45ZM342.76562 349.45L342.76562 340.85626L343.82812 340.85626L343.82812 349.45L342.76562 349.45ZM348.09375 348.5125L348.25 349.4344Q347.79688 349.52814 347.45312 349.52814Q346.875 349.52814 346.5625 349.35626Q346.25 349.16876 346.10938 348.8719Q345.98438 348.575 345.98438 347.6219L345.98438 344.04376L345.21875 344.04376L345.21875 343.23126L345.98438 343.23126L345.98438 341.6844L347.03125 341.0594L347.03125 343.23126L348.09375 343.23126L348.09375 344.04376L347.03125 344.04376L347.03125 347.6844Q347.03125 348.1375 347.07812 348.2625Q347.14062 348.3875 347.26562 348.46564Q347.39062 348.54376 347.625 348.54376Q347.8125 348.54376 348.09375 348.5125Z" fill-rule="nonzero"/><path fill="#4285f4" d="M50.5 56.916668C50.5 56.364384 50.947716 55.916668 51.5 55.916668L61.5 55.916668C62.052284 55.916668 62.5 56.364384 62.5 56.916668L62.5 66.916664C62.5 67.46895 62.052284 67.916664 61.5 67.916664L51.5 67.916664C50.947716 67.916664 50.5 67.46895 50.5 66.916664Z" fill-rule="nonzero"/><path fill="#1a1a1a" d="M71.046875 63.15104L72.109375 63.05729Q72.1875 63.71354 72.46875 64.11979Q72.75 64.52604 73.328125 64.791664Q73.921875 65.041664 74.65625 65.041664Q75.296875 65.041664 75.796875 64.854164Q76.296875 64.65104 76.53125 64.322914Q76.78125 63.979164 76.78125 63.58854Q76.78125 63.18229 76.546875 62.885414Q76.3125 62.572914 75.78125 62.36979Q75.421875 62.229164 74.234375 61.947914Q73.0625 61.666664 72.59375 61.416664Q71.96875 61.08854 71.671875 60.61979Q71.375 60.135414 71.375 59.541664Q71.375 58.90104 71.734375 58.33854Q72.109375 57.760414 72.8125 57.479164Q73.53125 57.18229 74.390625 57.18229Q75.34375 57.18229 76.078125 57.49479Q76.8125 57.791664 77.203125 58.40104Q77.59375 58.99479 77.625 59.74479L76.53125 59.822914Q76.4375 59.010414 75.921875 58.604164Q75.421875 58.18229 74.4375 58.18229Q73.40625 58.18229 72.9375 58.55729Q72.46875 58.93229 72.46875 59.46354Q72.46875 59.93229 72.796875 60.229164Q73.125 60.52604 74.5 60.83854Q75.890625 61.15104 76.40625 61.385414Q77.15625 61.74479 77.515625 62.27604Q77.875 62.791664 77.875 63.49479Q77.875 64.18229 77.484375 64.791664Q77.09375 65.385414 76.359375 65.729164Q75.625 66.05729 74.703125 66.05729Q73.53125 66.05729 72.734375 65.729164Q71.953125 65.385414 71.5 64.697914Q71.0625 64.010414 71.046875 63.15104ZM83.546875 63.916664L84.640625 64.041664Q84.390625 64.99479 83.6875 65.52604Q82.984375 66.05729 81.90625 66.05729Q80.546875 66.05729 79.734375 65.21354Q78.9375 64.36979 78.9375 62.854164Q78.9375 61.291664 79.75 60.43229Q80.5625 59.55729 81.84375 59.55729Q83.09375 59.55729 83.875 60.40104Q84.671875 61.24479 84.671875 62.791664Q84.671875 62.885414 84.671875 63.072914L80.03125 63.072914Q80.09375 64.104164 80.609375 64.65104Q81.125 65.18229 81.90625 65.18229Q82.484375 65.18229 82.890625 64.885414Q83.3125 64.572914 83.546875 63.916664ZM80.09375 62.21354L83.5625 62.21354Q83.5 61.416664 83.171875 61.02604Q82.65625 60.416664 81.859375 60.416664Q81.125 60.416664 80.625 60.90104Q80.140625 61.385414 80.09375 62.21354ZM90.265625 68.30729L90.265625 65.260414Q90.015625 65.604164 89.5625 65.83854Q89.125 66.05729 88.625 66.05729Q87.515625 66.05729 86.71875 65.18229Q85.921875 64.291664 85.921875 62.74479Q85.921875 61.80729 86.25 61.072914Q86.578125 60.322914 87.1875 59.947914Q87.8125 59.55729 88.546875 59.55729Q89.703125 59.55729 90.359375 60.52604L90.359375 59.697914L91.3125 59.697914L91.3125 68.30729L90.265625 68.30729ZM87.0 62.791664Q87.0 63.99479 87.5 64.58854Q88.015625 65.18229 88.71875 65.18229Q89.390625 65.18229 89.875 64.61979Q90.359375 64.041664 90.359375 62.885414Q90.359375 61.635414 89.84375 61.010414Q89.34375 60.385414 88.640625 60.385414Q87.96875 60.385414 87.484375 60.979164Q87.0 61.55729 87.0 62.791664ZM97.375 65.916664L97.375 64.99479Q96.640625 66.05729 95.390625 66.05729Q94.84375 66.05729 94.359375 65.854164Q93.890625 65.635414 93.65625 65.322914Q93.421875 64.99479 93.328125 64.52604Q93.265625 64.229164 93.265625 63.541664L93.265625 59.697914L94.328125 59.697914L94.328125 63.15104Q94.328125 63.96354 94.390625 64.260414Q94.484375 64.666664 94.796875 64.916664Q95.125 65.15104 95.609375 65.15104Q96.078125 65.15104 96.484375 64.916664Q96.90625 64.666664 97.078125 64.24479Q97.265625 63.822914 97.265625 63.02604L97.265625 59.697914L98.3125 59.697914L98.3125 65.916664L97.375 65.916664ZM104.546875 63.916664L105.640625 64.041664Q105.390625 64.99479 104.6875 65.52604Q103.984375 66.05729 102.90625 66.05729Q101.546875 66.05729 100.734375 65.21354Q99.9375 64.36979 99.9375 62.854164Q99.9375 61.291664 100.75 60.43229Q101.5625 59.55729 102.84375 59.55729Q104.09375 59.55729 104.875 60.40104Q105.671875 61.24479 105.671875 62.791664Q105.671875 62.885414 105.671875 63.072914L101.03125 63.072914Q101.09375 64.104164 101.609375 64.65104Q102.125 65.18229 102.90625 65.18229Q103.484375 65.18229 103.890625 64.885414Q104.3125 64.572914 104.546875 63.916664ZM101.09375 62.21354L104.5625 62.21354Q104.5 61.416664 104.171875 61.02604Q103.65625 60.416664 102.859375 60.416664Q102.125 60.416664 101.625 60.90104Q101.140625 61.385414 101.09375 62.21354ZM107.296875 65.916664L107.296875 59.697914L108.234375 59.697914L108.234375 60.572914Q108.921875 59.55729 110.21875 59.55729Q110.78125 59.55729 111.25 59.760414Q111.734375 59.96354 111.96875 60.291664Q112.203125 60.61979 112.296875 61.05729Q112.34375 61.354164 112.34375 62.08854L112.34375 65.916664L111.296875 65.916664L111.296875 62.135414Q111.296875 61.479164 111.171875 61.166664Q111.046875 60.854164 110.734375 60.666664Q110.421875 60.46354 110.0 60.46354Q109.328125 60.46354 108.828125 60.90104Q108.34375 61.322914 108.34375 62.510414L108.34375 65.916664L107.296875 65.916664ZM116.59375 64.979164L116.75 65.90104Q116.296875 65.99479 115.953125 65.99479Q115.375 65.99479 115.0625 65.822914Q114.75 65.635414 114.609375 65.33854Q114.484375 65.041664 114.484375 64.08854L114.484375 60.510414L113.71875 60.510414L113.71875 59.697914L114.484375 59.697914L114.484375 58.15104L115.53125 57.52604L115.53125 59.697914L116.59375 59.697914L116.59375 60.510414L115.53125 60.510414L115.53125 64.15104Q115.53125 64.604164 115.578125 64.729164Q115.640625 64.854164 115.765625 64.93229Q115.890625 65.010414 116.125 65.010414Q116.3125 65.010414 116.59375 64.979164ZM117.296875 58.541664L117.296875 57.322914L118.359375 57.322914L118.359375 58.541664L117.296875 58.541664ZM117.296875 65.916664L117.296875 59.697914L118.359375 59.697914L118.359375 65.916664L117.296875 65.916664ZM124.359375 65.15104Q123.765625 65.65104 123.21875 65.854164Q122.6875 66.05729 122.0625 66.05729Q121.03125 66.05729 120.484375 65.55729Q119.9375 65.05729 119.9375 64.27604Q119.9375 63.822914 120.140625 63.447914Q120.34375 63.05729 120.6875 62.83854Q121.03125 62.604164 121.453125 62.49479Q121.75 62.40104 122.390625 62.322914Q123.65625 62.18229 124.265625 61.96354Q124.265625 61.74479 124.265625 61.697914Q124.265625 61.041664 123.96875 60.77604Q123.5625 60.43229 122.765625 60.43229Q122.03125 60.43229 121.671875 60.697914Q121.3125 60.947914 121.140625 61.604164L120.109375 61.46354Q120.25 60.80729 120.578125 60.40104Q120.90625 59.99479 121.515625 59.77604Q122.125 59.55729 122.921875 59.55729Q123.71875 59.55729 124.21875 59.74479Q124.71875 59.93229 124.953125 60.21354Q125.1875 60.49479 125.28125 60.93229Q125.328125 61.197914 125.328125 61.90104L125.328125 63.30729Q125.328125 64.77604 125.390625 65.166664Q125.46875 65.55729 125.671875 65.916664L124.5625 65.916664Q124.40625 65.58854 124.359375 65.15104ZM124.265625 62.791664Q123.6875 63.02604 122.546875 63.197914Q121.890625 63.291664 121.625 63.416664Q121.359375 63.52604 121.203125 63.74479Q121.0625 63.96354 121.0625 64.24479Q121.0625 64.666664 121.375 64.947914Q121.703125 65.229164 122.3125 65.229164Q122.921875 65.229164 123.390625 64.96354Q123.875 64.697914 124.09375 64.229164Q124.265625 63.86979 124.265625 63.18229L124.265625 62.791664ZM127.265625 65.916664L127.265625 57.322914L128.32812 57.322914L128.32812 65.916664L127.265625 65.916664Z" fill-rule="nonzero"/><path fill="#ea4335" d="M145.5 56.916668C145.5 56.364384 145.94771 55.916668 146.5 55.916668L156.5 55.916668C157.05229 55.916668 157.5 56.364384 157.5 56.916668L157.5 66.916664C157.5 67.46895 157.05229 67.916664 156.5 67.916664L146.5 67.916664C145.94771 67.916664 145.5 67.46895 145.5 66.916664Z" fill-rule="nonzero"/><path fill="#1a1a1a" d="M166.07812 61.729164Q166.07812 59.58854 167.21875 58.385414Q168.375 57.166664 170.1875 57.166664Q171.39062 57.166664 172.34375 57.74479Q173.29688 58.30729 173.79688 59.322914Q174.29688 60.33854 174.29688 61.635414Q174.29688 62.93229 173.76562 63.96354Q173.23438 64.99479 172.26562 65.52604Q171.3125 66.05729 170.1875 66.05729Q168.96875 66.05729 168.01562 65.479164Q167.0625 64.885414 166.5625 63.885414Q166.07812 62.86979 166.07812 61.729164ZM167.25 61.74479Q167.25 63.30729 168.07812 64.197914Q168.92188 65.08854 170.1875 65.08854Q171.46875 65.08854 172.29688 64.197914Q173.125 63.291664 173.125 61.61979Q173.125 60.572914 172.76562 59.791664Q172.42188 59.010414 171.73438 58.58854Q171.04688 58.15104 170.20312 58.15104Q169.0 58.15104 168.125 58.979164Q167.25 59.80729 167.25 61.74479ZM175.29688 68.30729L175.29688 59.697914L176.25 59.697914L176.25 60.49479Q176.59375 60.02604 177.01562 59.791664Q177.45312 59.55729 178.0625 59.55729Q178.85938 59.55729 179.46875 59.96354Q180.07812 60.36979 180.375 61.11979Q180.6875 61.86979 180.6875 62.760414Q180.6875 63.71354 180.34375 64.479164Q180.01562 65.24479 179.35938 65.65104Q178.70312 66.05729 177.98438 66.05729Q177.45312 66.05729 177.03125 65.83854Q176.60938 65.604164 176.34375 65.27604L176.34375 68.30729L175.29688 68.30729ZM176.25 62.83854Q176.25 64.041664 176.73438 64.61979Q177.21875 65.18229 177.90625 65.18229Q178.60938 65.18229 179.10938 64.58854Q179.60938 63.99479 179.60938 62.74479Q179.60938 61.55729 179.125 60.979164Q178.64062 60.385414 177.95312 60.385414Q177.28125 60.385414 176.76562 61.010414Q176.25 61.635414 176.25 62.83854ZM186.54688 63.916664L187.64062 64.041664Q187.39062 64.99479 186.6875 65.52604Q185.98438 66.05729 184.90625 66.05729Q183.54688 66.05729 182.73438 65.21354Q181.9375 64.36979 181.9375 62.854164Q181.9375 61.291664 182.75 60.43229Q183.5625 59.55729 184.84375 59.55729Q186.09375 59.55729 186.875 60.40104Q187.67188 61.24479 187.67188 62.791664Q187.67188 62.885414 187.67188 63.072914L183.03125 63.072914Q183.09375 64.104164 183.60938 64.65104Q184.125 65.18229 184.90625 65.18229Q185.48438 65.18229 185.89062 64.885414Q186.3125 64.572914 186.54688 63.916664ZM183.09375 62.21354L186.5625 62.21354Q186.5 61.416664 186.17188 61.02604Q185.65625 60.416664 184.85938 60.416664Q184.125 60.416664 183.625 60.90104Q183.14062 61.385414 183.09375 62.21354ZM189.29688 65.916664L189.29688 59.697914L190.23438 59.697914L190.23438 60.572914Q190.92188 59.55729 192.21875 59.55729Q192.78125 59.55729 193.25 59.760414Q193.73438 59.96354 193.96875 60.291664Q194.20312 60.61979 194.29688 61.05729Q194.34375 61.354164 194.34375 62.08854L194.34375 65.916664L193.29688 65.916664L193.29688 62.135414Q193.29688 61.479164 193.17188 61.166664Q193.04688 60.854164 192.73438 60.666664Q192.42188 60.46354 192.0 60.46354Q191.32812 60.46354 190.82812 60.90104Q190.34375 61.322914 190.34375 62.510414L190.34375 65.916664L189.29688 65.916664ZM196.39062 65.916664L196.39062 57.322914L198.10938 57.322914L200.14062 63.40104Q200.42188 64.260414 200.54688 64.68229Q200.6875 64.21354 201.0 63.30729L203.0625 57.322914L204.59375 57.322914L204.59375 65.916664L203.5 65.916664L203.5 58.729164L201.0 65.916664L199.96875 65.916664L197.48438 58.604164L197.48438 65.916664L196.39062 65.916664ZM206.42188 65.916664L206.42188 57.322914L209.67188 57.322914Q210.51562 57.322914 210.96875 57.40104Q211.60938 57.510414 212.03125 57.80729Q212.46875 58.104164 212.71875 58.635414Q212.98438 59.166664 212.98438 59.80729Q212.98438 60.90104 212.28125 61.666664Q211.59375 62.416664 209.76562 62.416664L207.5625 62.416664L207.5625 65.916664L206.42188 65.916664ZM207.5625 61.416664L209.78125 61.416664Q210.89062 61.416664 211.34375 61.010414Q211.8125 60.58854 211.8125 59.83854Q211.8125 59.30729 211.53125 58.93229Q211.26562 58.541664 210.82812 58.416664Q210.53125 58.33854 209.76562 58.33854L207.5625 58.33854L207.5625 61.416664ZM220.96875 65.916664L219.92188 65.916664L219.92188 59.197914Q219.53125 59.55729 218.90625 59.93229Q218.29688 60.291664 217.8125 60.46354L217.8125 59.447914Q218.6875 59.02604 219.34375 58.447914Q220.01562 57.854164 220.29688 57.291664L220.96875 57.291664L220.96875 65.916664ZM229.60938 65.916664L229.60938 58.33854L226.78125 58.33854L226.78125 57.322914L233.59375 57.322914L233.59375 58.33854L230.75 58.33854L230.75 65.916664L229.60938 65.916664ZM234.29688 65.916664L234.29688 57.322914L235.34375 57.322914L235.34375 60.40104Q236.07812 59.55729 237.20312 59.55729Q237.90625 59.55729 238.40625 59.83854Q238.92188 60.104164 239.14062 60.58854Q239.35938 61.05729 239.35938 61.979164L239.35938 65.916664L238.3125 65.916664L238.3125 61.979164Q238.3125 61.18229 237.96875 60.822914Q237.625 60.46354 237.0 60.46354Q236.53125 60.46354 236.10938 60.71354Q235.70312 60.947914 235.51562 61.36979Q235.34375 61.77604 235.34375 62.510414L235.34375 65.916664L234.29688 65.916664ZM241.28125 65.916664L241.28125 59.697914L242.23438 59.697914L242.23438 60.635414Q242.59375 59.979164 242.89062 59.77604Q243.20312 59.55729 243.57812 59.55729Q244.10938 59.55729 244.65625 59.885414L244.29688 60.86979Q243.90625 60.635414 243.53125 60.635414Q243.17188 60.635414 242.89062 60.854164Q242.625 61.05729 242.51562 61.43229Q242.32812 61.99479 242.32812 62.65104L242.32812 65.916664L241.28125 65.916664ZM249.54688 63.916664L250.64062 64.041664Q250.39062 64.99479 249.6875 65.52604Q248.98438 66.05729 247.90625 66.05729Q246.54688 66.05729 245.73438 65.21354Q244.9375 64.36979 244.9375 62.854164Q244.9375 61.291664 245.75 60.43229Q246.5625 59.55729 247.84375 59.55729Q249.09375 59.55729 249.875 60.40104Q250.67188 61.24479 250.67188 62.791664Q250.67188 62.885414 250.67188 63.072914L246.03125 63.072914Q246.09375 64.104164 246.60938 64.65104Q247.125 65.18229 247.90625 65.18229Q248.48438 65.18229 248.89062 64.885414Q249.3125 64.572914 249.54688 63.916664ZM246.09375 62.21354L249.5625 62.21354Q249.5 61.416664 249.17188 61.02604Q248.65625 60.416664 247.85938 60.416664Q247.125 60.416664 246.625 60.90104Q246.14062 61.385414 246.09375 62.21354ZM256.35938 65.15104Q255.76562 65.65104 255.21875 65.854164Q254.6875 66.05729 254.0625 66.05729Q253.03125 66.05729 252.48438 65.55729Q251.9375 65.05729 251.9375 64.27604Q251.9375 63.822914 252.14062 63.447914Q252.34375 63.05729 252.6875 62.83854Q253.03125 62.604164 253.45312 62.49479Q253.75 62.40104 254.39062 62.322914Q255.65625 62.18229 256.26562 61.96354Q256.26562 61.74479 256.26562 61.697914Q256.26562 61.041664 255.96875 60.77604Q255.5625 60.43229 254.76562 60.43229Q254.03125 60.43229 253.67188 60.697914Q253.3125 60.947914 253.14062 61.604164L252.10938 61.46354Q252.25 60.80729 252.57812 60.40104Q252.90625 59.99479 253.51562 59.77604Q254.125 59.55729 254.92188 59.55729Q255.71875 59.55729 256.21875 59.74479Q256.71875 59.93229 256.95312 60.21354Q257.1875 60.49479 257.28125 60.93229Q257.32812 61.197914 257.32812 61.90104L257.32812 63.30729Q257.32812 64.77604 257.39062 65.166664Q257.46875 65.55729 257.67188 65.916664L256.5625 65.916664Q256.40625 65.58854 256.35938 65.15104ZM256.26562 62.791664Q255.6875 63.02604 254.54688 63.197914Q253.89062 63.291664 253.625 63.416664Q253.35938 63.52604 253.20312 63.74479Q253.0625 63.96354 253.0625 64.24479Q253.0625 64.666664 253.375 64.947914Q253.70312 65.229164 254.3125 65.229164Q254.92188 65.229164 255.39062 64.96354Q255.875 64.697914 256.09375 64.229164Q256.26562 63.86979 256.26562 63.18229L256.26562 62.791664ZM263.32812 65.916664L263.32812 65.135414Q262.73438 66.05729 261.59375 66.05729Q260.84375 66.05729 260.21875 65.65104Q259.59375 65.229164 259.25 64.49479Q258.90625 63.760414 258.90625 62.80729Q258.90625 61.885414 259.21875 61.11979Q259.53125 60.354164 260.15625 59.96354Q260.78125 59.55729 261.54688 59.55729Q262.10938 59.55729 262.54688 59.791664Q262.98438 60.02604 263.26562 60.40104L263.26562 57.322914L264.3125 57.322914L264.3125 65.916664L263.32812 65.916664ZM260.0 62.80729Q260.0 64.010414 260.5 64.604164Q261.0 65.18229 261.6875 65.18229Q262.375 65.18229 262.85938 64.61979Q263.34375 64.05729 263.34375 62.90104Q263.34375 61.61979 262.84375 61.02604Q262.35938 60.43229 261.64062 60.43229Q260.9375 60.43229 260.46875 61.010414Q260.0 61.572914 260.0 62.80729Z" fill-rule="nonzero"/><path fill="#fbbc04" d="M281.5 56.916668C281.5 56.364384 281.94772 55.916668 282.5 55.916668L292.5 55.916668C293.05228 55.916668 293.5 56.364384 293.5 56.916668L293.5 66.916664C293.5 67.46895 293.05228 67.916664 292.5 67.916664L282.5 67.916664C281.94772 67.916664 281.5 67.46895 281.5 66.916664Z" fill-rule="nonzero"/><path fill="#1a1a1a" d="M302.07812 61.729164Q302.07812 59.58854 303.21875 58.385414Q304.375 57.166664 306.1875 57.166664Q307.39062 57.166664 308.34375 57.74479Q309.29688 58.30729 309.79688 59.322914Q310.29688 60.33854 310.29688 61.635414Q310.29688 62.93229 309.76562 63.96354Q309.23438 64.99479 308.26562 65.52604Q307.3125 66.05729 306.1875 66.05729Q304.96875 66.05729 304.01562 65.479164Q303.0625 64.885414 302.5625 63.885414Q302.07812 62.86979 302.07812 61.729164ZM303.25 61.74479Q303.25 63.30729 304.07812 64.197914Q304.92188 65.08854 306.1875 65.08854Q307.46875 65.08854 308.29688 64.197914Q309.125 63.291664 309.125 61.61979Q309.125 60.572914 308.76562 59.791664Q308.42188 59.010414 307.73438 58.58854Q307.04688 58.15104 306.20312 58.15104Q305.0 58.15104 304.125 58.979164Q303.25 59.80729 303.25 61.74479ZM311.29688 68.30729L311.29688 59.697914L312.25 59.697914L312.25 60.49479Q312.59375 60.02604 313.01562 59.791664Q313.45312 59.55729 314.0625 59.55729Q314.85938 59.55729 315.46875 59.96354Q316.07812 60.36979 316.375 61.11979Q316.6875 61.86979 316.6875 62.760414Q316.6875 63.71354 316.34375 64.479164Q316.01562 65.24479 315.35938 65.65104Q314.70312 66.05729 313.98438 66.05729Q313.45312 66.05729 313.03125 65.83854Q312.60938 65.604164 312.34375 65.27604L312.34375 68.30729L311.29688 68.30729ZM312.25 62.83854Q312.25 64.041664 312.73438 64.61979Q313.21875 65.18229 313.90625 65.18229Q314.60938 65.18229 315.10938 64.58854Q315.60938 63.99479 315.60938 62.74479Q315.60938 61.55729 315.125 60.979164Q314.64062 60.385414 313.95312 60.385414Q313.28125 60.385414 312.76562 61.010414Q312.25 61.635414 312.25 62.83854ZM322.54688 63.916664L323.64062 64.041664Q323.39062 64.99479 322.6875 65.52604Q321.98438 66.05729 320.90625 66.05729Q319.54688 66.05729 318.73438 65.21354Q317.9375 64.36979 317.9375 62.854164Q317.9375 61.291664 318.75 60.43229Q319.5625 59.55729 320.84375 59.55729Q322.09375 59.55729 322.875 60.40104Q323.67188 61.24479 323.67188 62.791664Q323.67188 62.885414 323.67188 63.072914L319.03125 63.072914Q319.09375 64.104164 319.60938 64.65104Q320.125 65.18229 320.90625 65.18229Q321.48438 65.18229 321.89062 64.885414Q322.3125 64.572914 322.54688 63.916664ZM319.09375 62.21354L322.5625 62.21354Q322.5 61.416664 322.17188 61.02604Q321.65625 60.416664 320.85938 60.416664Q320.125 60.416664 319.625 60.90104Q319.14062 61.385414 319.09375 62.21354ZM325.29688 65.916664L325.29688 59.697914L326.23438 59.697914L326.23438 60.572914Q326.92188 59.55729 328.21875 59.55729Q328.78125 59.55729 329.25 59.760414Q329.73438 59.96354 329.96875 60.291664Q330.20312 60.61979 330.29688 61.05729Q330.34375 61.354164 330.34375 62.08854L330.34375 65.916664L329.29688 65.916664L329.29688 62.135414Q329.29688 61.479164 329.17188 61.166664Q329.04688 60.854164 328.73438 60.666664Q328.42188 60.46354 328.0 60.46354Q327.32812 60.46354 326.82812 60.90104Q326.34375 61.322914 326.34375 62.510414L326.34375 65.916664L325.29688 65.916664ZM332.39062 65.916664L332.39062 57.322914L334.10938 57.322914L336.14062 63.40104Q336.42188 64.260414 336.54688 64.68229Q336.6875 64.21354 337.0 63.30729L339.0625 57.322914L340.59375 57.322914L340.59375 65.916664L339.5 65.916664L339.5 58.729164L337.0 65.916664L335.96875 65.916664L333.48438 58.604164L333.48438 65.916664L332.39062 65.916664ZM342.42188 65.916664L342.42188 57.322914L345.67188 57.322914Q346.51562 57.322914 346.96875 57.40104Q347.60938 57.510414 348.03125 57.80729Q348.46875 58.104164 348.71875 58.635414Q348.98438 59.166664 348.98438 59.80729Q348.98438 60.90104 348.28125 61.666664Q347.59375 62.416664 345.76562 62.416664L343.5625 62.416664L343.5625 65.916664L342.42188 65.916664ZM343.5625 61.416664L345.78125 61.416664Q346.89062 61.416664 347.34375 61.010414Q347.8125 60.58854 347.8125 59.83854Q347.8125 59.30729 347.53125 58.93229Q347.26562 58.541664 346.82812 58.416664Q346.53125 58.33854 345.76562 58.33854L343.5625 58.33854L343.5625 61.416664ZM358.54688 64.90104L358.54688 65.916664L352.85938 65.916664Q352.85938 65.541664 352.98438 65.18229Q353.20312 64.604164 353.67188 64.041664Q354.15625 63.479164 355.0625 62.74479Q356.46875 61.58854 356.95312 60.916664Q357.45312 60.24479 357.45312 59.65104Q357.45312 59.02604 357.0 58.604164Q356.54688 58.166664 355.82812 58.166664Q355.0625 58.166664 354.60938 58.61979Q354.15625 59.072914 354.14062 59.885414L353.0625 59.77604Q353.17188 58.55729 353.89062 57.93229Q354.625 57.291664 355.85938 57.291664Q357.09375 57.291664 357.8125 57.979164Q358.53125 58.666664 358.53125 59.68229Q358.53125 60.197914 358.3125 60.697914Q358.10938 61.18229 357.60938 61.74479Q357.125 62.291664 356.0 63.24479Q355.04688 64.041664 354.76562 64.33854Q354.5 64.61979 354.32812 64.90104L358.54688 64.90104ZM365.60938 65.916664L365.60938 58.33854L362.78125 58.33854L362.78125 57.322914L369.59375 57.322914L369.59375 58.33854L366.75 58.33854L366.75 65.916664L365.60938 65.916664ZM370.29688 65.916664L370.29688 57.322914L371.34375 57.322914L371.34375 60.40104Q372.07812 59.55729 373.20312 59.55729Q373.90625 59.55729 374.40625 59.83854Q374.92188 60.104164 375.14062 60.58854Q375.35938 61.05729 375.35938 61.979164L375.35938 65.916664L374.3125 65.916664L374.3125 61.979164Q374.3125 61.18229 373.96875 60.822914Q373.625 60.46354 373.0 60.46354Q372.53125 60.46354 372.10938 60.71354Q371.70312 60.947914 371.51562 61.36979Q371.34375 61.77604 371.34375 62.510414L371.34375 65.916664L370.29688 65.916664ZM377.28125 65.916664L377.28125 59.697914L378.23438 59.697914L378.23438 60.635414Q378.59375 59.979164 378.89062 59.77604Q379.20312 59.55729 379.57812 59.55729Q380.10938 59.55729 380.65625 59.885414L380.29688 60.86979Q379.90625 60.635414 379.53125 60.635414Q379.17188 60.635414 378.89062 60.854164Q378.625 61.05729 378.51562 61.43229Q378.32812 61.99479 378.32812 62.65104L378.32812 65.916664L377.28125 65.916664ZM385.54688 63.916664L386.64062 64.041664Q386.39062 64.99479 385.6875 65.52604Q384.98438 66.05729 383.90625 66.05729Q382.54688 66.05729 381.73438 65.21354Q380.9375 64.36979 380.9375 62.854164Q380.9375 61.291664 381.75 60.43229Q382.5625 59.55729 383.84375 59.55729Q385.09375 59.55729 385.875 60.40104Q386.67188 61.24479 386.67188 62.791664Q386.67188 62.885414 386.67188 63.072914L382.03125 63.072914Q382.09375 64.104164 382.60938 64.65104Q383.125 65.18229 383.90625 65.18229Q384.48438 65.18229 384.89062 64.885414Q385.3125 64.572914 385.54688 63.916664ZM382.09375 62.21354L385.5625 62.21354Q385.5 61.416664 385.17188 61.02604Q384.65625 60.416664 383.85938 60.416664Q383.125 60.416664 382.625 60.90104Q382.14062 61.385414 382.09375 62.21354ZM392.35938 65.15104Q391.76562 65.65104 391.21875 65.854164Q390.6875 66.05729 390.0625 66.05729Q389.03125 66.05729 388.48438 65.55729Q387.9375 65.05729 387.9375 64.27604Q387.9375 63.822914 388.14062 63.447914Q388.34375 63.05729 388.6875 62.83854Q389.03125 62.604164 389.45312 62.49479Q389.75 62.40104 390.39062 62.322914Q391.65625 62.18229 392.26562 61.96354Q392.26562 61.74479 392.26562 61.697914Q392.26562 61.041664 391.96875 60.77604Q391.5625 60.43229 390.76562 60.43229Q390.03125 60.43229 389.67188 60.697914Q389.3125 60.947914 389.14062 61.604164L388.10938 61.46354Q388.25 60.80729 388.57812 60.40104Q388.90625 59.99479 389.51562 59.77604Q390.125 59.55729 390.92188 59.55729Q391.71875 59.55729 392.21875 59.74479Q392.71875 59.93229 392.95312 60.21354Q393.1875 60.49479 393.28125 60.93229Q393.32812 61.197914 393.32812 61.90104L393.32812 63.30729Q393.32812 64.77604 393.39062 65.166664Q393.46875 65.55729 393.67188 65.916664L392.5625 65.916664Q392.40625 65.58854 392.35938 65.15104ZM392.26562 62.791664Q391.6875 63.02604 390.54688 63.197914Q389.89062 63.291664 389.625 63.416664Q389.35938 63.52604 389.20312 63.74479Q389.0625 63.96354 389.0625 64.24479Q389.0625 64.666664 389.375 64.947914Q389.70312 65.229164 390.3125 65.229164Q390.92188 65.229164 391.39062 64.96354Q391.875 64.697914 392.09375 64.229164Q392.26562 63.86979 392.26562 63.18229L392.26562 62.791664ZM399.32812 65.916664L399.32812 65.135414Q398.73438 66.05729 397.59375 66.05729Q396.84375 66.05729 396.21875 65.65104Q395.59375 65.229164 395.25 64.49479Q394.90625 63.760414 394.90625 62.80729Q394.90625 61.885414 395.21875 61.11979Q395.53125 60.354164 396.15625 59.96354Q396.78125 59.55729 397.54688 59.55729Q398.10938 59.55729 398.54688 59.791664Q398.98438 60.02604 399.26562 60.40104L399.26562 57.322914L400.3125 57.322914L400.3125 65.916664L399.32812 65.916664ZM396.0 62.80729Q396.0 64.010414 396.5 64.604164Q397.0 65.18229 397.6875 65.18229Q398.375 65.18229 398.85938 64.61979Q399.34375 64.05729 399.34375 62.90104Q399.34375 61.61979 398.84375 61.02604Q398.35938 60.43229 397.64062 60.43229Q396.9375 60.43229 396.46875 61.010414Q396.0 61.572914 396.0 62.80729ZM401.875 64.05729L402.90625 63.90104Q403.0 64.52604 403.39062 64.854164Q403.79688 65.18229 404.53125 65.18229Q405.25 65.18229 405.59375 64.90104Q405.95312 64.604164 405.95312 64.197914Q405.95312 63.83854 405.64062 63.635414Q405.42188 63.49479 404.5625 63.27604Q403.40625 62.979164 402.95312 62.77604Q402.51562 62.55729 402.28125 62.18229Q402.04688 61.80729 402.04688 61.33854Q402.04688 60.93229 402.23438 60.572914Q402.42188 60.21354 402.75 59.979164Q403.0 59.80729 403.42188 59.68229Q403.84375 59.55729 404.34375 59.55729Q405.0625 59.55729 405.60938 59.77604Q406.17188 59.979164 406.4375 60.33854Q406.70312 60.697914 406.79688 61.291664L405.76562 61.43229Q405.70312 60.96354 405.35938 60.697914Q405.03125 60.416664 404.40625 60.416664Q403.6875 60.416664 403.375 60.666664Q403.0625 60.90104 403.0625 61.229164Q403.0625 61.43229 403.1875 61.58854Q403.32812 61.760414 403.59375 61.86979Q403.75 61.93229 404.53125 62.135414Q405.65625 62.447914 406.09375 62.635414Q406.53125 62.822914 406.78125 63.18229Q407.03125 63.541664 407.03125 64.08854Q407.03125 64.61979 406.71875 65.08854Q406.42188 65.541664 405.84375 65.80729Q405.26562 66.05729 404.53125 66.05729Q403.3125 66.05729 402.67188 65.55729Q402.04688 65.041664 401.875 64.05729Z" fill-rule="nonzero"/><path fill="#34a853" d="M423.5 56.916668C423.5 56.364384 423.94772 55.916668 424.5 55.916668L434.5 55.916668C435.05228 55.916668 435.5 56.364384 435.5 56.916668L435.5 66.916664C435.5 67.46895 435.05228 67.916664 434.5 67.916664L424.5 67.916664C423.94772 67.916664 423.5 67.46895 423.5 66.916664Z" fill-rule="nonzero"/><path fill="#1a1a1a" d="M444.07812 61.729164Q444.07812 59.58854 445.21875 58.385414Q446.375 57.166664 448.1875 57.166664Q449.39062 57.166664 450.34375 57.74479Q451.29688 58.30729 451.79688 59.322914Q452.29688 60.33854 452.29688 61.635414Q452.29688 62.93229 451.76562 63.96354Q451.23438 64.99479 450.26562 65.52604Q449.3125 66.05729 448.1875 66.05729Q446.96875 66.05729 446.01562 65.479164Q445.0625 64.885414 444.5625 63.885414Q444.07812 62.86979 444.07812 61.729164ZM445.25 61.74479Q445.25 63.30729 446.07812 64.197914Q446.92188 65.08854 448.1875 65.08854Q449.46875 65.08854 450.29688 64.197914Q451.125 63.291664 451.125 61.61979Q451.125 60.572914 450.76562 59.791664Q450.42188 59.010414 449.73438 58.58854Q449.04688 58.15104 448.20312 58.15104Q447.0 58.15104 446.125 58.979164Q445.25 59.80729 445.25 61.74479ZM453.29688 68.30729L453.29688 59.697914L454.25 59.697914L454.25 60.49479Q454.59375 60.02604 455.01562 59.791664Q455.45312 59.55729 456.0625 59.55729Q456.85938 59.55729 457.46875 59.96354Q458.07812 60.36979 458.375 61.11979Q458.6875 61.86979 458.6875 62.760414Q458.6875 63.71354 458.34375 64.479164Q458.01562 65.24479 457.35938 65.65104Q456.70312 66.05729 455.98438 66.05729Q455.45312 66.05729 455.03125 65.83854Q454.60938 65.604164 454.34375 65.27604L454.34375 68.30729L453.29688 68.30729ZM454.25 62.83854Q454.25 64.041664 454.73438 64.61979Q455.21875 65.18229 455.90625 65.18229Q456.60938 65.18229 457.10938 64.58854Q457.60938 63.99479 457.60938 62.74479Q457.60938 61.55729 457.125 60.979164Q456.64062 60.385414 455.95312 60.385414Q455.28125 60.385414 454.76562 61.010414Q454.25 61.635414 454.25 62.83854ZM464.54688 63.916664L465.64062 64.041664Q465.39062 64.99479 464.6875 65.52604Q463.98438 66.05729 462.90625 66.05729Q461.54688 66.05729 460.73438 65.21354Q459.9375 64.36979 459.9375 62.854164Q459.9375 61.291664 460.75 60.43229Q461.5625 59.55729 462.84375 59.55729Q464.09375 59.55729 464.875 60.40104Q465.67188 61.24479 465.67188 62.791664Q465.67188 62.885414 465.67188 63.072914L461.03125 63.072914Q461.09375 64.104164 461.60938 64.65104Q462.125 65.18229 462.90625 65.18229Q463.48438 65.18229 463.89062 64.885414Q464.3125 64.572914 464.54688 63.916664ZM461.09375 62.21354L464.5625 62.21354Q464.5 61.416664 464.17188 61.02604Q463.65625 60.416664 462.85938 60.416664Q462.125 60.416664 461.625 60.90104Q461.14062 61.385414 461.09375 62.21354ZM467.29688 65.916664L467.29688 59.697914L468.23438 59.697914L468.23438 60.572914Q468.92188 59.55729 470.21875 59.55729Q470.78125 59.55729 471.25 59.760414Q471.73438 59.96354 471.96875 60.291664Q472.20312 60.61979 472.29688 61.05729Q472.34375 61.354164 472.34375 62.08854L472.34375 65.916664L471.29688 65.916664L471.29688 62.135414Q471.29688 61.479164 471.17188 61.166664Q471.04688 60.854164 470.73438 60.666664Q470.42188 60.46354 470.0 60.46354Q469.32812 60.46354 468.82812 60.90104Q468.34375 61.322914 468.34375 62.510414L468.34375 65.916664L467.29688 65.916664ZM474.39062 65.916664L474.39062 57.322914L476.10938 57.322914L478.14062 63.40104Q478.42188 64.260414 478.54688 64.68229Q478.6875 64.21354 479.0 63.30729L481.0625 57.322914L482.59375 57.322914L482.59375 65.916664L481.5 65.916664L481.5 58.729164L479.0 65.916664L477.96875 65.916664L475.48438 58.604164L475.48438 65.916664L474.39062 65.916664ZM484.42188 65.916664L484.42188 57.322914L487.67188 57.322914Q488.51562 57.322914 488.96875 57.40104Q489.60938 57.510414 490.03125 57.80729Q490.46875 58.104164 490.71875 58.635414Q490.98438 59.166664 490.98438 59.80729Q490.98438 60.90104 490.28125 61.666664Q489.59375 62.416664 487.76562 62.416664L485.5625 62.416664L485.5625 65.916664L484.42188 65.916664ZM485.5625 61.416664L487.78125 61.416664Q488.89062 61.416664 489.34375 61.010414Q489.8125 60.58854 489.8125 59.83854Q489.8125 59.30729 489.53125 58.93229Q489.26562 58.541664 488.82812 58.416664Q488.53125 58.33854 487.76562 58.33854L485.5625 58.33854L485.5625 61.416664ZM498.375 65.916664L498.375 63.854164L494.65625 63.854164L494.65625 62.885414L498.57812 57.322914L499.4375 57.322914L499.4375 62.885414L500.59375 62.885414L500.59375 63.854164L499.4375 63.854164L499.4375 65.916664L498.375 65.916664ZM498.375 62.885414L498.375 59.02604L495.6875 62.885414L498.375 62.885414ZM507.60938 65.916664L507.60938 58.33854L504.78125 58.33854L504.78125 57.322914L511.59375 57.322914L511.59375 58.33854L508.75 58.33854L508.75 65.916664L507.60938 65.916664ZM512.2969 65.916664L512.2969 57.322914L513.34375 57.322914L513.34375 60.40104Q514.0781 59.55729 515.2031 59.55729Q515.90625 59.55729 516.40625 59.83854Q516.9219 60.104164 517.1406 60.58854Q517.3594 61.05729 517.3594 61.979164L517.3594 65.916664L516.3125 65.916664L516.3125 61.979164Q516.3125 61.18229 515.96875 60.822914Q515.625 60.46354 515.0 60.46354Q514.53125 60.46354 514.1094 60.71354Q513.7031 60.947914 513.5156 61.36979Q513.34375 61.77604 513.34375 62.510414L513.34375 65.916664L512.2969 65.916664ZM519.28125 65.916664L519.28125 59.697914L520.2344 59.697914L520.2344 60.635414Q520.59375 59.979164 520.8906 59.77604Q521.2031 59.55729 521.5781 59.55729Q522.1094 59.55729 522.65625 59.885414L522.2969 60.86979Q521.90625 60.635414 521.53125 60.635414Q521.1719 60.635414 520.8906 60.854164Q520.625 61.05729 520.5156 61.43229Q520.3281 61.99479 520.3281 62.65104L520.3281 65.916664L519.28125 65.916664ZM527.5469 63.916664L528.6406 64.041664Q528.3906 64.99479 527.6875 65.52604Q526.9844 66.05729 525.90625 66.05729Q524.5469 66.05729 523.7344 65.21354Q522.9375 64.36979 522.9375 62.854164Q522.9375 61.291664 523.75 60.43229Q524.5625 59.55729 525.84375 59.55729Q527.09375 59.55729 527.875 60.40104Q528.6719 61.24479 528.6719 62.791664Q528.6719 62.885414 528.6719 63.072914L524.03125 63.072914Q524.09375 64.104164 524.6094 64.65104Q525.125 65.18229 525.90625 65.18229Q526.4844 65.18229 526.8906 64.885414Q527.3125 64.572914 527.5469 63.916664ZM524.09375 62.21354L527.5625 62.21354Q527.5 61.416664 527.1719 61.02604Q526.65625 60.416664 525.8594 60.416664Q525.125 60.416664 524.625 60.90104Q524.1406 61.385414 524.09375 62.21354ZM534.3594 65.15104Q533.7656 65.65104 533.21875 65.854164Q532.6875 66.05729 532.0625 66.05729Q531.03125 66.05729 530.4844 65.55729Q529.9375 65.05729 529.9375 64.27604Q529.9375 63.822914 530.1406 63.447914Q530.34375 63.05729 530.6875 62.83854Q531.03125 62.604164 531.4531 62.49479Q531.75 62.40104 532.3906 62.322914Q533.65625 62.18229 534.2656 61.96354Q534.2656 61.74479 534.2656 61.697914Q534.2656 61.041664 533.96875 60.77604Q533.5625 60.43229 532.7656 60.43229Q532.03125 60.43229 531.6719 60.697914Q531.3125 60.947914 531.1406 61.604164L530.1094 61.46354Q530.25 60.80729 530.5781 60.40104Q530.90625 59.99479 531.5156 59.77604Q532.125 59.55729 532.9219 59.55729Q533.71875 59.55729 534.21875 59.74479Q534.71875 59.93229 534.9531 60.21354Q535.1875 60.49479 535.28125 60.93229Q535.3281 61.197914 535.3281 61.90104L535.3281 63.30729Q535.3281 64.77604 535.3906 65.166664Q535.46875 65.55729 535.6719 65.916664L534.5625 65.916664Q534.40625 65.58854 534.3594 65.15104ZM534.2656 62.791664Q533.6875 63.02604 532.5469 63.197914Q531.8906 63.291664 531.625 63.416664Q531.3594 63.52604 531.2031 63.74479Q531.0625 63.96354 531.0625 64.24479Q531.0625 64.666664 531.375 64.947914Q531.7031 65.229164 532.3125 65.229164Q532.9219 65.229164 533.3906 64.96354Q533.875 64.697914 534.09375 64.229164Q534.2656 63.86979 534.2656 63.18229L534.2656 62.791664ZM541.3281 65.916664L541.3281 65.135414Q540.7344 66.05729 539.59375 66.05729Q538.84375 66.05729 538.21875 65.65104Q537.59375 65.229164 537.25 64.49479Q536.90625 63.760414 536.90625 62.80729Q536.90625 61.885414 537.21875 61.11979Q537.53125 60.354164 538.15625 59.96354Q538.78125 59.55729 539.5469 59.55729Q540.1094 59.55729 540.5469 59.791664Q540.9844 60.02604 541.2656 60.40104L541.2656 57.322914L542.3125 57.322914L542.3125 65.916664L541.3281 65.916664ZM538.0 62.80729Q538.0 64.010414 538.5 64.604164Q539.0 65.18229 539.6875 65.18229Q540.375 65.18229 540.8594 64.61979Q541.34375 64.05729 541.34375 62.90104Q541.34375 61.61979 540.84375 61.02604Q540.3594 60.43229 539.6406 60.43229Q538.9375 60.43229 538.46875 61.010414Q538.0 61.572914 538.0 62.80729ZM543.875 64.05729L544.90625 63.90104Q545.0 64.52604 545.3906 64.854164Q545.7969 65.18229 546.53125 65.18229Q547.25 65.18229 547.59375 64.90104Q547.9531 64.604164 547.9531 64.197914Q547.9531 63.83854 547.6406 63.635414Q547.4219 63.49479 546.5625 63.27604Q545.40625 62.979164 544.9531 62.77604Q544.5156 62.55729 544.28125 62.18229Q544.0469 61.80729 544.0469 61.33854Q544.0469 60.93229 544.2344 60.572914Q544.4219 60.21354 544.75 59.979164Q545.0 59.80729 545.4219 59.68229Q545.84375 59.55729 546.34375 59.55729Q547.0625 59.55729 547.6094 59.77604Q548.1719 59.979164 548.4375 60.33854Q548.7031 60.697914 548.7969 61.291664L547.7656 61.43229Q547.7031 60.96354 547.3594 60.697914Q547.03125 60.416664 546.40625 60.416664Q545.6875 60.416664 545.375 60.666664Q545.0625 60.90104 545.0625 61.229164Q545.0625 61.43229 545.1875 61.58854Q545.3281 61.760414 545.59375 61.86979Q545.75 61.93229 546.53125 62.135414Q547.65625 62.447914 548.09375 62.635414Q548.53125 62.822914 548.78125 63.18229Q549.03125 63.541664 549.03125 64.08854Q549.03125 64.61979 548.71875 65.08854Q548.4219 65.541664 547.84375 65.80729Q547.2656 66.05729 546.53125 66.05729Q545.3125 66.05729 544.6719 65.55729Q544.0469 65.041664 543.875 64.05729Z" fill-rule="nonzero"/><path fill="#ff6d01" d="M237.0 74.916664C237.0 74.36438 237.44771 73.916664 238.0 73.916664L248.0 73.916664C248.55229 73.916664 249.0 74.36438 249.0 74.916664L249.0 84.916664C249.0 85.46895 248.55229 85.916664 248.0 85.916664L238.0 85.916664C237.44771 85.916664 237.0 85.46895 237.0 84.916664Z" fill-rule="nonzero"/><path fill="#1a1a1a" d="M257.57812 79.729164Q257.57812 77.58854 258.71875 76.385414Q259.875 75.166664 261.6875 75.166664Q262.89062 75.166664 263.84375 75.74479Q264.79688 76.30729 265.29688 77.322914Q265.79688 78.33854 265.79688 79.635414Q265.79688 80.93229 265.26562 81.96354Q264.73438 82.99479 263.76562 83.52604Q262.8125 84.05729 261.6875 84.05729Q260.46875 84.05729 259.51562 83.479164Q258.5625 82.885414 258.0625 81.885414Q257.57812 80.86979 257.57812 79.729164ZM258.75 79.74479Q258.75 81.30729 259.57812 82.197914Q260.42188 83.08854 261.6875 83.08854Q262.96875 83.08854 263.79688 82.197914Q264.625 81.291664 264.625 79.61979Q264.625 78.572914 264.26562 77.791664Q263.92188 77.010414 263.23438 76.58854Q262.54688 76.15104 261.70312 76.15104Q260.5 76.15104 259.625 76.979164Q258.75 77.80729 258.75 79.74479ZM266.79688 86.30729L266.79688 77.697914L267.75 77.697914L267.75 78.49479Q268.09375 78.02604 268.51562 77.791664Q268.95312 77.55729 269.5625 77.55729Q270.35938 77.55729 270.96875 77.96354Q271.57812 78.36979 271.875 79.11979Q272.1875 79.86979 272.1875 80.760414Q272.1875 81.71354 271.84375 82.479164Q271.51562 83.24479 270.85938 83.65104Q270.20312 84.05729 269.48438 84.05729Q268.95312 84.05729 268.53125 83.83854Q268.10938 83.604164 267.84375 83.27604L267.84375 86.30729L266.79688 86.30729ZM267.75 80.83854Q267.75 82.041664 268.23438 82.61979Q268.71875 83.18229 269.40625 83.18229Q270.10938 83.18229 270.60938 82.58854Q271.10938 81.99479 271.10938 80.74479Q271.10938 79.55729 270.625 78.979164Q270.14062 78.385414 269.45312 78.385414Q268.78125 78.385414 268.26562 79.010414Q267.75 79.635414 267.75 80.83854ZM278.04688 81.916664L279.14062 82.041664Q278.89062 82.99479 278.1875 83.52604Q277.48438 84.05729 276.40625 84.05729Q275.04688 84.05729 274.23438 83.21354Q273.4375 82.36979 273.4375 80.854164Q273.4375 79.291664 274.25 78.43229Q275.0625 77.55729 276.34375 77.55729Q277.59375 77.55729 278.375 78.40104Q279.17188 79.24479 279.17188 80.791664Q279.17188 80.885414 279.17188 81.072914L274.53125 81.072914Q274.59375 82.104164 275.10938 82.65104Q275.625 83.18229 276.40625 83.18229Q276.98438 83.18229 277.39062 82.885414Q277.8125 82.572914 278.04688 81.916664ZM274.59375 80.21354L278.0625 80.21354Q278.0 79.416664 277.67188 79.02604Q277.15625 78.416664 276.35938 78.416664Q275.625 78.416664 275.125 78.90104Q274.64062 79.385414 274.59375 80.21354ZM280.79688 83.916664L280.79688 77.697914L281.73438 77.697914L281.73438 78.572914Q282.42188 77.55729 283.71875 77.55729Q284.28125 77.55729 284.75 77.760414Q285.23438 77.96354 285.46875 78.291664Q285.70312 78.61979 285.79688 79.05729Q285.84375 79.354164 285.84375 80.08854L285.84375 83.916664L284.79688 83.916664L284.79688 80.135414Q284.79688 79.479164 284.67188 79.166664Q284.54688 78.854164 284.23438 78.666664Q283.92188 78.46354 283.5 78.46354Q282.82812 78.46354 282.32812 78.90104Q281.84375 79.322914 281.84375 80.510414L281.84375 83.916664L280.79688 83.916664ZM287.89062 83.916664L287.89062 75.322914L289.60938 75.322914L291.64062 81.40104Q291.92188 82.260414 292.04688 82.68229Q292.1875 82.21354 292.5 81.30729L294.5625 75.322914L296.09375 75.322914L296.09375 83.916664L295.0 83.916664L295.0 76.729164L292.5 83.916664L291.46875 83.916664L288.98438 76.604164L288.98438 83.916664L287.89062 83.916664ZM297.92188 83.916664L297.92188 75.322914L301.17188 75.322914Q302.01562 75.322914 302.46875 75.40104Q303.10938 75.510414 303.53125 75.80729Q303.96875 76.104164 304.21875 76.635414Q304.48438 77.166664 304.48438 77.80729Q304.48438 78.90104 303.78125 79.666664Q303.09375 80.416664 301.26562 80.416664L299.0625 80.416664L299.0625 83.916664L297.92188 83.916664ZM299.0625 79.416664L301.28125 79.416664Q302.39062 79.416664 302.84375 79.010414Q303.3125 78.58854 303.3125 77.83854Q303.3125 77.30729 303.03125 76.93229Q302.76562 76.541664 302.32812 76.416664Q302.03125 76.33854 301.26562 76.33854L299.0625 76.33854L299.0625 79.416664ZM310.125 79.260414Q309.46875 79.010414 309.14062 78.572914Q308.82812 78.11979 308.82812 77.510414Q308.82812 76.572914 309.5 75.93229Q310.1875 75.291664 311.29688 75.291664Q312.42188 75.291664 313.10938 75.947914Q313.79688 76.604164 313.79688 77.541664Q313.79688 78.135414 313.48438 78.572914Q313.17188 79.010414 312.53125 79.260414Q313.32812 79.510414 313.73438 80.08854Q314.14062 80.666664 314.14062 81.46354Q314.14062 82.55729 313.35938 83.30729Q312.59375 84.05729 311.3125 84.05729Q310.04688 84.05729 309.26562 83.30729Q308.48438 82.55729 308.48438 81.43229Q308.48438 80.58854 308.90625 80.02604Q309.34375 79.46354 310.125 79.260414ZM309.90625 77.46354Q309.90625 78.072914 310.29688 78.46354Q310.70312 78.854164 311.32812 78.854164Q311.9375 78.854164 312.32812 78.479164Q312.71875 78.08854 312.71875 77.52604Q312.71875 76.947914 312.3125 76.55729Q311.90625 76.15104 311.3125 76.15104Q310.70312 76.15104 310.29688 76.541664Q309.90625 76.93229 309.90625 77.46354ZM309.57812 81.43229Q309.57812 81.885414 309.78125 82.30729Q310.0 82.729164 310.42188 82.96354Q310.84375 83.197914 311.32812 83.197914Q312.07812 83.197914 312.5625 82.71354Q313.0625 82.229164 313.0625 81.479164Q313.0625 80.71354 312.5625 80.21354Q312.0625 79.71354 311.29688 79.71354Q310.54688 79.71354 310.0625 80.21354Q309.57812 80.697914 309.57812 81.43229ZM321.10938 83.916664L321.10938 76.33854L318.28125 76.33854L318.28125 75.322914L325.09375 75.322914L325.09375 76.33854L322.25 76.33854L322.25 83.916664L321.10938 83.916664ZM325.79688 83.916664L325.79688 75.322914L326.84375 75.322914L326.84375 78.40104Q327.57812 77.55729 328.70312 77.55729Q329.40625 77.55729 329.90625 77.83854Q330.42188 78.104164 330.64062 78.58854Q330.85938 79.05729 330.85938 79.979164L330.85938 83.916664L329.8125 83.916664L329.8125 79.979164Q329.8125 79.18229 329.46875 78.822914Q329.125 78.46354 328.5 78.46354Q328.03125 78.46354 327.60938 78.71354Q327.20312 78.947914 327.01562 79.36979Q326.84375 79.77604 326.84375 80.510414L326.84375 83.916664L325.79688 83.916664ZM332.78125 83.916664L332.78125 77.697914L333.73438 77.697914L333.73438 78.635414Q334.09375 77.979164 334.39062 77.77604Q334.70312 77.55729 335.07812 77.55729Q335.60938 77.55729 336.15625 77.885414L335.79688 78.86979Q335.40625 78.635414 335.03125 78.635414Q334.67188 78.635414 334.39062 78.854164Q334.125 79.05729 334.01562 79.43229Q333.82812 79.99479 333.82812 80.65104L333.82812 83.916664L332.78125 83.916664ZM341.04688 81.916664L342.14062 82.041664Q341.89062 82.99479 341.1875 83.52604Q340.48438 84.05729 339.40625 84.05729Q338.04688 84.05729 337.23438 83.21354Q336.4375 82.36979 336.4375 80.854164Q336.4375 79.291664 337.25 78.43229Q338.0625 77.55729 339.34375 77.55729Q340.59375 77.55729 341.375 78.40104Q342.17188 79.24479 342.17188 80.791664Q342.17188 80.885414 342.17188 81.072914L337.53125 81.072914Q337.59375 82.104164 338.10938 82.65104Q338.625 83.18229 339.40625 83.18229Q339.98438 83.18229 340.39062 82.885414Q340.8125 82.572914 341.04688 81.916664ZM337.59375 80.21354L341.0625 80.21354Q341.0 79.416664 340.67188 79.02604Q340.15625 78.416664 339.35938 78.416664Q338.625 78.416664 338.125 78.90104Q337.64062 79.385414 337.59375 80.21354ZM347.85938 83.15104Q347.26562 83.65104 346.71875 83.854164Q346.1875 84.05729 345.5625 84.05729Q344.53125 84.05729 343.98438 83.55729Q343.4375 83.05729 343.4375 82.27604Q343.4375 81.822914 343.64062 81.447914Q343.84375 81.05729 344.1875 80.83854Q344.53125 80.604164 344.95312 80.49479Q345.25 80.40104 345.89062 80.322914Q347.15625 80.18229 347.76562 79.96354Q347.76562 79.74479 347.76562 79.697914Q347.76562 79.041664 347.46875 78.77604Q347.0625 78.43229 346.26562 78.43229Q345.53125 78.43229 345.17188 78.697914Q344.8125 78.947914 344.64062 79.604164L343.60938 79.46354Q343.75 78.80729 344.07812 78.40104Q344.40625 77.99479 345.01562 77.77604Q345.625 77.55729 346.42188 77.55729Q347.21875 77.55729 347.71875 77.74479Q348.21875 77.93229 348.45312 78.21354Q348.6875 78.49479 348.78125 78.93229Q348.82812 79.197914 348.82812 79.90104L348.82812 81.30729Q348.82812 82.77604 348.89062 83.166664Q348.96875 83.55729 349.17188 83.916664L348.0625 83.916664Q347.90625 83.58854 347.85938 83.15104ZM347.76562 80.791664Q347.1875 81.02604 346.04688 81.197914Q345.39062 81.291664 345.125 81.416664Q344.85938 81.52604 344.70312 81.74479Q344.5625 81.96354 344.5625 82.24479Q344.5625 82.666664 344.875 82.947914Q345.20312 83.229164 345.8125 83.229164Q346.42188 83.229164 346.89062 82.96354Q347.375 82.697914 347.59375 82.229164Q347.76562 81.86979 347.76562 81.18229L347.76562 80.791664ZM354.82812 83.916664L354.82812 83.135414Q354.23438 84.05729 353.09375 84.05729Q352.34375 84.05729 351.71875 83.65104Q351.09375 83.229164 350.75 82.49479Q350.40625 81.760414 350.40625 80.80729Q350.40625 79.885414 350.71875 79.11979Q351.03125 78.354164 351.65625 77.96354Q352.28125 77.55729 353.04688 77.55729Q353.60938 77.55729 354.04688 77.791664Q354.48438 78.02604 354.76562 78.40104L354.76562 75.322914L355.8125 75.322914L355.8125 83.916664L354.82812 83.916664ZM351.5 80.80729Q351.5 82.010414 352.0 82.604164Q352.5 83.18229 353.1875 83.18229Q353.875 83.18229 354.35938 82.61979Q354.84375 82.05729 354.84375 80.90104Q354.84375 79.61979 354.34375 79.02604Q353.85938 78.43229 353.14062 78.43229Q352.4375 78.43229 351.96875 79.010414Q351.5 79.572914 351.5 80.80729ZM357.375 82.05729L358.40625 81.90104Q358.5 82.52604 358.89062 82.854164Q359.29688 83.18229 360.03125 83.18229Q360.75 83.18229 361.09375 82.90104Q361.45312 82.604164 361.45312 82.197914Q361.45312 81.83854 361.14062 81.635414Q360.92188 81.49479 360.0625 81.27604Q358.90625 80.979164 358.45312 80.77604Q358.01562 80.55729 357.78125 80.18229Q357.54688 79.80729 357.54688 79.33854Q357.54688 78.93229 357.73438 78.572914Q357.92188 78.21354 358.25 77.979164Q358.5 77.80729 358.92188 77.68229Q359.34375 77.55729 359.84375 77.55729Q360.5625 77.55729 361.10938 77.77604Q361.67188 77.979164 361.9375 78.33854Q362.20312 78.697914 362.29688 79.291664L361.26562 79.43229Q361.20312 78.96354 360.85938 78.697914Q360.53125 78.416664 359.90625 78.416664Q359.1875 78.416664 358.875 78.666664Q358.5625 78.90104 358.5625 79.229164Q358.5625 79.43229 358.6875 79.58854Q358.82812 79.760414 359.09375 79.86979Q359.25 79.93229 360.03125 80.135414Q361.15625 80.447914 361.59375 80.635414Q362.03125 80.822914 362.28125 81.18229Q362.53125 81.541664 362.53125 82.08854Q362.53125 82.61979 362.21875 83.08854Q361.92188 83.541664 361.34375 83.80729Q360.76562 84.05729 360.03125 84.05729Q358.8125 84.05729 358.17188 83.55729Q357.54688 83.041664 357.375 82.05729Z" fill-rule="nonzero"/><path fill="#757575" d="M19.846874 37.55L19.846874 27.175L21.425 27.175L21.425 28.753124Q22.034374 27.64375 22.55 27.3Q23.065624 26.940624 23.675 26.940624Q24.565624 26.940624 25.4875 27.503124L24.878124 29.14375Q24.2375 28.753124 23.596874 28.753124Q23.01875 28.753124 22.55 29.1125Q22.096874 29.45625 21.89375 30.065624Q21.6125 31.003124 21.6125 32.1125L21.6125 37.55L19.846874 37.55ZM33.971874 34.20625L35.784374 34.440624Q35.3625 36.01875 34.190624 36.909374Q33.034374 37.784374 31.221874 37.784374Q28.95625 37.784374 27.6125 36.39375Q26.284374 34.9875 26.284374 32.45625Q26.284374 29.83125 27.628124 28.39375Q28.971874 26.940624 31.128124 26.940624Q33.20625 26.940624 34.51875 28.3625Q35.846874 29.76875 35.846874 32.346874Q35.846874 32.503124 35.83125 32.815624L28.096874 32.815624Q28.190624 34.51875 29.065624 35.425Q29.940624 36.33125 31.2375 36.33125Q32.20625 36.33125 32.878124 35.83125Q33.565624 35.315624 33.971874 34.20625ZM28.190624 31.3625L33.9875 31.3625Q33.878124 30.065624 33.33125 29.409374Q32.4875 28.39375 31.14375 28.39375Q29.940624 28.39375 29.1125 29.20625Q28.284374 30.003124 28.190624 31.3625ZM44.64375 36.26875Q43.659374 37.096874 42.753124 37.440624Q41.846874 37.784374 40.815624 37.784374Q39.1125 37.784374 38.190624 36.95625Q37.26875 36.1125 37.26875 34.815624Q37.26875 34.05 37.6125 33.425Q37.971874 32.8 38.534374 32.425Q39.096874 32.034374 39.8 31.83125Q40.315624 31.70625 41.3625 31.565624Q43.4875 31.315624 44.4875 30.971874Q44.503124 30.6125 44.503124 30.503124Q44.503124 29.440624 44.003124 28.9875Q43.33125 28.39375 42.003124 28.39375Q40.753124 28.39375 40.159374 28.83125Q39.58125 29.26875 39.3 30.378124L37.58125 30.14375Q37.815624 29.034374 38.346874 28.3625Q38.878124 27.675 39.89375 27.315624Q40.909374 26.940624 42.253124 26.940624Q43.58125 26.940624 44.409374 27.253124Q45.2375 27.565624 45.628124 28.05Q46.01875 28.51875 46.175 29.2375Q46.26875 29.690624 46.26875 30.8625L46.26875 33.20625Q46.26875 35.659374 46.378124 36.315624Q46.4875 36.95625 46.83125 37.55L44.9875 37.55Q44.721874 37.003124 44.64375 36.26875ZM44.4875 32.346874Q43.534374 32.7375 41.6125 33.003124Q40.534374 33.159374 40.08125 33.3625Q39.64375 33.55 39.39375 33.925Q39.14375 34.3 39.14375 34.76875Q39.14375 35.471874 39.675 35.940624Q40.20625 36.409374 41.2375 36.409374Q42.253124 36.409374 43.034374 35.971874Q43.83125 35.51875 44.20625 34.753124Q44.4875 34.14375 44.4875 32.9875L44.4875 32.346874ZM48.83125 37.55L48.83125 23.2375L50.58125 23.2375L50.58125 37.55L48.83125 37.55ZM60.784374 37.55L57.6125 27.175L59.425 27.175L61.08125 33.159374L61.690624 35.39375Q61.7375 35.221874 62.221874 33.253124L63.878124 27.175L65.69063 27.175L67.2375 33.190624L67.75313 35.175L68.34688 33.175L70.12813 27.175L71.83125 27.175L68.59688 37.55L66.76875 37.55L65.1125 31.33125L64.72188 29.565624L62.6125 37.55L60.784374 37.55ZM72.87813 25.253124L72.87813 23.2375L74.64375 23.2375L74.64375 25.253124L72.87813 25.253124ZM72.87813 37.55L72.87813 27.175L74.64375 27.175L74.64375 37.55L72.87813 37.55ZM80.70625 35.971874L80.95625 37.534374Q80.22188 37.690624 79.62813 37.690624Q78.675 37.690624 78.14375 37.39375Q77.62813 37.08125 77.40938 36.596874Q77.19063 36.096874 77.19063 34.51875L77.19063 28.55L75.90938 28.55L75.90938 27.175L77.19063 27.175L77.19063 24.6125L78.94063 23.55L78.94063 27.175L80.70625 27.175L80.70625 28.55L78.94063 28.55L78.94063 34.6125Q78.94063 35.3625 79.03438 35.58125Q79.12813 35.784374 79.33125 35.925Q79.55 36.05 79.94063 36.05Q80.22188 36.05 80.70625 35.971874ZM82.8625 37.55L82.8625 23.2375L84.62813 23.2375L84.62813 28.3625Q85.8625 26.940624 87.7375 26.940624Q88.87813 26.940624 89.72188 27.39375Q90.58125 27.846874 90.94063 28.659374Q91.31563 29.45625 91.31563 30.971874L91.31563 37.55L89.56563 37.55L89.56563 30.971874Q89.56563 29.659374 88.9875 29.065624Q88.40938 28.45625 87.37813 28.45625Q86.59688 28.45625 85.89375 28.8625Q85.20625 29.26875 84.90938 29.971874Q84.62813 30.659374 84.62813 31.878124L84.62813 37.55L82.8625 37.55ZM99.51875 30.58125Q99.51875 27.01875 101.425 25.003124Q103.34688 22.971874 106.37813 22.971874Q108.3625 22.971874 109.94063 23.925Q111.53438 24.878124 112.3625 26.58125Q113.20625 28.26875 113.20625 30.409374Q113.20625 32.58125 112.33125 34.3Q111.45625 36.01875 109.83125 36.909374Q108.22188 37.8 106.3625 37.8Q104.34688 37.8 102.75313 36.83125Q101.15938 35.846874 100.33125 34.159374Q99.51875 32.45625 99.51875 30.58125ZM101.47188 30.6125Q101.47188 33.190624 102.8625 34.690624Q104.25313 36.175 106.34688 36.175Q108.4875 36.175 109.8625 34.675Q111.25313 33.159374 111.25313 30.39375Q111.25313 28.659374 110.65938 27.3625Q110.08125 26.05 108.94063 25.33125Q107.8 24.6125 106.37813 24.6125Q104.37813 24.6125 102.925 26.003124Q101.47188 27.378124 101.47188 30.6125ZM115.8625 41.51875L115.8625 27.175L117.47188 27.175L117.47188 28.51875Q118.03438 27.7375 118.7375 27.346874Q119.45625 26.940624 120.47188 26.940624Q121.8 26.940624 122.81563 27.628124Q123.83125 28.315624 124.34688 29.565624Q124.87813 30.8 124.87813 32.284374Q124.87813 33.878124 124.3 35.159374Q123.7375 36.425 122.64375 37.1125Q121.55 37.784374 120.34688 37.784374Q119.47188 37.784374 118.76875 37.409374Q118.08125 37.034374 117.62813 36.471874L117.62813 41.51875L115.8625 41.51875ZM117.45625 32.425Q117.45625 34.425 118.26875 35.378124Q119.08125 36.33125 120.2375 36.33125Q121.40938 36.33125 122.2375 35.346874Q123.08125 34.3625 123.08125 32.26875Q123.08125 30.3 122.25313 29.315624Q121.44063 28.315624 120.31563 28.315624Q119.19063 28.315624 118.31563 29.378124Q117.45625 30.425 117.45625 32.425ZM133.97188 34.20625L135.78438 34.440624Q135.3625 36.01875 134.19063 36.909374Q133.03438 37.784374 131.22188 37.784374Q128.95625 37.784374 127.6125 36.39375Q126.28438 34.9875 126.28438 32.45625Q126.28438 29.83125 127.62813 28.39375Q128.97188 26.940624 131.12813 26.940624Q133.20625 26.940624 134.51875 28.3625Q135.84688 29.76875 135.84688 32.346874Q135.84688 32.503124 135.83125 32.815624L128.09688 32.815624Q128.19063 34.51875 129.06563 35.425Q129.94063 36.33125 131.2375 36.33125Q132.20625 36.33125 132.87813 35.83125Q133.56563 35.315624 133.97188 34.20625ZM128.19063 31.3625L133.9875 31.3625Q133.87813 30.065624 133.33125 29.409374Q132.4875 28.39375 131.14375 28.39375Q129.94063 28.39375 129.1125 29.20625Q128.28438 30.003124 128.19063 31.3625ZM137.8625 37.55L137.8625 27.175L139.45625 27.175L139.45625 28.659374Q140.59688 26.940624 142.75313 26.940624Q143.69063 26.940624 144.47188 27.284374Q145.26875 27.6125 145.65938 28.159374Q146.05 28.70625 146.20625 29.45625Q146.3 29.95625 146.3 31.175L146.3 37.55L144.53438 37.55L144.53438 31.2375Q144.53438 30.159374 144.33125 29.628124Q144.12813 29.096874 143.59688 28.784374Q143.08125 28.471874 142.37813 28.471874Q141.25313 28.471874 140.44063 29.190624Q139.62813 29.89375 139.62813 31.878124L139.62813 37.55L137.8625 37.55ZM149.03438 37.55L149.03438 23.2375L151.89375 23.2375L155.26875 33.3625Q155.7375 34.784374 155.95625 35.4875Q156.20625 34.70625 156.72188 33.190624L160.14375 23.2375L162.69063 23.2375L162.69063 37.55L160.87813 37.55L160.87813 25.565624L156.70625 37.55L155.00313 37.55L150.8625 25.3625L150.8625 37.55L149.03438 37.55ZM165.8625 41.51875L165.8625 27.175L167.47188 27.175L167.47188 28.51875Q168.03438 27.7375 168.7375 27.346874Q169.45625 26.940624 170.47188 26.940624Q171.8 26.940624 172.81563 27.628124Q173.83125 28.315624 174.34688 29.565624Q174.87813 30.8 174.87813 32.284374Q174.87813 33.878124 174.3 35.159374Q173.7375 36.425 172.64375 37.1125Q171.55 37.784374 170.34688 37.784374Q169.47188 37.784374 168.76875 37.409374Q168.08125 37.034374 167.62813 36.471874L167.62813 41.51875L165.8625 41.51875ZM167.45625 32.425Q167.45625 34.425 168.26875 35.378124Q169.08125 36.33125 170.2375 36.33125Q171.40938 36.33125 172.2375 35.346874Q173.08125 34.3625 173.08125 32.26875Q173.08125 30.3 172.25313 29.315624Q171.44063 28.315624 170.31563 28.315624Q169.19063 28.315624 168.31563 29.378124Q167.45625 30.425 167.45625 32.425Z" fill-rule="nonzero"/></svg>