<svg version="1.1" viewBox="0.0 0.0 600.0 371.0" fill="none" stroke="none" stroke-linecap="square" stroke-miterlimit="10" width="600" height="371" xmlns:xlink="http://www.w3.org/1999/xlink" xmlns="http://www.w3.org/2000/svg"><path fill="#ffffff" d="M0 0L600.0 0L600.0 371.0L0 371.0L0 0Z" fill-rule="nonzero"/><path stroke="#333333" stroke-width="1.0" stroke-linecap="butt" d="M77.5 332.5L581.5 332.5" fill-rule="nonzero"/><path stroke="#cccccc" stroke-width="1.0" stroke-linecap="butt" d="M77.5 283.5L581.5 283.5" fill-rule="nonzero"/><path stroke="#cccccc" stroke-width="1.0" stroke-linecap="butt" d="M77.5 234.5L581.5 234.5" fill-rule="nonzero"/><path stroke="#cccccc" stroke-width="1.0" stroke-linecap="butt" d="M77.5 185.5L581.5 185.5" fill-rule="nonzero"/><path stroke="#cccccc" stroke-width="1.0" stroke-linecap="butt" d="M77.5 137.5L581.5 137.5" fill-rule="nonzero"/><path stroke="#cccccc" stroke-width="1.0" stroke-linecap="butt" d="M77.5 88.5L581.5 88.5" fill-rule="nonzero"/><clipPath id="id_0"><path d="M77.55 88.28333L581.45 88.28333L581.45 332.45L77.55 332.45L77.55 88.28333Z" clip-rule="nonzero"/></clipPath><path stroke="#000000" stroke-width="0.0" stroke-linecap="butt" stroke-opacity="0.0" clip-path="url(#id_0)" d="M268.0 332.0L208.0 332.0L208.0 249.0C208.0 247.89543 208.89543 247.0 210.0 247.0L266.0 247.0C267.10458 247.0 268.0 247.89543 268.0 249.0Z" fill-rule="nonzero"/><path fill="#4285f4" clip-path="url(#id_0)" d="M268.0 332.0L208.0 332.0L208.0 249.0C208.0 247.89543 208.89543 247.0 210.0 247.0L266.0 247.0C267.10458 247.0 268.0 247.89543 268.0 249.0Z" fill-rule="nonzero"/><path stroke="#000000" stroke-width="0.0" stroke-linecap="butt" stroke-opacity="0.0" clip-path="url(#id_0)" d="M329.0 332.0L269.0 332.0L269.0 179.0C269.0 177.89543 269.89542 177.0 271.0 177.0L327.0 177.0C328.10458 177.0 329.0 177.89543 329.0 179.0Z" fill-rule="nonzero"/><path fill="#ea4335" clip-path="url(#id_0)" d="M329.0 332.0L269.0 332.0L269.0 179.0C269.0 177.89543 269.89542 177.0 271.0 177.0L327.0 177.0C328.10458 177.0 329.0 177.89543 329.0 179.0Z" fill-rule="nonzero"/><path stroke="#000000" stroke-width="0.0" stroke-linecap="butt" stroke-opacity="0.0" clip-path="url(#id_0)" d="M390.0 332.0L330.0 332.0L330.0 121.0C330.0 119.89543 330.89542 119.0 332.0 119.0L388.0 119.0C389.10458 119.0 390.0 119.89543 390.0 121.0Z" fill-rule="nonzero"/><path fill="#fbbc04" clip-path="url(#id_0)" d="M390.0 332.0L330.0 332.0L330.0 121.0C330.0 119.89543 330.89542 119.0 332.0 119.0L388.0 119.0C389.10458 119.0 390.0 119.89543 390.0 121.0Z" fill-rule="nonzero"/><path stroke="#000000" stroke-width="0.0" stroke-linecap="butt" stroke-opacity="0.0" clip-path="url(#id_0)" d="M451.0 332.0L391.0 332.0L391.0 145.0C391.0 143.89543 391.89542 143.0 393.0 143.0L449.0 143.0C450.10458 143.0 451.0 143.89543 451.0 145.0Z" fill-rule="nonzero"/><path fill="#34a853" clip-path="url(#id_0)" d="M451.0 332.0L391.0 332.0L391.0 145.0C391.0 143.89543 391.89542 143.0 393.0 143.0L449.0 143.0C450.10458 143.0 451.0 143.89543 451.0 145.0Z" fill-rule="nonzero"/><path fill="#000000" d="M27.690638 240.49167L27.534388 239.46042Q28.159388 239.36667 28.487513 238.97604Q28.815638 238.5698 28.815638 237.83542Q28.815638 237.11667 28.534388 236.77292Q28.237513 236.41354 27.831263 236.41354Q27.471888 236.41354 27.268763 236.72604Q27.128138 236.9448 26.909388 237.80417Q26.612513 238.96042 26.409388 239.41354Q26.190638 239.85104 25.815638 240.08542Q25.440638 240.3198 24.971888 240.3198Q24.565638 240.3198 24.206263 240.1323Q23.846888 239.9448 23.612513 239.61667Q23.440638 239.36667 23.315638 238.9448Q23.190638 238.52292 23.190638 238.02292Q23.190638 237.30417 23.409388 236.7573Q23.612513 236.1948 23.971888 235.92917Q24.331263 235.66354 24.925013 235.5698L25.065638 236.60104Q24.596888 236.66354 24.331263 237.0073Q24.050013 237.33542 24.050013 237.96042Q24.050013 238.67917 24.300013 238.99167Q24.534388 239.30417 24.862513 239.30417Q25.065638 239.30417 25.221888 239.17917Q25.393763 239.03854 25.503138 238.77292Q25.565638 238.61667 25.768763 237.83542Q26.081263 236.71042 26.268763 236.27292Q26.456263 235.83542 26.815638 235.58542Q27.175013 235.33542 27.721888 235.33542Q28.253138 235.33542 28.721888 235.64792Q29.175013 235.9448 29.440638 236.52292Q29.690638 237.10104 29.690638 237.83542Q29.690638 239.05417 29.190638 239.6948Q28.675013 240.3198 27.690638 240.49167ZM31.940638 234.0698L23.331263 234.0698L23.331263 233.11667L24.128138 233.11667Q23.659388 232.77292 23.425013 232.35104Q23.190638 231.91354 23.190638 231.30417Q23.190638 230.5073 23.596888 229.89792Q24.003138 229.28854 24.753138 228.99167Q25.503138 228.67917 26.393763 228.67917Q27.346888 228.67917 28.112513 229.02292Q28.878138 229.35104 29.284388 230.0073Q29.690638 230.66354 29.690638 231.3823Q29.690638 231.91354 29.471888 232.33542Q29.237513 232.7573 28.909388 233.02292L31.940638 233.02292L31.940638 234.0698ZM26.471888 233.11667Q27.675013 233.11667 28.253138 232.6323Q28.815638 232.14792 28.815638 231.46042Q28.815638 230.7573 28.221888 230.2573Q27.628138 229.7573 26.378138 229.7573Q25.190638 229.7573 24.612513 230.24167Q24.018763 230.72604 24.018763 231.41354Q24.018763 232.08542 24.643763 232.60104Q25.268763 233.11667 26.471888 233.11667ZM27.550013 222.8198L27.675013 221.72604Q28.628138 221.97604 29.159388 222.67917Q29.690638 223.3823 29.690638 224.46042Q29.690638 225.8198 28.846888 226.6323Q28.003138 227.42917 26.487513 227.42917Q24.925013 227.42917 24.065638 226.61667Q23.190638 225.80417 23.190638 224.52292Q23.190638 223.27292 24.034388 222.49167Q24.878138 221.6948 26.425013 221.6948Q26.518763 221.6948 26.706263 221.6948L26.706263 226.33542Q27.737513 226.27292 28.284388 225.7573Q28.815638 225.24167 28.815638 224.46042Q28.815638 223.8823 28.518763 223.47604Q28.206263 223.05417 27.550013 222.8198ZM25.846888 226.27292L25.846888 222.80417Q25.050013 222.86667 24.659388 223.1948Q24.050013 223.71042 24.050013 224.5073Q24.050013 225.24167 24.534388 225.74167Q25.018763 226.22604 25.846888 226.27292ZM27.550013 215.8198L27.675013 214.72604Q28.628138 214.97604 29.159388 215.67917Q29.690638 216.3823 29.690638 217.46042Q29.690638 218.8198 28.846888 219.6323Q28.003138 220.42917 26.487513 220.42917Q24.925013 220.42917 24.065638 219.61667Q23.190638 218.80417 23.190638 217.52292Q23.190638 216.27292 24.034388 215.49167Q24.878138 214.6948 26.425013 214.6948Q26.518763 214.6948 26.706263 214.6948L26.706263 219.33542Q27.737513 219.27292 28.284388 218.7573Q28.815638 218.24167 28.815638 217.46042Q28.815638 216.8823 28.518763 216.47604Q28.206263 216.05417 27.550013 215.8198ZM25.846888 219.27292L25.846888 215.80417Q25.050013 215.86667 24.659388 216.1948Q24.050013 216.71042 24.050013 217.5073Q24.050013 218.24167 24.534388 218.74167Q25.018763 219.22604 25.846888 219.27292ZM29.550013 209.03854L28.768763 209.03854Q29.690638 209.6323 29.690638 210.77292Q29.690638 211.52292 29.284388 212.14792Q28.862513 212.77292 28.128138 213.11667Q27.393763 213.46042 26.440638 213.46042Q25.518763 213.46042 24.753138 213.14792Q23.987513 212.83542 23.596888 212.21042Q23.190638 211.58542 23.190638 210.8198Q23.190638 210.2573 23.425013 209.8198Q23.659388 209.3823 24.034388 209.10104L20.956263 209.10104L20.956263 208.05417L29.550013 208.05417L29.550013 209.03854ZM26.440638 212.36667Q27.643763 212.36667 28.237513 211.86667Q28.815638 211.36667 28.815638 210.67917Q28.815638 209.99167 28.253138 209.5073Q27.690638 209.02292 26.534388 209.02292Q25.253138 209.02292 24.659388 209.52292Q24.065638 210.0073 24.065638 210.72604Q24.065638 211.42917 24.643763 211.89792Q25.206263 212.36667 26.440638 212.36667ZM29.550013 201.99167L28.628138 201.99167Q29.690638 202.72604 29.690638 203.97604Q29.690638 204.52292 29.487513 205.0073Q29.268763 205.47604 28.956263 205.71042Q28.628138 205.9448 28.159388 206.03854Q27.862513 206.10104 27.175013 206.10104L23.331263 206.10104L23.331263 205.03854L26.784388 205.03854Q27.596888 205.03854 27.893763 204.97604Q28.300013 204.8823 28.550013 204.5698Q28.784388 204.24167 28.784388 203.7573Q28.784388 203.28854 28.550013 202.8823Q28.300013 202.46042 27.878138 202.28854Q27.456263 202.10104 26.659388 202.10104L23.331263 202.10104L23.331263 201.05417L29.550013 201.05417L29.550013 201.99167ZM31.940638 199.0698L23.331263 199.0698L23.331263 198.11667L24.128138 198.11667Q23.659388 197.77292 23.425013 197.35104Q23.190638 196.91354 23.190638 196.30417Q23.190638 195.5073 23.596888 194.89792Q24.003138 194.28854 24.753138 193.99167Q25.503138 193.67917 26.393763 193.67917Q27.346888 193.67917 28.112513 194.02292Q28.878138 194.35104 29.284388 195.0073Q29.690638 195.66354 29.690638 196.3823Q29.690638 196.91354 29.471888 197.33542Q29.237513 197.7573 28.909388 198.02292L31.940638 198.02292L31.940638 199.0698ZM26.471888 198.11667Q27.675013 198.11667 28.253138 197.6323Q28.815638 197.14792 28.815638 196.46042Q28.815638 195.7573 28.221888 195.2573Q27.628138 194.7573 26.378138 194.7573Q25.190638 194.7573 24.612513 195.24167Q24.018763 195.72604 24.018763 196.41354Q24.018763 197.08542 24.643763 197.60104Q25.268763 198.11667 26.471888 198.11667Z" fill-rule="nonzero"/><path fill="#000000" d="M65.05 332.21564Q65.05 330.6844 65.3625 329.7625Q65.675 328.825 66.28438 328.325Q66.90938 327.825 67.84688 327.825Q68.53438 327.825 69.05 328.10626Q69.58125 328.3875 69.925 328.91876Q70.26875 329.4344 70.45625 330.1844Q70.64375 330.9344 70.64375 332.21564Q70.64375 333.73126 70.33125 334.65314Q70.03438 335.575 69.40938 336.09064Q68.8 336.59064 67.84688 336.59064Q66.6125 336.59064 65.89375 335.7Q65.05 334.6375 65.05 332.21564ZM66.12813 332.21564Q66.12813 334.325 66.62813 335.02814Q67.12813 335.73126 67.84688 335.73126Q68.58125 335.73126 69.06563 335.02814Q69.56563 334.325 69.56563 332.21564Q69.56563 330.09064 69.06563 329.40314Q68.58125 328.7 67.83125 328.7Q67.1125 328.7 66.675 329.3094Q66.12813 330.09064 66.12813 332.21564Z" fill-rule="nonzero"/><path fill="#000000" d="M55.05 283.3823Q55.05 281.85104 55.3625 280.92917Q55.675 279.99167 56.284374 279.49167Q56.909374 278.99167 57.846874 278.99167Q58.534374 278.99167 59.05 279.27292Q59.58125 279.55417 59.925 280.08542Q60.26875 280.60104 60.45625 281.35104Q60.64375 282.10104 60.64375 283.3823Q60.64375 284.89792 60.33125 285.8198Q60.034374 286.74167 59.409374 287.2573Q58.8 287.7573 57.846874 287.7573Q56.6125 287.7573 55.89375 286.86667Q55.05 285.80417 55.05 283.3823ZM56.128124 283.3823Q56.128124 285.49167 56.628124 286.1948Q57.128124 286.89792 57.846874 286.89792Q58.58125 286.89792 59.065624 286.1948Q59.565624 285.49167 59.565624 283.3823Q59.565624 281.2573 59.065624 280.5698Q58.58125 279.86667 57.83125 279.86667Q57.1125 279.86667 56.675 280.47604Q56.128124 281.2573 56.128124 283.3823ZM62.6125 287.61667L62.6125 286.41354L63.815624 286.41354L63.815624 287.61667Q63.815624 288.27292 63.58125 288.67917Q63.346874 289.10104 62.846874 289.3198L62.55 288.86667Q62.878124 288.72604 63.034374 288.42917Q63.190624 288.14792 63.221874 287.61667L62.6125 287.61667ZM65.05 285.36667L66.15938 285.27292Q66.28438 286.08542 66.72188 286.49167Q67.175 286.89792 67.81563 286.89792Q68.56563 286.89792 69.09688 286.3198Q69.62813 285.74167 69.62813 284.80417Q69.62813 283.89792 69.1125 283.3823Q68.6125 282.85104 67.78438 282.85104Q67.28438 282.85104 66.8625 283.08542Q66.45625 283.3198 66.22188 283.67917L65.2375 283.55417L66.06563 279.14792L70.34688 279.14792L70.34688 280.14792L66.90938 280.14792L66.45625 282.46042Q67.22188 281.91354 68.06563 281.91354Q69.19063 281.91354 69.95625 282.6948Q70.7375 283.47604 70.7375 284.71042Q70.7375 285.86667 70.06563 286.72604Q69.2375 287.7573 67.81563 287.7573Q66.64375 287.7573 65.89375 287.10104Q65.15938 286.4448 65.05 285.36667Z" fill-rule="nonzero"/><path fill="#000000" d="M69.01875 238.78334L67.97188 238.78334L67.97188 232.06459Q67.58125 232.42397 66.95625 232.79897Q66.34688 233.15834 65.8625 233.33022L65.8625 232.31459Q66.7375 231.89272 67.39375 231.31459Q68.06563 230.72084 68.34688 230.15834L69.01875 230.15834L69.01875 238.78334Z" fill-rule="nonzero"/><path fill="#000000" d="M59.01875 189.95L57.971874 189.95L57.971874 183.23125Q57.58125 183.59062 56.95625 183.96562Q56.346874 184.325 55.8625 184.49687L55.8625 183.48125Q56.7375 183.05937 57.39375 182.48125Q58.065624 181.8875 58.346874 181.325L59.01875 181.325L59.01875 189.95ZM62.6125 189.95L62.6125 188.74687L63.815624 188.74687L63.815624 189.95Q63.815624 190.60625 63.58125 191.0125Q63.346874 191.43437 62.846874 191.65312L62.55 191.2Q62.878124 191.05937 63.034374 190.7625Q63.190624 190.48125 63.221874 189.95L62.6125 189.95ZM65.05 187.7L66.15938 187.60625Q66.28438 188.41875 66.72188 188.825Q67.175 189.23125 67.81563 189.23125Q68.56563 189.23125 69.09688 188.65312Q69.62813 188.075 69.62813 187.1375Q69.62813 186.23125 69.1125 185.71562Q68.6125 185.18437 67.78438 185.18437Q67.28438 185.18437 66.8625 185.41875Q66.45625 185.65312 66.22188 186.0125L65.2375 185.8875L66.06563 181.48125L70.34688 181.48125L70.34688 182.48125L66.90938 182.48125L66.45625 184.79375Q67.22188 184.24687 68.06563 184.24687Q69.19063 184.24687 69.95625 185.02812Q70.7375 185.80937 70.7375 187.04375Q70.7375 188.2 70.06563 189.05937Q69.2375 190.09062 67.81563 190.09062Q66.64375 190.09062 65.89375 189.43437Q65.15938 188.77812 65.05 187.7Z" fill-rule="nonzero"/><path fill="#000000" d="M70.59688 140.10104L70.59688 141.11667L64.90938 141.11667Q64.90938 140.74167 65.03438 140.3823Q65.25313 139.80417 65.72188 139.24167Q66.20625 138.67917 67.1125 137.9448Q68.51875 136.78854 69.00313 136.11667Q69.50313 135.4448 69.50313 134.85104Q69.50313 134.22604 69.05 133.80417Q68.59688 133.36667 67.87813 133.36667Q67.1125 133.36667 66.65938 133.8198Q66.20625 134.27292 66.19063 135.08542L65.1125 134.97604Q65.22188 133.7573 65.94063 133.1323Q66.675 132.49167 67.90938 132.49167Q69.14375 132.49167 69.8625 133.17917Q70.58125 133.86667 70.58125 134.8823Q70.58125 135.39792 70.3625 135.89792Q70.15938 136.3823 69.65938 136.9448Q69.175 137.49167 68.05 138.4448Q67.09688 139.24167 66.81563 139.53854Q66.55 139.8198 66.37813 140.10104L70.59688 140.10104Z" fill-rule="nonzero"/><path fill="#000000" d="M60.596874 91.26771L60.596874 92.28333L54.909374 92.28333Q54.909374 91.90833 55.034374 91.54896Q55.253124 90.97083 55.721874 90.40833Q56.20625 89.84583 57.1125 89.11146Q58.51875 87.95521 59.003124 87.28333Q59.503124 86.61146 59.503124 86.01771Q59.503124 85.39271 59.05 84.97083Q58.596874 84.53333 57.878124 84.53333Q57.1125 84.53333 56.659374 84.98646Q56.20625 85.43958 56.190624 86.25208L55.1125 86.14271Q55.221874 84.92396 55.940624 84.29896Q56.675 83.65833 57.909374 83.65833Q59.14375 83.65833 59.8625 84.34583Q60.58125 85.03333 60.58125 86.04896Q60.58125 86.56458 60.3625 87.06458Q60.159374 87.54896 59.659374 88.11146Q59.175 88.65833 58.05 89.61146Q57.096874 90.40833 56.815624 90.70521Q56.55 90.98646 56.378124 91.26771L60.596874 91.26771ZM62.6125 92.28333L62.6125 91.08021L63.815624 91.08021L63.815624 92.28333Q63.815624 92.93958 63.58125 93.34583Q63.346874 93.76771 62.846874 93.98646L62.55 93.53333Q62.878124 93.39271 63.034374 93.09583Q63.190624 92.81458 63.221874 92.28333L62.6125 92.28333ZM65.05 90.03333L66.15938 89.93958Q66.28438 90.75208 66.72188 91.15833Q67.175 91.56458 67.81563 91.56458Q68.56563 91.56458 69.09688 90.98646Q69.62813 90.40833 69.62813 89.47083Q69.62813 88.56458 69.1125 88.04896Q68.6125 87.51771 67.78438 87.51771Q67.28438 87.51771 66.8625 87.75208Q66.45625 87.98646 66.22188 88.34583L65.2375 88.22083L66.06563 83.81458L70.34688 83.81458L70.34688 84.81458L66.90938 84.81458L66.45625 87.12708Q67.22188 86.58021 68.06563 86.58021Q69.19063 86.58021 69.95625 87.36146Q70.7375 88.14271 70.7375 89.37708Q70.7375 90.53333 70.06563 91.39271Q69.2375 92.42396 67.81563 92.42396Q66.64375 92.42396 65.89375 91.76771Q65.15938 91.11146 65.05 90.03333Z" fill-rule="nonzero"/><path fill="#000000" d="M315.82812 349.45L315.82812 348.66876Q315.23438 349.59064 314.09375 349.59064Q313.34375 349.59064 312.71875 349.1844Q312.09375 348.7625 311.75 348.02814Q311.40625 347.29376 311.40625 346.34064Q311.40625 345.41876 311.71875 344.65314Q312.03125 343.8875 312.65625 343.4969Q313.28125 343.09064 314.04688 343.09064Q314.60938 343.09064 315.04688 343.325Q315.48438 343.5594 315.76562 343.9344L315.76562 340.85626L316.8125 340.85626L316.8125 349.45L315.82812 349.45ZM312.5 346.34064Q312.5 347.54376 313.0 348.1375Q313.5 348.71564 314.1875 348.71564Q314.875 348.71564 315.35938 348.15314Q315.84375 347.59064 315.84375 346.4344Q315.84375 345.15314 315.34375 344.5594Q314.85938 343.96564 314.14062 343.96564Q313.4375 343.96564 312.96875 344.54376Q312.5 345.10626 312.5 346.34064ZM323.04688 347.45L324.14062 347.575Q323.89062 348.52814 323.1875 349.0594Q322.48438 349.59064 321.40625 349.59064Q320.04688 349.59064 319.23438 348.7469Q318.4375 347.90314 318.4375 346.3875Q318.4375 344.825 319.25 343.96564Q320.0625 343.09064 321.34375 343.09064Q322.59375 343.09064 323.375 343.9344Q324.17188 344.77814 324.17188 346.325Q324.17188 346.41876 324.17188 346.60626L319.53125 346.60626Q319.59375 347.6375 320.10938 348.1844Q320.625 348.71564 321.40625 348.71564Q321.98438 348.71564 322.39062 348.41876Q322.8125 348.10626 323.04688 347.45ZM319.59375 345.7469L323.0625 345.7469Q323.0 344.95 322.67188 344.5594Q322.15625 343.95 321.35938 343.95Q320.625 343.95 320.125 344.4344Q319.64062 344.91876 319.59375 345.7469ZM326.04688 349.45L326.04688 344.04376L325.10938 344.04376L325.10938 343.23126L326.04688 343.23126L326.04688 342.5594Q326.04688 341.9344 326.15625 341.6375Q326.3125 341.21564 326.6875 340.96564Q327.07812 340.71564 327.76562 340.71564Q328.21875 340.71564 328.75 340.825L328.59375 341.73126Q328.26562 341.6844 327.96875 341.6844Q327.48438 341.6844 327.28125 341.8875Q327.09375 342.09064 327.09375 342.65314L327.09375 343.23126L328.3125 343.23126L328.3125 344.04376L327.09375 344.04376L327.09375 349.45L326.04688 349.45ZM332.85938 348.6844Q332.26562 349.1844 331.71875 349.3875Q331.1875 349.59064 330.5625 349.59064Q329.53125 349.59064 328.98438 349.09064Q328.4375 348.59064 328.4375 347.8094Q328.4375 347.35626 328.64062 346.98126Q328.84375 346.59064 329.1875 346.3719Q329.53125 346.1375 329.95312 346.02814Q330.25 345.9344 330.89062 345.85626Q332.15625 345.71564 332.76562 345.4969Q332.76562 345.27814 332.76562 345.23126Q332.76562 344.575 332.46875 344.3094Q332.0625 343.96564 331.26562 343.96564Q330.53125 343.96564 330.17188 344.23126Q329.8125 344.48126 329.64062 345.1375L328.60938 344.9969Q328.75 344.34064 329.07812 343.9344Q329.40625 343.52814 330.01562 343.3094Q330.625 343.09064 331.42188 343.09064Q332.21875 343.09064 332.71875 343.27814Q333.21875 343.46564 333.45312 343.7469Q333.6875 344.02814 333.78125 344.46564Q333.82812 344.73126 333.82812 345.4344L333.82812 346.84064Q333.82812 348.3094 333.89062 348.7Q333.96875 349.09064 334.17188 349.45L333.0625 349.45Q332.90625 349.1219 332.85938 348.6844ZM332.76562 346.325Q332.1875 346.5594 331.04688 346.73126Q330.39062 346.825 330.125 346.95Q329.85938 347.0594 329.70312 347.27814Q329.5625 347.4969 329.5625 347.77814Q329.5625 348.2 329.875 348.48126Q330.20312 348.7625 330.8125 348.7625Q331.42188 348.7625 331.89062 348.4969Q332.375 348.23126 332.59375 347.7625Q332.76562 347.40314 332.76562 346.71564L332.76562 346.325ZM339.875 349.45L339.875 348.52814Q339.14062 349.59064 337.89062 349.59064Q337.34375 349.59064 336.85938 349.3875Q336.39062 349.16876 336.15625 348.85626Q335.92188 348.52814 335.82812 348.0594Q335.76562 347.7625 335.76562 347.075L335.76562 343.23126L336.82812 343.23126L336.82812 346.6844Q336.82812 347.4969 336.89062 347.79376Q336.98438 348.2 337.29688 348.45Q337.625 348.6844 338.10938 348.6844Q338.57812 348.6844 338.98438 348.45Q339.40625 348.2 339.57812 347.77814Q339.76562 347.35626 339.76562 346.5594L339.76562 343.23126L340.8125 343.23126L340.8125 349.45L339.875 349.45ZM342.76562 349.45L342.76562 340.85626L343.82812 340.85626L343.82812 349.45L342.76562 349.45ZM348.09375 348.5125L348.25 349.4344Q347.79688 349.52814 347.45312 349.52814Q346.875 349.52814 346.5625 349.35626Q346.25 349.16876 346.10938 348.8719Q345.98438 348.575 345.98438 347.6219L345.98438 344.04376L345.21875 344.04376L345.21875 343.23126L345.98438 343.23126L345.98438 341.6844L347.03125 341.0594L347.03125 343.23126L348.09375 343.23126L348.09375 344.04376L347.03125 344.04376L347.03125 347.6844Q347.03125 348.1375 347.07812 348.2625Q347.14062 348.3875 347.26562 348.46564Q347.39062 348.54376 347.625 348.54376Q347.8125 348.54376 348.09375 348.5125Z" fill-rule="nonzero"/><path fill="#4285f4" d="M27.0 56.916668C27.0 56.364384 27.447716 55.916668 28.0 55.916668L38.0 55.916668C38.552284 55.916668 39.0 56.364384 39.0 56.916668L39.0 66.916664C39.0 67.46895 38.552284 67.916664 38.0 67.916664L28.0 67.916664C27.447716 67.916664 27.0 67.46895 27.0 66.916664Z" fill-rule="nonzero"/><path fill="#1a1a1a" d="M47.578125 61.729164Q47.578125 59.58854 48.71875 58.385414Q49.875 57.166664 51.6875 57.166664Q52.890625 57.166664 53.84375 57.74479Q54.796875 58.30729 55.296875 59.322914Q55.796875 60.33854 55.796875 61.635414Q55.796875 62.93229 55.265625 63.96354Q54.734375 64.99479 53.765625 65.52604Q52.8125 66.05729 51.6875 66.05729Q50.46875 66.05729 49.515625 65.479164Q48.5625 64.885414 48.0625 63.885414Q47.578125 62.86979 47.578125 61.729164ZM48.75 61.74479Q48.75 63.30729 49.578125 64.197914Q50.421875 65.08854 51.6875 65.08854Q52.96875 65.08854 53.796875 64.197914Q54.625 63.291664 54.625 61.61979Q54.625 60.572914 54.265625 59.791664Q53.921875 59.010414 53.234375 58.58854Q52.546875 58.15104 51.703125 58.15104Q50.5 58.15104 49.625 58.979164Q48.75 59.80729 48.75 61.74479ZM56.796875 68.30729L56.796875 59.697914L57.75 59.697914L57.75 60.49479Q58.09375 60.02604 58.515625 59.791664Q58.953125 59.55729 59.5625 59.55729Q60.359375 59.55729 60.96875 59.96354Q61.578125 60.36979 61.875 61.11979Q62.1875 61.86979 62.1875 62.760414Q62.1875 63.71354 61.84375 64.479164Q61.515625 65.24479 60.859375 65.65104Q60.203125 66.05729 59.484375 66.05729Q58.953125 66.05729 58.53125 65.83854Q58.109375 65.604164 57.84375 65.27604L57.84375 68.30729L56.796875 68.30729ZM57.75 62.83854Q57.75 64.041664 58.234375 64.61979Q58.71875 65.18229 59.40625 65.18229Q60.109375 65.18229 60.609375 64.58854Q61.109375 63.99479 61.109375 62.74479Q61.109375 61.55729 60.625 60.979164Q60.140625 60.385414 59.453125 60.385414Q58.78125 60.385414 58.265625 61.010414Q57.75 61.635414 57.75 62.83854ZM68.046875 63.916664L69.140625 64.041664Q68.890625 64.99479 68.1875 65.52604Q67.484375 66.05729 66.40625 66.05729Q65.046875 66.05729 64.234375 65.21354Q63.4375 64.36979 63.4375 62.854164Q63.4375 61.291664 64.25 60.43229Q65.0625 59.55729 66.34375 59.55729Q67.59375 59.55729 68.375 60.40104Q69.171875 61.24479 69.171875 62.791664Q69.171875 62.885414 69.171875 63.072914L64.53125 63.072914Q64.59375 64.104164 65.109375 64.65104Q65.625 65.18229 66.40625 65.18229Q66.984375 65.18229 67.390625 64.885414Q67.8125 64.572914 68.046875 63.916664ZM64.59375 62.21354L68.0625 62.21354Q68.0 61.416664 67.671875 61.02604Q67.15625 60.416664 66.359375 60.416664Q65.625 60.416664 65.125 60.90104Q64.640625 61.385414 64.59375 62.21354ZM70.796875 65.916664L70.796875 59.697914L71.734375 59.697914L71.734375 60.572914Q72.421875 59.55729 73.71875 59.55729Q74.28125 59.55729 74.75 59.760414Q75.234375 59.96354 75.46875 60.291664Q75.703125 60.61979 75.796875 61.05729Q75.84375 61.354164 75.84375 62.08854L75.84375 65.916664L74.796875 65.916664L74.796875 62.135414Q74.796875 61.479164 74.671875 61.166664Q74.546875 60.854164 74.234375 60.666664Q73.921875 60.46354 73.5 60.46354Q72.828125 60.46354 72.328125 60.90104Q71.84375 61.322914 71.84375 62.510414L71.84375 65.916664L70.796875 65.916664ZM77.890625 65.916664L77.890625 57.322914L79.609375 57.322914L81.640625 63.40104Q81.921875 64.260414 82.046875 64.68229Q82.1875 64.21354 82.5 63.30729L84.5625 57.322914L86.09375 57.322914L86.09375 65.916664L85.0 65.916664L85.0 58.729164L82.5 65.916664L81.46875 65.916664L78.984375 58.604164L78.984375 65.916664L77.890625 65.916664ZM87.921875 65.916664L87.921875 57.322914L91.171875 57.322914Q92.015625 57.322914 92.46875 57.40104Q93.109375 57.510414 93.53125 57.80729Q93.96875 58.104164 94.21875 58.635414Q94.484375 59.166664 94.484375 59.80729Q94.484375 60.90104 93.78125 61.666664Q93.09375 62.416664 91.265625 62.416664L89.0625 62.416664L89.0625 65.916664L87.921875 65.916664ZM89.0625 61.416664L91.28125 61.416664Q92.390625 61.416664 92.84375 61.010414Q93.3125 60.58854 93.3125 59.83854Q93.3125 59.30729 93.03125 58.93229Q92.765625 58.541664 92.328125 58.416664Q92.03125 58.33854 91.265625 58.33854L89.0625 58.33854L89.0625 61.416664ZM102.46875 65.916664L101.421875 65.916664L101.421875 59.197914Q101.03125 59.55729 100.40625 59.93229Q99.796875 60.291664 99.3125 60.46354L99.3125 59.447914Q100.1875 59.02604 100.84375 58.447914Q101.515625 57.854164 101.796875 57.291664L102.46875 57.291664L102.46875 65.916664ZM111.109375 65.916664L111.109375 58.33854L108.28125 58.33854L108.28125 57.322914L115.09375 57.322914L115.09375 58.33854L112.25 58.33854L112.25 65.916664L111.109375 65.916664ZM115.796875 65.916664L115.796875 57.322914L116.84375 57.322914L116.84375 60.40104Q117.578125 59.55729 118.703125 59.55729Q119.40625 59.55729 119.90625 59.83854Q120.421875 60.104164 120.640625 60.58854Q120.859375 61.05729 120.859375 61.979164L120.859375 65.916664L119.8125 65.916664L119.8125 61.979164Q119.8125 61.18229 119.46875 60.822914Q119.125 60.46354 118.5 60.46354Q118.03125 60.46354 117.609375 60.71354Q117.203125 60.947914 117.015625 61.36979Q116.84375 61.77604 116.84375 62.510414L116.84375 65.916664L115.796875 65.916664ZM122.78125 65.916664L122.78125 59.697914L123.734375 59.697914L123.734375 60.635414Q124.09375 59.979164 124.390625 59.77604Q124.703125 59.55729 125.078125 59.55729Q125.609375 59.55729 126.15625 59.885414L125.796875 60.86979Q125.40625 60.635414 125.03125 60.635414Q124.671875 60.635414 124.390625 60.854164Q124.125 61.05729 124.015625 61.43229Q123.828125 61.99479 123.828125 62.65104L123.828125 65.916664L122.78125 65.916664ZM131.04688 63.916664L132.14062 64.041664Q131.89062 64.99479 131.1875 65.52604Q130.48438 66.05729 129.40625 66.05729Q128.04688 66.05729 127.234375 65.21354Q126.4375 64.36979 126.4375 62.854164Q126.4375 61.291664 127.25 60.43229Q128.0625 59.55729 129.34375 59.55729Q130.59375 59.55729 131.375 60.40104Q132.17188 61.24479 132.17188 62.791664Q132.17188 62.885414 132.17188 63.072914L127.53125 63.072914Q127.59375 64.104164 128.10938 64.65104Q128.625 65.18229 129.40625 65.18229Q129.98438 65.18229 130.39062 64.885414Q130.8125 64.572914 131.04688 63.916664ZM127.59375 62.21354L131.0625 62.21354Q131.0 61.416664 130.67188 61.02604Q130.15625 60.416664 129.35938 60.416664Q128.625 60.416664 128.125 60.90104Q127.640625 61.385414 127.59375 62.21354ZM137.85938 65.15104Q137.26562 65.65104 136.71875 65.854164Q136.1875 66.05729 135.5625 66.05729Q134.53125 66.05729 133.98438 65.55729Q133.4375 65.05729 133.4375 64.27604Q133.4375 63.822914 133.64062 63.447914Q133.84375 63.05729 134.1875 62.83854Q134.53125 62.604164 134.95312 62.49479Q135.25 62.40104 135.89062 62.322914Q137.15625 62.18229 137.76562 61.96354Q137.76562 61.74479 137.76562 61.697914Q137.76562 61.041664 137.46875 60.77604Q137.0625 60.43229 136.26562 60.43229Q135.53125 60.43229 135.17188 60.697914Q134.8125 60.947914 134.64062 61.604164L133.60938 61.46354Q133.75 60.80729 134.07812 60.40104Q134.40625 59.99479 135.01562 59.77604Q135.625 59.55729 136.42188 59.55729Q137.21875 59.55729 137.71875 59.74479Q138.21875 59.93229 138.45312 60.21354Q138.6875 60.49479 138.78125 60.93229Q138.82812 61.197914 138.82812 61.90104L138.82812 63.30729Q138.82812 64.77604 138.89062 65.166664Q138.96875 65.55729 139.17188 65.916664L138.0625 65.916664Q137.90625 65.58854 137.85938 65.15104ZM137.76562 62.791664Q137.1875 63.02604 136.04688 63.197914Q135.39062 63.291664 135.125 63.416664Q134.85938 63.52604 134.70312 63.74479Q134.5625 63.96354 134.5625 64.24479Q134.5625 64.666664 134.875 64.947914Q135.20312 65.229164 135.8125 65.229164Q136.42188 65.229164 136.89062 64.96354Q137.375 64.697914 137.59375 64.229164Q137.76562 63.86979 137.76562 63.18229L137.76562 62.791664ZM144.82812 65.916664L144.82812 65.135414Q144.23438 66.05729 143.09375 66.05729Q142.34375 66.05729 141.71875 65.65104Q141.09375 65.229164 140.75 64.49479Q140.40625 63.760414 140.40625 62.80729Q140.40625 61.885414 140.71875 61.11979Q141.03125 60.354164 141.65625 59.96354Q142.28125 59.55729 143.04688 59.55729Q143.60938 59.55729 144.04688 59.791664Q144.48438 60.02604 144.76562 60.40104L144.76562 57.322914L145.8125 57.322914L145.8125 65.916664L144.82812 65.916664ZM141.5 62.80729Q141.5 64.010414 142.0 64.604164Q142.5 65.18229 143.1875 65.18229Q143.875 65.18229 144.35938 64.61979Q144.84375 64.05729 144.84375 62.90104Q144.84375 61.61979 144.34375 61.02604Q143.85938 60.43229 143.14062 60.43229Q142.4375 60.43229 141.96875 61.010414Q141.5 61.572914 141.5 62.80729Z" fill-rule="nonzero"/><path fill="#ea4335" d="M163.0 56.916668C163.0 56.364384 163.44771 55.916668 164.0 55.916668L174.0 55.916668C174.55229 55.916668 175.0 56.364384 175.0 56.916668L175.0 66.916664C175.0 67.46895 174.55229 67.916664 174.0 67.916664L164.0 67.916664C163.44771 67.916664 163.0 67.46895 163.0 66.916664Z" fill-rule="nonzero"/><path fill="#1a1a1a" d="M183.57812 61.729164Q183.57812 59.58854 184.71875 58.385414Q185.875 57.166664 187.6875 57.166664Q188.89062 57.166664 189.84375 57.74479Q190.79688 58.30729 191.29688 59.322914Q191.79688 60.33854 191.79688 61.635414Q191.79688 62.93229 191.26562 63.96354Q190.73438 64.99479 189.76562 65.52604Q188.8125 66.05729 187.6875 66.05729Q186.46875 66.05729 185.51562 65.479164Q184.5625 64.885414 184.0625 63.885414Q183.57812 62.86979 183.57812 61.729164ZM184.75 61.74479Q184.75 63.30729 185.57812 64.197914Q186.42188 65.08854 187.6875 65.08854Q188.96875 65.08854 189.79688 64.197914Q190.625 63.291664 190.625 61.61979Q190.625 60.572914 190.26562 59.791664Q189.92188 59.010414 189.23438 58.58854Q188.54688 58.15104 187.70312 58.15104Q186.5 58.15104 185.625 58.979164Q184.75 59.80729 184.75 61.74479ZM192.79688 68.30729L192.79688 59.697914L193.75 59.697914L193.75 60.49479Q194.09375 60.02604 194.51562 59.791664Q194.95312 59.55729 195.5625 59.55729Q196.35938 59.55729 196.96875 59.96354Q197.57812 60.36979 197.875 61.11979Q198.1875 61.86979 198.1875 62.760414Q198.1875 63.71354 197.84375 64.479164Q197.51562 65.24479 196.85938 65.65104Q196.20312 66.05729 195.48438 66.05729Q194.95312 66.05729 194.53125 65.83854Q194.10938 65.604164 193.84375 65.27604L193.84375 68.30729L192.79688 68.30729ZM193.75 62.83854Q193.75 64.041664 194.23438 64.61979Q194.71875 65.18229 195.40625 65.18229Q196.10938 65.18229 196.60938 64.58854Q197.10938 63.99479 197.10938 62.74479Q197.10938 61.55729 196.625 60.979164Q196.14062 60.385414 195.45312 60.385414Q194.78125 60.385414 194.26562 61.010414Q193.75 61.635414 193.75 62.83854ZM204.04688 63.916664L205.14062 64.041664Q204.89062 64.99479 204.1875 65.52604Q203.48438 66.05729 202.40625 66.05729Q201.04688 66.05729 200.23438 65.21354Q199.4375 64.36979 199.4375 62.854164Q199.4375 61.291664 200.25 60.43229Q201.0625 59.55729 202.34375 59.55729Q203.59375 59.55729 204.375 60.40104Q205.17188 61.24479 205.17188 62.791664Q205.17188 62.885414 205.17188 63.072914L200.53125 63.072914Q200.59375 64.104164 201.10938 64.65104Q201.625 65.18229 202.40625 65.18229Q202.98438 65.18229 203.39062 64.885414Q203.8125 64.572914 204.04688 63.916664ZM200.59375 62.21354L204.0625 62.21354Q204.0 61.416664 203.67188 61.02604Q203.15625 60.416664 202.35938 60.416664Q201.625 60.416664 201.125 60.90104Q200.64062 61.385414 200.59375 62.21354ZM206.79688 65.916664L206.79688 59.697914L207.73438 59.697914L207.73438 60.572914Q208.42188 59.55729 209.71875 59.55729Q210.28125 59.55729 210.75 59.760414Q211.23438 59.96354 211.46875 60.291664Q211.70312 60.61979 211.79688 61.05729Q211.84375 61.354164 211.84375 62.08854L211.84375 65.916664L210.79688 65.916664L210.79688 62.135414Q210.79688 61.479164 210.67188 61.166664Q210.54688 60.854164 210.23438 60.666664Q209.92188 60.46354 209.5 60.46354Q208.82812 60.46354 208.32812 60.90104Q207.84375 61.322914 207.84375 62.510414L207.84375 65.916664L206.79688 65.916664ZM213.89062 65.916664L213.89062 57.322914L215.60938 57.322914L217.64062 63.40104Q217.92188 64.260414 218.04688 64.68229Q218.1875 64.21354 218.5 63.30729L220.5625 57.322914L222.09375 57.322914L222.09375 65.916664L221.0 65.916664L221.0 58.729164L218.5 65.916664L217.46875 65.916664L214.98438 58.604164L214.98438 65.916664L213.89062 65.916664ZM223.92188 65.916664L223.92188 57.322914L227.17188 57.322914Q228.01562 57.322914 228.46875 57.40104Q229.10938 57.510414 229.53125 57.80729Q229.96875 58.104164 230.21875 58.635414Q230.48438 59.166664 230.48438 59.80729Q230.48438 60.90104 229.78125 61.666664Q229.09375 62.416664 227.26562 62.416664L225.0625 62.416664L225.0625 65.916664L223.92188 65.916664ZM225.0625 61.416664L227.28125 61.416664Q228.39062 61.416664 228.84375 61.010414Q229.3125 60.58854 229.3125 59.83854Q229.3125 59.30729 229.03125 58.93229Q228.76562 58.541664 228.32812 58.416664Q228.03125 58.33854 227.26562 58.33854L225.0625 58.33854L225.0625 61.416664ZM240.04688 64.90104L240.04688 65.916664L234.35938 65.916664Q234.35938 65.541664 234.48438 65.18229Q234.70312 64.604164 235.17188 64.041664Q235.65625 63.479164 236.5625 62.74479Q237.96875 61.58854 238.45312 60.916664Q238.95312 60.24479 238.95312 59.65104Q238.95312 59.02604 238.5 58.604164Q238.04688 58.166664 237.32812 58.166664Q236.5625 58.166664 236.10938 58.61979Q235.65625 59.072914 235.64062 59.885414L234.5625 59.77604Q234.67188 58.55729 235.39062 57.93229Q236.125 57.291664 237.35938 57.291664Q238.59375 57.291664 239.3125 57.979164Q240.03125 58.666664 240.03125 59.68229Q240.03125 60.197914 239.8125 60.697914Q239.60938 61.18229 239.10938 61.74479Q238.625 62.291664 237.5 63.24479Q236.54688 64.041664 236.26562 64.33854Q236.0 64.61979 235.82812 64.90104L240.04688 64.90104ZM247.10938 65.916664L247.10938 58.33854L244.28125 58.33854L244.28125 57.322914L251.09375 57.322914L251.09375 58.33854L248.25 58.33854L248.25 65.916664L247.10938 65.916664ZM251.79688 65.916664L251.79688 57.322914L252.84375 57.322914L252.84375 60.40104Q253.57812 59.55729 254.70312 59.55729Q255.40625 59.55729 255.90625 59.83854Q256.42188 60.104164 256.64062 60.58854Q256.85938 61.05729 256.85938 61.979164L256.85938 65.916664L255.8125 65.916664L255.8125 61.979164Q255.8125 61.18229 255.46875 60.822914Q255.125 60.46354 254.5 60.46354Q254.03125 60.46354 253.60938 60.71354Q253.20312 60.947914 253.01562 61.36979Q252.84375 61.77604 252.84375 62.510414L252.84375 65.916664L251.79688 65.916664ZM258.78125 65.916664L258.78125 59.697914L259.73438 59.697914L259.73438 60.635414Q260.09375 59.979164 260.39062 59.77604Q260.70312 59.55729 261.07812 59.55729Q261.60938 59.55729 262.15625 59.885414L261.79688 60.86979Q261.40625 60.635414 261.03125 60.635414Q260.67188 60.635414 260.39062 60.854164Q260.125 61.05729 260.01562 61.43229Q259.82812 61.99479 259.82812 62.65104L259.82812 65.916664L258.78125 65.916664ZM267.04688 63.916664L268.14062 64.041664Q267.89062 64.99479 267.1875 65.52604Q266.48438 66.05729 265.40625 66.05729Q264.04688 66.05729 263.23438 65.21354Q262.4375 64.36979 262.4375 62.854164Q262.4375 61.291664 263.25 60.43229Q264.0625 59.55729 265.34375 59.55729Q266.59375 59.55729 267.375 60.40104Q268.17188 61.24479 268.17188 62.791664Q268.17188 62.885414 268.17188 63.072914L263.53125 63.072914Q263.59375 64.104164 264.10938 64.65104Q264.625 65.18229 265.40625 65.18229Q265.98438 65.18229 266.39062 64.885414Q266.8125 64.572914 267.04688 63.916664ZM263.59375 62.21354L267.0625 62.21354Q267.0 61.416664 266.67188 61.02604Q266.15625 60.416664 265.35938 60.416664Q264.625 60.416664 264.125 60.90104Q263.64062 61.385414 263.59375 62.21354ZM273.85938 65.15104Q273.26562 65.65104 272.71875 65.854164Q272.1875 66.05729 271.5625 66.05729Q270.53125 66.05729 269.98438 65.55729Q269.4375 65.05729 269.4375 64.27604Q269.4375 63.822914 269.64062 63.447914Q269.84375 63.05729 270.1875 62.83854Q270.53125 62.604164 270.95312 62.49479Q271.25 62.40104 271.89062 62.322914Q273.15625 62.18229 273.76562 61.96354Q273.76562 61.74479 273.76562 61.697914Q273.76562 61.041664 273.46875 60.77604Q273.0625 60.43229 272.26562 60.43229Q271.53125 60.43229 271.17188 60.697914Q270.8125 60.947914 270.64062 61.604164L269.60938 61.46354Q269.75 60.80729 270.07812 60.40104Q270.40625 59.99479 271.01562 59.77604Q271.625 59.55729 272.42188 59.55729Q273.21875 59.55729 273.71875 59.74479Q274.21875 59.93229 274.45312 60.21354Q274.6875 60.49479 274.78125 60.93229Q274.82812 61.197914 274.82812 61.90104L274.82812 63.30729Q274.82812 64.77604 274.89062 65.166664Q274.96875 65.55729 275.17188 65.916664L274.0625 65.916664Q273.90625 65.58854 273.85938 65.15104ZM273.76562 62.791664Q273.1875 63.02604 272.04688 63.197914Q271.39062 63.291664 271.125 63.416664Q270.85938 63.52604 270.70312 63.74479Q270.5625 63.96354 270.5625 64.24479Q270.5625 64.666664 270.875 64.947914Q271.20312 65.229164 271.8125 65.229164Q272.42188 65.229164 272.89062 64.96354Q273.375 64.697914 273.59375 64.229164Q273.76562 63.86979 273.76562 63.18229L273.76562 62.791664ZM280.82812 65.916664L280.82812 65.135414Q280.23438 66.05729 279.09375 66.05729Q278.34375 66.05729 277.71875 65.65104Q277.09375 65.229164 276.75 64.49479Q276.40625 63.760414 276.40625 62.80729Q276.40625 61.885414 276.71875 61.11979Q277.03125 60.354164 277.65625 59.96354Q278.28125 59.55729 279.04688 59.55729Q279.60938 59.55729 280.04688 59.791664Q280.48438 60.02604 280.76562 60.40104L280.76562 57.322914L281.8125 57.322914L281.8125 65.916664L280.82812 65.916664ZM277.5 62.80729Q277.5 64.010414 278.0 64.604164Q278.5 65.18229 279.1875 65.18229Q279.875 65.18229 280.35938 64.61979Q280.84375 64.05729 280.84375 62.90104Q280.84375 61.61979 280.34375 61.02604Q279.85938 60.43229 279.14062 60.43229Q278.4375 60.43229 277.96875 61.010414Q277.5 61.572914 277.5 62.80729ZM283.375 64.05729L284.40625 63.90104Q284.5 64.52604 284.89062 64.854164Q285.29688 65.18229 286.03125 65.18229Q286.75 65.18229 287.09375 64.90104Q287.45312 64.604164 287.45312 64.197914Q287.45312 63.83854 287.14062 63.635414Q286.92188 63.49479 286.0625 63.27604Q284.90625 62.979164 284.45312 62.77604Q284.01562 62.55729 283.78125 62.18229Q283.54688 61.80729 283.54688 61.33854Q283.54688 60.93229 283.73438 60.572914Q283.92188 60.21354 284.25 59.979164Q284.5 59.80729 284.92188 59.68229Q285.34375 59.55729 285.84375 59.55729Q286.5625 59.55729 287.10938 59.77604Q287.67188 59.979164 287.9375 60.33854Q288.20312 60.697914 288.29688 61.291664L287.26562 61.43229Q287.20312 60.96354 286.85938 60.697914Q286.53125 60.416664 285.90625 60.416664Q285.1875 60.416664 284.875 60.666664Q284.5625 60.90104 284.5625 61.229164Q284.5625 61.43229 284.6875 61.58854Q284.82812 61.760414 285.09375 61.86979Q285.25 61.93229 286.03125 62.135414Q287.15625 62.447914 287.59375 62.635414Q288.03125 62.822914 288.28125 63.18229Q288.53125 63.541664 288.53125 64.08854Q288.53125 64.61979 288.21875 65.08854Q287.92188 65.541664 287.34375 65.80729Q286.76562 66.05729 286.03125 66.05729Q284.8125 66.05729 284.17188 65.55729Q283.54688 65.041664 283.375 64.05729Z" fill-rule="nonzero"/><path fill="#fbbc04" d="M305.0 56.916668C305.0 56.364384 305.44772 55.916668 306.0 55.916668L316.0 55.916668C316.55228 55.916668 317.0 56.364384 317.0 56.916668L317.0 66.916664C317.0 67.46895 316.55228 67.916664 316.0 67.916664L306.0 67.916664C305.44772 67.916664 305.0 67.46895 305.0 66.916664Z" fill-rule="nonzero"/><path fill="#1a1a1a" d="M325.57812 61.729164Q325.57812 59.58854 326.71875 58.385414Q327.875 57.166664 329.6875 57.166664Q330.89062 57.166664 331.84375 57.74479Q332.79688 58.30729 333.29688 59.322914Q333.79688 60.33854 333.79688 61.635414Q333.79688 62.93229 333.26562 63.96354Q332.73438 64.99479 331.76562 65.52604Q330.8125 66.05729 329.6875 66.05729Q328.46875 66.05729 327.51562 65.479164Q326.5625 64.885414 326.0625 63.885414Q325.57812 62.86979 325.57812 61.729164ZM326.75 61.74479Q326.75 63.30729 327.57812 64.197914Q328.42188 65.08854 329.6875 65.08854Q330.96875 65.08854 331.79688 64.197914Q332.625 63.291664 332.625 61.61979Q332.625 60.572914 332.26562 59.791664Q331.92188 59.010414 331.23438 58.58854Q330.54688 58.15104 329.70312 58.15104Q328.5 58.15104 327.625 58.979164Q326.75 59.80729 326.75 61.74479ZM334.79688 68.30729L334.79688 59.697914L335.75 59.697914L335.75 60.49479Q336.09375 60.02604 336.51562 59.791664Q336.95312 59.55729 337.5625 59.55729Q338.35938 59.55729 338.96875 59.96354Q339.57812 60.36979 339.875 61.11979Q340.1875 61.86979 340.1875 62.760414Q340.1875 63.71354 339.84375 64.479164Q339.51562 65.24479 338.85938 65.65104Q338.20312 66.05729 337.48438 66.05729Q336.95312 66.05729 336.53125 65.83854Q336.10938 65.604164 335.84375 65.27604L335.84375 68.30729L334.79688 68.30729ZM335.75 62.83854Q335.75 64.041664 336.23438 64.61979Q336.71875 65.18229 337.40625 65.18229Q338.10938 65.18229 338.60938 64.58854Q339.10938 63.99479 339.10938 62.74479Q339.10938 61.55729 338.625 60.979164Q338.14062 60.385414 337.45312 60.385414Q336.78125 60.385414 336.26562 61.010414Q335.75 61.635414 335.75 62.83854ZM346.04688 63.916664L347.14062 64.041664Q346.89062 64.99479 346.1875 65.52604Q345.48438 66.05729 344.40625 66.05729Q343.04688 66.05729 342.23438 65.21354Q341.4375 64.36979 341.4375 62.854164Q341.4375 61.291664 342.25 60.43229Q343.0625 59.55729 344.34375 59.55729Q345.59375 59.55729 346.375 60.40104Q347.17188 61.24479 347.17188 62.791664Q347.17188 62.885414 347.17188 63.072914L342.53125 63.072914Q342.59375 64.104164 343.10938 64.65104Q343.625 65.18229 344.40625 65.18229Q344.98438 65.18229 345.39062 64.885414Q345.8125 64.572914 346.04688 63.916664ZM342.59375 62.21354L346.0625 62.21354Q346.0 61.416664 345.67188 61.02604Q345.15625 60.416664 344.35938 60.416664Q343.625 60.416664 343.125 60.90104Q342.64062 61.385414 342.59375 62.21354ZM348.79688 65.916664L348.79688 59.697914L349.73438 59.697914L349.73438 60.572914Q350.42188 59.55729 351.71875 59.55729Q352.28125 59.55729 352.75 59.760414Q353.23438 59.96354 353.46875 60.291664Q353.70312 60.61979 353.79688 61.05729Q353.84375 61.354164 353.84375 62.08854L353.84375 65.916664L352.79688 65.916664L352.79688 62.135414Q352.79688 61.479164 352.67188 61.166664Q352.54688 60.854164 352.23438 60.666664Q351.92188 60.46354 351.5 60.46354Q350.82812 60.46354 350.32812 60.90104Q349.84375 61.322914 349.84375 62.510414L349.84375 65.916664L348.79688 65.916664ZM355.89062 65.916664L355.89062 57.322914L357.60938 57.322914L359.64062 63.40104Q359.92188 64.260414 360.04688 64.68229Q360.1875 64.21354 360.5 63.30729L362.5625 57.322914L364.09375 57.322914L364.09375 65.916664L363.0 65.916664L363.0 58.729164L360.5 65.916664L359.46875 65.916664L356.98438 58.604164L356.98438 65.916664L355.89062 65.916664ZM365.92188 65.916664L365.92188 57.322914L369.17188 57.322914Q370.01562 57.322914 370.46875 57.40104Q371.10938 57.510414 371.53125 57.80729Q371.96875 58.104164 372.21875 58.635414Q372.48438 59.166664 372.48438 59.80729Q372.48438 60.90104 371.78125 61.666664Q371.09375 62.416664 369.26562 62.416664L367.0625 62.416664L367.0625 65.916664L365.92188 65.916664ZM367.0625 61.416664L369.28125 61.416664Q370.39062 61.416664 370.84375 61.010414Q371.3125 60.58854 371.3125 59.83854Q371.3125 59.30729 371.03125 58.93229Q370.76562 58.541664 370.32812 58.416664Q370.03125 58.33854 369.26562 58.33854L367.0625 58.33854L367.0625 61.416664ZM379.875 65.916664L379.875 63.854164L376.15625 63.854164L376.15625 62.885414L380.07812 57.322914L380.9375 57.322914L380.9375 62.885414L382.09375 62.885414L382.09375 63.854164L380.9375 63.854164L380.9375 65.916664L379.875 65.916664ZM379.875 62.885414L379.875 59.02604L377.1875 62.885414L379.875 62.885414ZM389.10938 65.916664L389.10938 58.33854L386.28125 58.33854L386.28125 57.322914L393.09375 57.322914L393.09375 58.33854L390.25 58.33854L390.25 65.916664L389.10938 65.916664ZM393.79688 65.916664L393.79688 57.322914L394.84375 57.322914L394.84375 60.40104Q395.57812 59.55729 396.70312 59.55729Q397.40625 59.55729 397.90625 59.83854Q398.42188 60.104164 398.64062 60.58854Q398.85938 61.05729 398.85938 61.979164L398.85938 65.916664L397.8125 65.916664L397.8125 61.979164Q397.8125 61.18229 397.46875 60.822914Q397.125 60.46354 396.5 60.46354Q396.03125 60.46354 395.60938 60.71354Q395.20312 60.947914 395.01562 61.36979Q394.84375 61.77604 394.84375 62.510414L394.84375 65.916664L393.79688 65.916664ZM400.78125 65.916664L400.78125 59.697914L401.73438 59.697914L401.73438 60.635414Q402.09375 59.979164 402.39062 59.77604Q402.70312 59.55729 403.07812 59.55729Q403.60938 59.55729 404.15625 59.885414L403.79688 60.86979Q403.40625 60.635414 403.03125 60.635414Q402.67188 60.635414 402.39062 60.854164Q402.125 61.05729 402.01562 61.43229Q401.82812 61.99479 401.82812 62.65104L401.82812 65.916664L400.78125 65.916664ZM409.04688 63.916664L410.14062 64.041664Q409.89062 64.99479 409.1875 65.52604Q408.48438 66.05729 407.40625 66.05729Q406.04688 66.05729 405.23438 65.21354Q404.4375 64.36979 404.4375 62.854164Q404.4375 61.291664 405.25 60.43229Q406.0625 59.55729 407.34375 59.55729Q408.59375 59.55729 409.375 60.40104Q410.17188 61.24479 410.17188 62.791664Q410.17188 62.885414 410.17188 63.072914L405.53125 63.072914Q405.59375 64.104164 406.10938 64.65104Q406.625 65.18229 407.40625 65.18229Q407.98438 65.18229 408.39062 64.885414Q408.8125 64.572914 409.04688 63.916664ZM405.59375 62.21354L409.0625 62.21354Q409.0 61.416664 408.67188 61.02604Q408.15625 60.416664 407.35938 60.416664Q406.625 60.416664 406.125 60.90104Q405.64062 61.385414 405.59375 62.21354ZM415.85938 65.15104Q415.26562 65.65104 414.71875 65.854164Q414.1875 66.05729 413.5625 66.05729Q412.53125 66.05729 411.98438 65.55729Q411.4375 65.05729 411.4375 64.27604Q411.4375 63.822914 411.64062 63.447914Q411.84375 63.05729 412.1875 62.83854Q412.53125 62.604164 412.95312 62.49479Q413.25 62.40104 413.89062 62.322914Q415.15625 62.18229 415.76562 61.96354Q415.76562 61.74479 415.76562 61.697914Q415.76562 61.041664 415.46875 60.77604Q415.0625 60.43229 414.26562 60.43229Q413.53125 60.43229 413.17188 60.697914Q412.8125 60.947914 412.64062 61.604164L411.60938 61.46354Q411.75 60.80729 412.07812 60.40104Q412.40625 59.99479 413.01562 59.77604Q413.625 59.55729 414.42188 59.55729Q415.21875 59.55729 415.71875 59.74479Q416.21875 59.93229 416.45312 60.21354Q416.6875 60.49479 416.78125 60.93229Q416.82812 61.197914 416.82812 61.90104L416.82812 63.30729Q416.82812 64.77604 416.89062 65.166664Q416.96875 65.55729 417.17188 65.916664L416.0625 65.916664Q415.90625 65.58854 415.85938 65.15104ZM415.76562 62.791664Q415.1875 63.02604 414.04688 63.197914Q413.39062 63.291664 413.125 63.416664Q412.85938 63.52604 412.70312 63.74479Q412.5625 63.96354 412.5625 64.24479Q412.5625 64.666664 412.875 64.947914Q413.20312 65.229164 413.8125 65.229164Q414.42188 65.229164 414.89062 64.96354Q415.375 64.697914 415.59375 64.229164Q415.76562 63.86979 415.76562 63.18229L415.76562 62.791664ZM422.82812 65.916664L422.82812 65.135414Q422.23438 66.05729 421.09375 66.05729Q420.34375 66.05729 419.71875 65.65104Q419.09375 65.229164 418.75 64.49479Q418.40625 63.760414 418.40625 62.80729Q418.40625 61.885414 418.71875 61.11979Q419.03125 60.354164 419.65625 59.96354Q420.28125 59.55729 421.04688 59.55729Q421.60938 59.55729 422.04688 59.791664Q422.48438 60.02604 422.76562 60.40104L422.76562 57.322914L423.8125 57.322914L423.8125 65.916664L422.82812 65.916664ZM419.5 62.80729Q419.5 64.010414 420.0 64.604164Q420.5 65.18229 421.1875 65.18229Q421.875 65.18229 422.35938 64.61979Q422.84375 64.05729 422.84375 62.90104Q422.84375 61.61979 422.34375 61.02604Q421.85938 60.43229 421.14062 60.43229Q420.4375 60.43229 419.96875 61.010414Q419.5 61.572914 419.5 62.80729ZM425.375 64.05729L426.40625 63.90104Q426.5 64.52604 426.89062 64.854164Q427.29688 65.18229 428.03125 65.18229Q428.75 65.18229 429.09375 64.90104Q429.45312 64.604164 429.45312 64.197914Q429.45312 63.83854 429.14062 63.635414Q428.92188 63.49479 428.0625 63.27604Q426.90625 62.979164 426.45312 62.77604Q426.01562 62.55729 425.78125 62.18229Q425.54688 61.80729 425.54688 61.33854Q425.54688 60.93229 425.73438 60.572914Q425.92188 60.21354 426.25 59.979164Q426.5 59.80729 426.92188 59.68229Q427.34375 59.55729 427.84375 59.55729Q428.5625 59.55729 429.10938 59.77604Q429.67188 59.979164 429.9375 60.33854Q430.20312 60.697914 430.29688 61.291664L429.26562 61.43229Q429.20312 60.96354 428.85938 60.697914Q428.53125 60.416664 427.90625 60.416664Q427.1875 60.416664 426.875 60.666664Q426.5625 60.90104 426.5625 61.229164Q426.5625 61.43229 426.6875 61.58854Q426.82812 61.760414 427.09375 61.86979Q427.25 61.93229 428.03125 62.135414Q429.15625 62.447914 429.59375 62.635414Q430.03125 62.822914 430.28125 63.18229Q430.53125 63.541664 430.53125 64.08854Q430.53125 64.61979 430.21875 65.08854Q429.92188 65.541664 429.34375 65.80729Q428.76562 66.05729 428.03125 66.05729Q426.8125 66.05729 426.17188 65.55729Q425.54688 65.041664 425.375 64.05729Z" fill-rule="nonzero"/><path fill="#34a853" d="M447.0 56.916668C447.0 56.364384 447.44772 55.916668 448.0 55.916668L458.0 55.916668C458.55228 55.916668 459.0 56.364384 459.0 56.916668L459.0 66.916664C459.0 67.46895 458.55228 67.916664 458.0 67.916664L448.0 67.916664C447.44772 67.916664 447.0 67.46895 447.0 66.916664Z" fill-rule="nonzero"/><path fill="#1a1a1a" d="M467.57812 61.729164Q467.57812 59.58854 468.71875 58.385414Q469.875 57.166664 471.6875 57.166664Q472.89062 57.166664 473.84375 57.74479Q474.79688 58.30729 475.29688 59.322914Q475.79688 60.33854 475.79688 61.635414Q475.79688 62.93229 475.26562 63.96354Q474.73438 64.99479 473.76562 65.52604Q472.8125 66.05729 471.6875 66.05729Q470.46875 66.05729 469.51562 65.479164Q468.5625 64.885414 468.0625 63.885414Q467.57812 62.86979 467.57812 61.729164ZM468.75 61.74479Q468.75 63.30729 469.57812 64.197914Q470.42188 65.08854 471.6875 65.08854Q472.96875 65.08854 473.79688 64.197914Q474.625 63.291664 474.625 61.61979Q474.625 60.572914 474.26562 59.791664Q473.92188 59.010414 473.23438 58.58854Q472.54688 58.15104 471.70312 58.15104Q470.5 58.15104 469.625 58.979164Q468.75 59.80729 468.75 61.74479ZM476.79688 68.30729L476.79688 59.697914L477.75 59.697914L477.75 60.49479Q478.09375 60.02604 478.51562 59.791664Q478.95312 59.55729 479.5625 59.55729Q480.35938 59.55729 480.96875 59.96354Q481.57812 60.36979 481.875 61.11979Q482.1875 61.86979 482.1875 62.760414Q482.1875 63.71354 481.84375 64.479164Q481.51562 65.24479 480.85938 65.65104Q480.20312 66.05729 479.48438 66.05729Q478.95312 66.05729 478.53125 65.83854Q478.10938 65.604164 477.84375 65.27604L477.84375 68.30729L476.79688 68.30729ZM477.75 62.83854Q477.75 64.041664 478.23438 64.61979Q478.71875 65.18229 479.40625 65.18229Q480.10938 65.18229 480.60938 64.58854Q481.10938 63.99479 481.10938 62.74479Q481.10938 61.55729 480.625 60.979164Q480.14062 60.385414 479.45312 60.385414Q478.78125 60.385414 478.26562 61.010414Q477.75 61.635414 477.75 62.83854ZM488.04688 63.916664L489.14062 64.041664Q488.89062 64.99479 488.1875 65.52604Q487.48438 66.05729 486.40625 66.05729Q485.04688 66.05729 484.23438 65.21354Q483.4375 64.36979 483.4375 62.854164Q483.4375 61.291664 484.25 60.43229Q485.0625 59.55729 486.34375 59.55729Q487.59375 59.55729 488.375 60.40104Q489.17188 61.24479 489.17188 62.791664Q489.17188 62.885414 489.17188 63.072914L484.53125 63.072914Q484.59375 64.104164 485.10938 64.65104Q485.625 65.18229 486.40625 65.18229Q486.98438 65.18229 487.39062 64.885414Q487.8125 64.572914 488.04688 63.916664ZM484.59375 62.21354L488.0625 62.21354Q488.0 61.416664 487.67188 61.02604Q487.15625 60.416664 486.35938 60.416664Q485.625 60.416664 485.125 60.90104Q484.64062 61.385414 484.59375 62.21354ZM490.79688 65.916664L490.79688 59.697914L491.73438 59.697914L491.73438 60.572914Q492.42188 59.55729 493.71875 59.55729Q494.28125 59.55729 494.75 59.760414Q495.23438 59.96354 495.46875 60.291664Q495.70312 60.61979 495.79688 61.05729Q495.84375 61.354164 495.84375 62.08854L495.84375 65.916664L494.79688 65.916664L494.79688 62.135414Q494.79688 61.479164 494.67188 61.166664Q494.54688 60.854164 494.23438 60.666664Q493.92188 60.46354 493.5 60.46354Q492.82812 60.46354 492.32812 60.90104Q491.84375 61.322914 491.84375 62.510414L491.84375 65.916664L490.79688 65.916664ZM497.89062 65.916664L497.89062 57.322914L499.60938 57.322914L501.64062 63.40104Q501.92188 64.260414 502.04688 64.68229Q502.1875 64.21354 502.5 63.30729L504.5625 57.322914L506.09375 57.322914L506.09375 65.916664L505.0 65.916664L505.0 58.729164L502.5 65.916664L501.46875 65.916664L498.98438 58.604164L498.98438 65.916664L497.89062 65.916664ZM507.92188 65.916664L507.92188 57.322914L511.17188 57.322914Q512.0156 57.322914 512.46875 57.40104Q513.1094 57.510414 513.53125 57.80729Q513.96875 58.104164 514.21875 58.635414Q514.4844 59.166664 514.4844 59.80729Q514.4844 60.90104 513.78125 61.666664Q513.09375 62.416664 511.26562 62.416664L509.0625 62.416664L509.0625 65.916664L507.92188 65.916664ZM509.0625 61.416664L511.28125 61.416664Q512.3906 61.416664 512.84375 61.010414Q513.3125 60.58854 513.3125 59.83854Q513.3125 59.30729 513.03125 58.93229Q512.7656 58.541664 512.3281 58.416664Q512.03125 58.33854 511.26562 58.33854L509.0625 58.33854L509.0625 61.416664ZM520.125 61.260414Q519.46875 61.010414 519.1406 60.572914Q518.8281 60.11979 518.8281 59.510414Q518.8281 58.572914 519.5 57.93229Q520.1875 57.291664 521.2969 57.291664Q522.4219 57.291664 523.1094 57.947914Q523.7969 58.604164 523.7969 59.541664Q523.7969 60.135414 523.4844 60.572914Q523.1719 61.010414 522.53125 61.260414Q523.3281 61.510414 523.7344 62.08854Q524.1406 62.666664 524.1406 63.46354Q524.1406 64.55729 523.3594 65.30729Q522.59375 66.05729 521.3125 66.05729Q520.0469 66.05729 519.2656 65.30729Q518.4844 64.55729 518.4844 63.43229Q518.4844 62.58854 518.90625 62.02604Q519.34375 61.46354 520.125 61.260414ZM519.90625 59.46354Q519.90625 60.072914 520.2969 60.46354Q520.7031 60.854164 521.3281 60.854164Q521.9375 60.854164 522.3281 60.479164Q522.71875 60.08854 522.71875 59.52604Q522.71875 58.947914 522.3125 58.55729Q521.90625 58.15104 521.3125 58.15104Q520.7031 58.15104 520.2969 58.541664Q519.90625 58.93229 519.90625 59.46354ZM519.5781 63.43229Q519.5781 63.885414 519.78125 64.30729Q520.0 64.729164 520.4219 64.96354Q520.84375 65.197914 521.3281 65.197914Q522.0781 65.197914 522.5625 64.71354Q523.0625 64.229164 523.0625 63.479164Q523.0625 62.71354 522.5625 62.21354Q522.0625 61.71354 521.2969 61.71354Q520.5469 61.71354 520.0625 62.21354Q519.5781 62.697914 519.5781 63.43229ZM531.1094 65.916664L531.1094 58.33854L528.28125 58.33854L528.28125 57.322914L535.09375 57.322914L535.09375 58.33854L532.25 58.33854L532.25 65.916664L531.1094 65.916664ZM535.7969 65.916664L535.7969 57.322914L536.84375 57.322914L536.84375 60.40104Q537.5781 59.55729 538.7031 59.55729Q539.40625 59.55729 539.90625 59.83854Q540.4219 60.104164 540.6406 60.58854Q540.8594 61.05729 540.8594 61.979164L540.8594 65.916664L539.8125 65.916664L539.8125 61.979164Q539.8125 61.18229 539.46875 60.822914Q539.125 60.46354 538.5 60.46354Q538.03125 60.46354 537.6094 60.71354Q537.2031 60.947914 537.0156 61.36979Q536.84375 61.77604 536.84375 62.510414L536.84375 65.916664L535.7969 65.916664ZM542.78125 65.916664L542.78125 59.697914L543.7344 59.697914L543.7344 60.635414Q544.09375 59.979164 544.3906 59.77604Q544.7031 59.55729 545.0781 59.55729Q545.6094 59.55729 546.15625 59.885414L545.7969 60.86979Q545.40625 60.635414 545.03125 60.635414Q544.6719 60.635414 544.3906 60.854164Q544.125 61.05729 544.0156 61.43229Q543.8281 61.99479 543.8281 62.65104L543.8281 65.916664L542.78125 65.916664ZM551.0469 63.916664L552.1406 64.041664Q551.8906 64.99479 551.1875 65.52604Q550.4844 66.05729 549.40625 66.05729Q548.0469 66.05729 547.2344 65.21354Q546.4375 64.36979 546.4375 62.854164Q546.4375 61.291664 547.25 60.43229Q548.0625 59.55729 549.34375 59.55729Q550.59375 59.55729 551.375 60.40104Q552.1719 61.24479 552.1719 62.791664Q552.1719 62.885414 552.1719 63.072914L547.53125 63.072914Q547.59375 64.104164 548.1094 64.65104Q548.625 65.18229 549.40625 65.18229Q549.9844 65.18229 550.3906 64.885414Q550.8125 64.572914 551.0469 63.916664ZM547.59375 62.21354L551.0625 62.21354Q551.0 61.416664 550.6719 61.02604Q550.15625 60.416664 549.3594 60.416664Q548.625 60.416664 548.125 60.90104Q547.6406 61.385414 547.59375 62.21354ZM557.8594 65.15104Q557.2656 65.65104 556.71875 65.854164Q556.1875 66.05729 555.5625 66.05729Q554.53125 66.05729 553.9844 65.55729Q553.4375 65.05729 553.4375 64.27604Q553.4375 63.822914 553.6406 63.447914Q553.84375 63.05729 554.1875 62.83854Q554.53125 62.604164 554.9531 62.49479Q555.25 62.40104 555.8906 62.322914Q557.15625 62.18229 557.7656 61.96354Q557.7656 61.74479 557.7656 61.697914Q557.7656 61.041664 557.46875 60.77604Q557.0625 60.43229 556.2656 60.43229Q555.53125 60.43229 555.1719 60.697914Q554.8125 60.947914 554.6406 61.604164L553.6094 61.46354Q553.75 60.80729 554.0781 60.40104Q554.40625 59.99479 555.0156 59.77604Q555.625 59.55729 556.4219 59.55729Q557.21875 59.55729 557.71875 59.74479Q558.21875 59.93229 558.4531 60.21354Q558.6875 60.49479 558.78125 60.93229Q558.8281 61.197914 558.8281 61.90104L558.8281 63.30729Q558.8281 64.77604 558.8906 65.166664Q558.96875 65.55729 559.1719 65.916664L558.0625 65.916664Q557.90625 65.58854 557.8594 65.15104ZM557.7656 62.791664Q557.1875 63.02604 556.0469 63.197914Q555.3906 63.291664 555.125 63.416664Q554.8594 63.52604 554.7031 63.74479Q554.5625 63.96354 554.5625 64.24479Q554.5625 64.666664 554.875 64.947914Q555.2031 65.229164 555.8125 65.229164Q556.4219 65.229164 556.8906 64.96354Q557.375 64.697914 557.59375 64.229164Q557.7656 63.86979 557.7656 63.18229L557.7656 62.791664ZM564.8281 65.916664L564.8281 65.135414Q564.2344 66.05729 563.09375 66.05729Q562.34375 66.05729 561.71875 65.65104Q561.09375 65.229164 560.75 64.49479Q560.40625 63.760414 560.40625 62.80729Q560.40625 61.885414 560.71875 61.11979Q561.03125 60.354164 561.65625 59.96354Q562.28125 59.55729 563.0469 59.55729Q563.6094 59.55729 564.0469 59.791664Q564.4844 60.02604 564.7656 60.40104L564.7656 57.322914L565.8125 57.322914L565.8125 65.916664L564.8281 65.916664ZM561.5 62.80729Q561.5 64.010414 562.0 64.604164Q562.5 65.18229 563.1875 65.18229Q563.875 65.18229 564.3594 64.61979Q564.84375 64.05729 564.84375 62.90104Q564.84375 61.61979 564.34375 61.02604Q563.8594 60.43229 563.1406 60.43229Q562.4375 60.43229 561.96875 61.010414Q561.5 61.572914 561.5 62.80729ZM567.375 64.05729L568.40625 63.90104Q568.5 64.52604 568.8906 64.854164Q569.2969 65.18229 570.03125 65.18229Q570.75 65.18229 571.09375 64.90104Q571.4531 64.604164 571.4531 64.197914Q571.4531 63.83854 571.1406 63.635414Q570.9219 63.49479 570.0625 63.27604Q568.90625 62.979164 568.4531 62.77604Q568.0156 62.55729 567.78125 62.18229Q567.5469 61.80729 567.5469 61.33854Q567.5469 60.93229 567.7344 60.572914Q567.9219 60.21354 568.25 59.979164Q568.5 59.80729 568.9219 59.68229Q569.34375 59.55729 569.84375 59.55729Q570.5625 59.55729 571.1094 59.77604Q571.6719 59.979164 571.9375 60.33854Q572.2031 60.697914 572.2969 61.291664L571.2656 61.43229Q571.2031 60.96354 570.8594 60.697914Q570.53125 60.416664 569.90625 60.416664Q569.1875 60.416664 568.875 60.666664Q568.5625 60.90104 568.5625 61.229164Q568.5625 61.43229 568.6875 61.58854Q568.8281 61.760414 569.09375 61.86979Q569.25 61.93229 570.03125 62.135414Q571.15625 62.447914 571.59375 62.635414Q572.03125 62.822914 572.28125 63.18229Q572.53125 63.541664 572.53125 64.08854Q572.53125 64.61979 572.21875 65.08854Q571.9219 65.541664 571.34375 65.80729Q570.7656 66.05729 570.03125 66.05729Q568.8125 66.05729 568.1719 65.55729Q567.5469 65.041664 567.375 64.05729Z" fill-rule="nonzero"/><path fill="#757575" d="M19.45625 32.95625L21.2375 32.8Q21.3625 33.8625 21.815624 34.55Q22.284374 35.2375 23.253124 35.675Q24.2375 36.096874 25.471874 36.096874Q26.55 36.096874 27.378124 35.784374Q28.20625 35.45625 28.6125 34.89375Q29.01875 34.33125 29.01875 33.659374Q29.01875 32.9875 28.628124 32.4875Q28.2375 31.9875 27.346874 31.64375Q26.76875 31.409374 24.784374 30.940624Q22.815624 30.471874 22.034374 30.05Q21.003124 29.51875 20.503124 28.721874Q20.003124 27.925 20.003124 26.940624Q20.003124 25.846874 20.6125 24.909374Q21.221874 23.971874 22.409374 23.4875Q23.596874 22.9875 25.034374 22.9875Q26.628124 22.9875 27.846874 23.503124Q29.065624 24.01875 29.70625 25.01875Q30.3625 26.003124 30.409374 27.26875L28.596874 27.409374Q28.45625 26.05 27.6125 25.3625Q26.76875 24.659374 25.1125 24.659374Q23.39375 24.659374 22.596874 25.3Q21.815624 25.925 21.815624 26.8Q21.815624 27.58125 22.378124 28.08125Q22.925 28.58125 25.2375 29.096874Q27.55 29.6125 28.409374 30.003124Q29.659374 30.58125 30.253124 31.471874Q30.846874 32.346874 30.846874 33.503124Q30.846874 34.64375 30.190624 35.659374Q29.534374 36.675 28.3 37.2375Q27.08125 37.8 25.55 37.8Q23.6125 37.8 22.3 37.2375Q20.9875 36.659374 20.2375 35.51875Q19.4875 34.378124 19.45625 32.95625ZM32.8625 41.51875L32.8625 27.175L34.471874 27.175L34.471874 28.51875Q35.034374 27.7375 35.7375 27.346874Q36.45625 26.940624 37.471874 26.940624Q38.8 26.940624 39.815624 27.628124Q40.83125 28.315624 41.346874 29.565624Q41.878124 30.8 41.878124 32.284374Q41.878124 33.878124 41.3 35.159374Q40.7375 36.425 39.64375 37.1125Q38.55 37.784374 37.346874 37.784374Q36.471874 37.784374 35.76875 37.409374Q35.08125 37.034374 34.628124 36.471874L34.628124 41.51875L32.8625 41.51875ZM34.45625 32.425Q34.45625 34.425 35.26875 35.378124Q36.08125 36.33125 37.2375 36.33125Q38.409374 36.33125 39.2375 35.346874Q40.08125 34.3625 40.08125 32.26875Q40.08125 30.3 39.253124 29.315624Q38.440624 28.315624 37.315624 28.315624Q36.190624 28.315624 35.315624 29.378124Q34.45625 30.425 34.45625 32.425ZM50.971874 34.20625L52.784374 34.440624Q52.3625 36.01875 51.190624 36.909374Q50.034374 37.784374 48.221874 37.784374Q45.95625 37.784374 44.6125 36.39375Q43.284374 34.9875 43.284374 32.45625Q43.284374 29.83125 44.628124 28.39375Q45.971874 26.940624 48.128124 26.940624Q50.20625 26.940624 51.51875 28.3625Q52.846874 29.76875 52.846874 32.346874Q52.846874 32.503124 52.83125 32.815624L45.096874 32.815624Q45.190624 34.51875 46.065624 35.425Q46.940624 36.33125 48.2375 36.33125Q49.20625 36.33125 49.878124 35.83125Q50.565624 35.315624 50.971874 34.20625ZM45.190624 31.3625L50.9875 31.3625Q50.878124 30.065624 50.33125 29.409374Q49.4875 28.39375 48.14375 28.39375Q46.940624 28.39375 46.1125 29.20625Q45.284374 30.003124 45.190624 31.3625ZM61.971874 34.20625L63.784374 34.440624Q63.3625 36.01875 62.190624 36.909374Q61.034374 37.784374 59.221874 37.784374Q56.95625 37.784374 55.6125 36.39375Q54.284374 34.9875 54.284374 32.45625Q54.284374 29.83125 55.628124 28.39375Q56.971874 26.940624 59.128124 26.940624Q61.20625 26.940624 62.51875 28.3625Q63.846874 29.76875 63.846874 32.346874Q63.846874 32.503124 63.83125 32.815624L56.096874 32.815624Q56.190624 34.51875 57.065624 35.425Q57.940624 36.33125 59.2375 36.33125Q60.20625 36.33125 60.878124 35.83125Q61.565624 35.315624 61.971874 34.20625ZM56.190624 31.3625L61.9875 31.3625Q61.878124 30.065624 61.33125 29.409374Q60.4875 28.39375 59.14375 28.39375Q57.940624 28.39375 57.1125 29.20625Q56.284374 30.003124 56.190624 31.3625ZM72.59688 37.55L72.59688 36.2375Q71.6125 37.784374 69.69063 37.784374Q68.45625 37.784374 67.40938 37.096874Q66.37813 36.409374 65.8 35.190624Q65.2375 33.971874 65.2375 32.378124Q65.2375 30.815624 65.75313 29.55Q66.26875 28.284374 67.3 27.6125Q68.34688 26.940624 69.6125 26.940624Q70.55 26.940624 71.28438 27.346874Q72.01875 27.7375 72.4875 28.3625L72.4875 23.2375L74.22188 23.2375L74.22188 37.55L72.59688 37.55ZM67.03438 32.378124Q67.03438 34.3625 67.87813 35.346874Q68.72188 36.33125 69.8625 36.33125Q71.01875 36.33125 71.81563 35.39375Q72.62813 34.45625 72.62813 32.51875Q72.62813 30.39375 71.8 29.39375Q70.9875 28.39375 69.78438 28.39375Q68.6125 28.39375 67.81563 29.3625Q67.03438 30.315624 67.03438 32.378124ZM83.65938 37.55L83.65938 36.01875Q82.45625 37.784374 80.37813 37.784374Q79.45625 37.784374 78.65938 37.440624Q77.8625 37.08125 77.47188 36.55Q77.09688 36.01875 76.94063 35.2375Q76.83125 34.721874 76.83125 33.596874L76.83125 27.175L78.58125 27.175L78.58125 32.925Q78.58125 34.3 78.69063 34.784374Q78.8625 35.471874 79.39375 35.878124Q79.94063 36.26875 80.72188 36.26875Q81.51875 36.26875 82.20625 35.8625Q82.90938 35.45625 83.19063 34.76875Q83.4875 34.065624 83.4875 32.7375L83.4875 27.175L85.2375 27.175L85.2375 37.55L83.65938 37.55ZM87.8625 41.51875L87.8625 27.175L89.47188 27.175L89.47188 28.51875Q90.03438 27.7375 90.7375 27.346874Q91.45625 26.940624 92.47188 26.940624Q93.8 26.940624 94.81563 27.628124Q95.83125 28.315624 96.34688 29.565624Q96.87813 30.8 96.87813 32.284374Q96.87813 33.878124 96.3 35.159374Q95.7375 36.425 94.64375 37.1125Q93.55 37.784374 92.34688 37.784374Q91.47188 37.784374 90.76875 37.409374Q90.08125 37.034374 89.62813 36.471874L89.62813 41.51875L87.8625 41.51875ZM89.45625 32.425Q89.45625 34.425 90.26875 35.378124Q91.08125 36.33125 92.2375 36.33125Q93.40938 36.33125 94.2375 35.346874Q95.08125 34.3625 95.08125 32.26875Q95.08125 30.3 94.25313 29.315624Q93.44063 28.315624 92.31563 28.315624Q91.19063 28.315624 90.31563 29.378124Q89.45625 30.425 89.45625 32.425Z" fill-rule="nonzero"/></svg>